Hahmlet-Black.ufo
<glyph name="exclam" format="2">
  <advance width="374"/>
  <unicode hex="0021"/>
  <outline>
    <contour>
      <point x="191" y="271" type="curve"/>
      <point x="213" y="272" type="line"/>
      <point x="219" y="273"/>
      <point x="225" y="277"/>
      <point x="227" y="282" type="curve"/>
      <point x="259" y="354"/>
      <point x="283" y="448"/>
      <point x="296" y="614" type="curve" smooth="yes"/>
      <point x="303" y="701" type="line"/>
      <point x="309" y="766"/>
      <point x="305" y="771"/>
      <point x="269" y="778" type="curve"/>
      <point x="204" y="788"/>
      <point x="140" y="786"/>
      <point x="79" y="772" type="curve"/>
      <point x="73" y="771"/>
      <point x="69" y="766"/>
      <point x="69" y="760" type="curve"/>
      <point x="76" y="614" type="line" smooth="yes"/>
      <point x="85" y="486"/>
      <point x="103" y="399"/>
      <point x="125" y="333" type="curve"/>
      <point x="149" y="273"/>
      <point x="154" y="269"/>
    </contour>
    <component base="period"/>
  </outline>
</glyph>
<glyph name="numbersign" format="2">
  <advance width="720"/>
  <unicode hex="0023"/>
  <outline>
    <contour>
      <point x="492" y="744" type="curve"/>
      <point x="351" y="10" type="line"/>
      <point x="350" y="4"/>
      <point x="353" y="0"/>
      <point x="359" y="0" type="curve"/>
      <point x="429" y="0" type="line"/>
      <point x="435" y="0"/>
      <point x="440" y="4"/>
      <point x="441" y="10" type="curve"/>
      <point x="574" y="707" type="line"/>
      <point x="586" y="744" type="line"/>
      <point x="588" y="750"/>
      <point x="585" y="754"/>
      <point x="579" y="754" type="curve"/>
      <point x="504" y="754" type="line"/>
      <point x="498" y="754"/>
      <point x="493" y="750"/>
    </contour>
    <contour>
      <point x="115" y="572" type="curve"/>
      <point x="100" y="446" type="line"/>
      <point x="99" y="440"/>
      <point x="103" y="436"/>
      <point x="109" y="436" type="curve"/>
      <point x="659" y="436" type="line"/>
      <point x="665" y="436"/>
      <point x="670" y="440"/>
      <point x="671" y="446" type="curve"/>
      <point x="678" y="491"/>
      <point x="683" y="535"/>
      <point x="685" y="580" type="curve"/>
      <point x="686" y="586"/>
      <point x="682" y="590"/>
      <point x="676" y="589" type="curve"/>
      <point x="606" y="582" type="line"/>
      <point x="126" y="582" type="line"/>
      <point x="120" y="582"/>
      <point x="116" y="578"/>
    </contour>
    <contour>
      <point x="51" y="304" type="curve"/>
      <point x="36" y="179" type="line"/>
      <point x="35" y="173"/>
      <point x="39" y="169"/>
      <point x="45" y="169" type="curve"/>
      <point x="595" y="169" type="line"/>
      <point x="601" y="169"/>
      <point x="606" y="173"/>
      <point x="607" y="179" type="curve"/>
      <point x="614" y="224"/>
      <point x="619" y="267"/>
      <point x="621" y="312" type="curve"/>
      <point x="622" y="318"/>
      <point x="618" y="322"/>
      <point x="612" y="321" type="curve"/>
      <point x="542" y="314" type="line"/>
      <point x="62" y="314" type="line"/>
      <point x="56" y="314"/>
      <point x="52" y="310"/>
    </contour>
    <contour>
      <point x="280" y="744" type="curve"/>
      <point x="139" y="10" type="line"/>
      <point x="138" y="4"/>
      <point x="141" y="0"/>
      <point x="147" y="0" type="curve"/>
      <point x="217" y="0" type="line"/>
      <point x="223" y="0"/>
      <point x="228" y="4"/>
      <point x="229" y="10" type="curve"/>
      <point x="362" y="707" type="line"/>
      <point x="374" y="744" type="line"/>
      <point x="376" y="750"/>
      <point x="373" y="754"/>
      <point x="367" y="754" type="curve"/>
      <point x="292" y="754" type="line"/>
      <point x="286" y="754"/>
      <point x="281" y="750"/>
    </contour>
  </outline>
</glyph>
<glyph name="dollar" format="2">
  <advance width="687"/>
  <unicode hex="0024"/>
  <outline>
    <contour>
      <point x="410" y="451" type="curve" smooth="yes"/>
      <point x="285" y="495"/>
      <point x="254" y="517"/>
      <point x="254" y="569" type="curve" smooth="yes"/>
      <point x="254" y="628"/>
      <point x="292" y="659"/>
      <point x="363" y="659" type="curve" smooth="yes"/>
      <point x="443" y="659"/>
      <point x="460" y="629"/>
      <point x="480" y="584" type="curve" smooth="yes"/>
      <point x="505" y="527" type="line"/>
      <point x="507" y="522"/>
      <point x="513" y="518"/>
      <point x="519" y="518" type="curve"/>
      <point x="555" y="520" type="line"/>
      <point x="561" y="520"/>
      <point x="565" y="524"/>
      <point x="565" y="530" type="curve"/>
      <point x="574" y="696" type="line"/>
      <point x="574" y="702"/>
      <point x="571" y="708"/>
      <point x="565" y="711" type="curve"/>
      <point x="524" y="734"/>
      <point x="461" y="752"/>
      <point x="376" y="752" type="curve" smooth="yes"/>
      <point x="193" y="752"/>
      <point x="60" y="657"/>
      <point x="60" y="526" type="curve" smooth="yes"/>
      <point x="60" y="410"/>
      <point x="110" y="360"/>
      <point x="301" y="293" type="curve" smooth="yes"/>
      <point x="420" y="251"/>
      <point x="447" y="229"/>
      <point x="447" y="173" type="curve" smooth="yes"/>
      <point x="447" y="125"/>
      <point x="393" y="95"/>
      <point x="307" y="95" type="curve" smooth="yes"/>
      <point x="204" y="95"/>
      <point x="180" y="122"/>
      <point x="160" y="178" type="curve" smooth="yes"/>
      <point x="140" y="233" type="line"/>
      <point x="138" y="238"/>
      <point x="133" y="242"/>
      <point x="127" y="242" type="curve"/>
      <point x="88" y="241" type="line"/>
      <point x="82" y="241"/>
      <point x="78" y="237"/>
      <point x="77" y="231" type="curve"/>
      <point x="69" y="56" type="line"/>
      <point x="68" y="50"/>
      <point x="72" y="44"/>
      <point x="77" y="42" type="curve"/>
      <point x="121" y="23"/>
      <point x="202" y="2"/>
      <point x="314" y="2" type="curve" smooth="yes"/>
      <point x="505" y="2"/>
      <point x="638" y="101"/>
      <point x="638" y="243" type="curve" smooth="yes"/>
      <point x="638" y="340"/>
      <point x="582" y="391"/>
    </contour>
    <contour>
      <point x="336" y="-14" type="curve"/>
      <point x="363" y="385" type="line"/>
      <point x="286" y="391" type="line"/>
      <point x="255" y="-71" type="line"/>
      <point x="254" y="-77"/>
      <point x="258" y="-81"/>
      <point x="264" y="-81" type="curve"/>
      <point x="290" y="-82" type="line"/>
      <point x="327" y="-83"/>
      <point x="331" y="-79"/>
    </contour>
    <contour>
      <point x="354" y="832" type="curve"/>
      <point x="323" y="388" type="line"/>
      <point x="400" y="383" type="line"/>
      <point x="430" y="817" type="line"/>
      <point x="438" y="842" type="line"/>
      <point x="440" y="848"/>
      <point x="437" y="852"/>
      <point x="431" y="852" type="curve"/>
      <point x="409" y="852"/>
      <point x="387" y="851"/>
      <point x="369" y="848" type="curve"/>
      <point x="356" y="846"/>
      <point x="355" y="845"/>
    </contour>
  </outline>
</glyph>
<glyph name="percent" format="2">
  <advance width="1236"/>
  <unicode hex="0025"/>
  <outline>
    <contour>
      <point x="310" y="324" type="curve" smooth="yes"/>
      <point x="456" y="324"/>
      <point x="549" y="407"/>
      <point x="549" y="536" type="curve" smooth="yes"/>
      <point x="549" y="665"/>
      <point x="457" y="747"/>
      <point x="310" y="747" type="curve" smooth="yes"/>
      <point x="165" y="747"/>
      <point x="72" y="664"/>
      <point x="72" y="536" type="curve" smooth="yes"/>
      <point x="72" y="408"/>
      <point x="166" y="324"/>
    </contour>
    <contour>
      <point x="311" y="419" type="curve" smooth="yes"/>
      <point x="268" y="419"/>
      <point x="241" y="465"/>
      <point x="241" y="536" type="curve" smooth="yes"/>
      <point x="241" y="606"/>
      <point x="268" y="651"/>
      <point x="311" y="651" type="curve" smooth="yes"/>
      <point x="353" y="651"/>
      <point x="381" y="605"/>
      <point x="381" y="536" type="curve" smooth="yes"/>
      <point x="381" y="466"/>
      <point x="353" y="419"/>
    </contour>
    <contour>
      <point x="925" y="-16" type="curve" smooth="yes"/>
      <point x="1071" y="-16"/>
      <point x="1164" y="67"/>
      <point x="1164" y="196" type="curve" smooth="yes"/>
      <point x="1164" y="325"/>
      <point x="1072" y="407"/>
      <point x="925" y="407" type="curve" smooth="yes"/>
      <point x="780" y="407"/>
      <point x="687" y="324"/>
      <point x="687" y="196" type="curve" smooth="yes"/>
      <point x="687" y="68"/>
      <point x="781" y="-16"/>
    </contour>
    <contour>
      <point x="926" y="79" type="curve" smooth="yes"/>
      <point x="883" y="79"/>
      <point x="856" y="125"/>
      <point x="856" y="196" type="curve" smooth="yes"/>
      <point x="856" y="266"/>
      <point x="883" y="311"/>
      <point x="926" y="311" type="curve" smooth="yes"/>
      <point x="968" y="311"/>
      <point x="996" y="265"/>
      <point x="996" y="196" type="curve" smooth="yes"/>
      <point x="996" y="126"/>
      <point x="968" y="79"/>
    </contour>
    <component base="fraction" xOffset="541"/>
  </outline>
</glyph>
<glyph name="ampersand" format="2">
  <advance width="872"/>
  <unicode hex="0026"/>
  <outline>
    <contour>
      <point x="650" y="-40" type="curve"/>
      <point x="705" y="-25"/>
      <point x="794" y="41"/>
      <point x="815" y="80" type="curve"/>
      <point x="817" y="85"/>
      <point x="815" y="90"/>
      <point x="810" y="92" type="curve"/>
      <point x="739" y="117" type="line"/>
      <point x="695" y="145"/>
      <point x="659" y="171"/>
      <point x="634" y="194" type="curve"/>
      <point x="391" y="407" type="line"/>
      <point x="310" y="461"/>
      <point x="262" y="525"/>
      <point x="262" y="581" type="curve" smooth="yes"/>
      <point x="262" y="630"/>
      <point x="297" y="663"/>
      <point x="349" y="663" type="curve" smooth="yes"/>
      <point x="394" y="663"/>
      <point x="422" y="631"/>
      <point x="422" y="578" type="curve" smooth="yes"/>
      <point x="422" y="518"/>
      <point x="393" y="474"/>
      <point x="322" y="423" type="curve"/>
      <point x="378" y="377" type="line"/>
      <point x="511" y="438"/>
      <point x="583" y="517"/>
      <point x="583" y="601" type="curve" smooth="yes"/>
      <point x="583" y="709"/>
      <point x="502" y="769"/>
      <point x="354" y="769" type="curve" smooth="yes"/>
      <point x="190" y="769"/>
      <point x="79" y="687"/>
      <point x="79" y="566" type="curve" smooth="yes"/>
      <point x="79" y="476"/>
      <point x="127" y="392"/>
      <point x="214" y="331" type="curve"/>
      <point x="492" y="80" type="line"/>
      <point x="526" y="38"/>
      <point x="588" y="-14"/>
      <point x="631" y="-37" type="curve"/>
      <point x="636" y="-40"/>
      <point x="644" y="-41"/>
    </contour>
    <contour>
      <point x="278" y="-16" type="curve" smooth="yes"/>
      <point x="389" y="-16"/>
      <point x="502" y="24"/>
      <point x="574" y="90" type="curve"/>
      <point x="509" y="125" type="line"/>
      <point x="456" y="106"/>
      <point x="411" y="98"/>
      <point x="364" y="98" type="curve" smooth="yes"/>
      <point x="276" y="98"/>
      <point x="214" y="153"/>
      <point x="214" y="231" type="curve" smooth="yes"/>
      <point x="214" y="273"/>
      <point x="226" y="298"/>
      <point x="257" y="320" type="curve"/>
      <point x="228" y="375" type="line"/>
      <point x="79" y="327"/>
      <point x="20" y="269"/>
      <point x="20" y="170" type="curve" smooth="yes"/>
      <point x="20" y="64"/>
      <point x="132" y="-16"/>
    </contour>
    <contour>
      <point x="562" y="153" type="curve"/>
      <point x="633" y="131" type="line"/>
      <point x="698" y="189"/>
      <point x="740" y="244"/>
      <point x="765" y="308" type="curve"/>
      <point x="772" y="328"/>
      <point x="776" y="334"/>
      <point x="805" y="339" type="curve"/>
      <point x="833" y="344" type="line"/>
      <point x="839" y="345"/>
      <point x="843" y="350"/>
      <point x="843" y="356" type="curve"/>
      <point x="843" y="389" type="line"/>
      <point x="843" y="395"/>
      <point x="839" y="399"/>
      <point x="833" y="399" type="curve"/>
      <point x="548" y="399" type="line"/>
      <point x="542" y="399"/>
      <point x="538" y="395"/>
      <point x="538" y="389" type="curve"/>
      <point x="538" y="356" type="line"/>
      <point x="538" y="350"/>
      <point x="542" y="345"/>
      <point x="548" y="344" type="curve"/>
      <point x="584" y="338" type="line"/>
      <point x="605" y="335"/>
      <point x="611" y="332"/>
      <point x="614" y="303" type="curve"/>
      <point x="615" y="254"/>
      <point x="598" y="204"/>
    </contour>
  </outline>
</glyph>
<glyph name="quotesingle" format="2">
  <advance width="371"/>
  <unicode hex="0027"/>
  <outline>
    <contour>
      <point x="148" y="388" type="curve"/>
      <point x="229" y="396" type="line"/>
      <point x="235" y="397"/>
      <point x="239" y="401"/>
      <point x="240" y="407" type="curve"/>
      <point x="287" y="777" type="line"/>
      <point x="288" y="783"/>
      <point x="284" y="787"/>
      <point x="278" y="788" type="curve"/>
      <point x="207" y="792"/>
      <point x="136" y="777"/>
      <point x="89" y="757" type="curve"/>
      <point x="84" y="755"/>
      <point x="81" y="749"/>
      <point x="82" y="743" type="curve"/>
      <point x="98" y="675"/>
      <point x="124" y="514"/>
      <point x="137" y="397" type="curve"/>
      <point x="138" y="391"/>
      <point x="142" y="387"/>
    </contour>
  </outline>
</glyph>
<glyph name="parenleft" format="2">
  <advance width="443"/>
  <unicode hex="0028"/>
  <outline>
    <contour>
      <point x="393" y="-126" type="curve"/>
      <point x="416" y="-99" type="line"/>
      <point x="420" y="-95"/>
      <point x="420" y="-90"/>
      <point x="415" y="-86" type="curve"/>
      <point x="285" y="17"/>
      <point x="254" y="181"/>
      <point x="254" y="347" type="curve" smooth="yes"/>
      <point x="254" y="513"/>
      <point x="285" y="679"/>
      <point x="415" y="781" type="curve"/>
      <point x="420" y="785"/>
      <point x="420" y="790"/>
      <point x="416" y="794" type="curve"/>
      <point x="393" y="820" type="line"/>
      <point x="389" y="824"/>
      <point x="382" y="825"/>
      <point x="377" y="823" type="curve"/>
      <point x="141" y="711"/>
      <point x="72" y="529"/>
      <point x="72" y="347" type="curve" smooth="yes"/>
      <point x="72" y="165"/>
      <point x="141" y="-17"/>
      <point x="377" y="-129" type="curve"/>
      <point x="382" y="-131"/>
      <point x="389" y="-130"/>
    </contour>
  </outline>
</glyph>
<glyph name="asterisk" format="2">
  <advance width="678"/>
  <unicode hex="002A"/>
  <outline>
    <contour>
      <point x="316" y="810" type="curve"/>
      <point x="308" y="567" type="line"/>
      <point x="214" y="337" type="line"/>
      <point x="212" y="332"/>
      <point x="213" y="326"/>
      <point x="219" y="323" type="curve"/>
      <point x="248" y="307"/>
      <point x="291" y="294"/>
      <point x="337" y="294" type="curve"/>
      <point x="343" y="294"/>
      <point x="348" y="298"/>
      <point x="348" y="304" type="curve"/>
      <point x="380" y="554" type="line"/>
      <point x="454" y="817" type="line"/>
      <point x="456" y="823"/>
      <point x="453" y="828"/>
      <point x="447" y="828" type="curve"/>
      <point x="403" y="834"/>
      <point x="358" y="831"/>
      <point x="326" y="823" type="curve"/>
      <point x="320" y="821"/>
      <point x="316" y="816"/>
    </contour>
    <contour>
      <point x="127" y="407" type="curve"/>
      <point x="352" y="529" type="line"/>
      <point x="587" y="585" type="line"/>
      <point x="593" y="586"/>
      <point x="597" y="591"/>
      <point x="598" y="597" type="curve"/>
      <point x="601" y="643"/>
      <point x="595" y="682"/>
      <point x="578" y="718" type="curve"/>
      <point x="575" y="723"/>
      <point x="570" y="725"/>
      <point x="564" y="722" type="curve"/>
      <point x="326" y="589" type="line"/>
      <point x="103" y="537" type="line"/>
      <point x="97" y="536"/>
      <point x="92" y="531"/>
      <point x="91" y="525" type="curve"/>
      <point x="85" y="490"/>
      <point x="94" y="447"/>
      <point x="113" y="411" type="curve"/>
      <point x="116" y="405"/>
      <point x="122" y="404"/>
    </contour>
    <contour>
      <point x="140" y="635" type="curve"/>
      <point x="320" y="531" type="line"/>
      <point x="474" y="356" type="line"/>
      <point x="478" y="352"/>
      <point x="485" y="351"/>
      <point x="490" y="353" type="curve"/>
      <point x="521" y="370"/>
      <point x="557" y="404"/>
      <point x="580" y="443" type="curve"/>
      <point x="583" y="449"/>
      <point x="582" y="454"/>
      <point x="576" y="457" type="curve"/>
      <point x="360" y="582" type="line"/>
      <point x="200" y="771" type="line"/>
      <point x="197" y="776"/>
      <point x="190" y="777"/>
      <point x="185" y="775" type="curve"/>
      <point x="163" y="762"/>
      <point x="145" y="741"/>
      <point x="131" y="718" type="curve"/>
      <point x="106" y="659"/>
      <point x="107" y="653"/>
    </contour>
  </outline>
</glyph>
<glyph name="plus" format="2">
  <advance width="670"/>
  <unicode hex="002B"/>
  <outline>
    <contour>
      <point x="43" y="335" type="curve"/>
      <point x="37" y="305"/>
      <point x="33" y="275"/>
      <point x="33" y="246" type="curve"/>
      <point x="33" y="240"/>
      <point x="37" y="236"/>
      <point x="43" y="236" type="curve"/>
      <point x="616" y="236" type="line"/>
      <point x="622" y="236"/>
      <point x="627" y="240"/>
      <point x="628" y="246" type="curve"/>
      <point x="635" y="278"/>
      <point x="639" y="310"/>
      <point x="638" y="342" type="curve"/>
      <point x="638" y="348"/>
      <point x="634" y="352"/>
      <point x="628" y="351" type="curve"/>
      <point x="529" y="345" type="line"/>
      <point x="55" y="345" type="line"/>
      <point x="49" y="345"/>
      <point x="44" y="341"/>
    </contour>
    <contour>
      <point x="397" y="18" type="curve"/>
      <point x="397" y="559" type="line"/>
      <point x="397" y="565"/>
      <point x="393" y="569"/>
      <point x="387" y="569" type="curve"/>
      <point x="347" y="571"/>
      <point x="302" y="565"/>
      <point x="272" y="557" type="curve"/>
      <point x="266" y="555"/>
      <point x="262" y="550"/>
      <point x="263" y="544" type="curve"/>
      <point x="269" y="484" type="line"/>
      <point x="269" y="6" type="line"/>
      <point x="269" y="0"/>
      <point x="273" y="-4"/>
      <point x="279" y="-4" type="curve"/>
      <point x="315" y="-4"/>
      <point x="352" y="0"/>
      <point x="387" y="6" type="curve"/>
      <point x="393" y="7"/>
      <point x="397" y="12"/>
    </contour>
  </outline>
</glyph>
<glyph name="comma" format="2">
  <advance width="364"/>
  <unicode hex="002C"/>
  <outline>
    <contour>
      <point x="74" y="-220" type="curve"/>
      <point x="143" y="-199"/>
      <point x="283" y="-122"/>
      <point x="283" y="33" type="curve" smooth="yes"/>
      <point x="283" y="102"/>
      <point x="250" y="180"/>
      <point x="218" y="180" type="curve" smooth="yes"/>
      <point x="163" y="180"/>
      <point x="91" y="128"/>
      <point x="66" y="91" type="curve"/>
      <point x="63" y="85"/>
      <point x="64" y="79"/>
      <point x="67" y="74" type="curve"/>
      <point x="103" y="30"/>
      <point x="130" y="-8"/>
      <point x="130" y="-61" type="curve" smooth="yes"/>
      <point x="130" y="-103"/>
      <point x="98" y="-145"/>
      <point x="56" y="-168" type="curve"/>
      <point x="51" y="-171"/>
      <point x="48" y="-177"/>
      <point x="50" y="-182" type="curve"/>
      <point x="61" y="-214" type="line"/>
      <point x="63" y="-219"/>
      <point x="68" y="-222"/>
    </contour>
  </outline>
</glyph>
<glyph name="hyphen" format="2">
  <advance width="439"/>
  <unicode hex="002D"/>
  <outline>
    <contour>
      <point x="59" y="211" type="curve"/>
      <point x="371" y="211" type="line"/>
      <point x="377" y="211"/>
      <point x="382" y="215"/>
      <point x="383" y="221" type="curve"/>
      <point x="392" y="260"/>
      <point x="395" y="299"/>
      <point x="394" y="338" type="curve"/>
      <point x="394" y="344"/>
      <point x="390" y="348"/>
      <point x="384" y="347" type="curve"/>
      <point x="296" y="341" type="line"/>
      <point x="74" y="341" type="line"/>
      <point x="68" y="341"/>
      <point x="64" y="337"/>
      <point x="63" y="331" type="curve"/>
      <point x="50" y="221" type="line"/>
      <point x="49" y="215"/>
      <point x="53" y="211"/>
    </contour>
  </outline>
</glyph>
<glyph name="period" format="2">
  <advance width="374"/>
  <unicode hex="002E"/>
  <outline>
    <contour>
      <point x="187" y="-16" type="curve" smooth="yes"/>
      <point x="258" y="-16"/>
      <point x="304" y="22"/>
      <point x="304" y="83" type="curve" smooth="yes"/>
      <point x="304" y="145"/>
      <point x="258" y="182"/>
      <point x="187" y="182" type="curve" smooth="yes"/>
      <point x="116" y="182"/>
      <point x="70" y="145"/>
      <point x="70" y="83" type="curve" smooth="yes"/>
      <point x="70" y="22"/>
      <point x="116" y="-16"/>
    </contour>
  </outline>
</glyph>
<glyph name="slash" format="2">
  <advance width="492"/>
  <unicode hex="002F"/>
  <outline>
    <contour>
      <point x="331" y="767" type="curve"/>
      <point x="312" y="710" type="line"/>
      <point x="53" y="24" type="line"/>
      <point x="30" y="-37"/>
      <point x="33" y="-42"/>
      <point x="69" y="-47" type="curve"/>
      <point x="98" y="-51"/>
      <point x="125" y="-53"/>
      <point x="153" y="-55" type="curve"/>
      <point x="159" y="-55"/>
      <point x="164" y="-51"/>
      <point x="166" y="-45" type="curve"/>
      <point x="181" y="12" type="line"/>
      <point x="439" y="697" type="line"/>
      <point x="462" y="758"/>
      <point x="459" y="763"/>
      <point x="423" y="769" type="curve"/>
      <point x="396" y="772"/>
      <point x="370" y="775"/>
      <point x="344" y="776" type="curve"/>
      <point x="338" y="777"/>
      <point x="333" y="773"/>
    </contour>
  </outline>
</glyph>
<glyph name="zero" format="2">
  <advance width="788"/>
  <unicode hex="0030"/>
  <outline>
    <contour>
      <point x="393" y="-16" type="curve" smooth="yes"/>
      <point x="603" y="-16"/>
      <point x="737" y="134"/>
      <point x="737" y="371" type="curve" smooth="yes"/>
      <point x="737" y="607"/>
      <point x="604" y="757"/>
      <point x="393" y="757" type="curve" smooth="yes"/>
      <point x="184" y="757"/>
      <point x="51" y="606"/>
      <point x="51" y="371" type="curve" smooth="yes"/>
      <point x="51" y="135"/>
      <point x="185" y="-16"/>
    </contour>
    <contour>
      <point x="392" y="95" type="curve" smooth="yes"/>
      <point x="316" y="95"/>
      <point x="273" y="194"/>
      <point x="273" y="371" type="curve" smooth="yes"/>
      <point x="273" y="547"/>
      <point x="316" y="646"/>
      <point x="392" y="646" type="curve" smooth="yes"/>
      <point x="471" y="646"/>
      <point x="515" y="548"/>
      <point x="515" y="371" type="curve" smooth="yes"/>
      <point x="515" y="195"/>
      <point x="470" y="95"/>
    </contour>
  </outline>
</glyph>
<glyph name="one" format="2">
  <advance width="516"/>
  <unicode hex="0031"/>
  <outline>
    <contour>
      <point x="482" y="50" type="curve"/>
      <point x="399" y="67" type="line"/>
      <point x="374" y="72"/>
      <point x="373" y="73"/>
      <point x="373" y="103" type="curve"/>
      <point x="373" y="741" type="line"/>
      <point x="373" y="761"/>
      <point x="365" y="764"/>
      <point x="342" y="755" type="curve"/>
      <point x="43" y="636" type="line"/>
      <point x="38" y="633"/>
      <point x="35" y="628"/>
      <point x="35" y="622" type="curve"/>
      <point x="41" y="583" type="line"/>
      <point x="41" y="577"/>
      <point x="46" y="573"/>
      <point x="52" y="574" type="curve"/>
      <point x="265" y="593" type="line"/>
      <point x="167" y="637" type="line"/>
      <point x="167" y="99" type="line"/>
      <point x="167" y="73"/>
      <point x="166" y="72"/>
      <point x="137" y="65" type="curve"/>
      <point x="71" y="50" type="line"/>
      <point x="65" y="49"/>
      <point x="61" y="44"/>
      <point x="61" y="38" type="curve"/>
      <point x="61" y="10" type="line"/>
      <point x="61" y="4"/>
      <point x="65" y="0"/>
      <point x="71" y="0" type="curve"/>
      <point x="482" y="0" type="line"/>
      <point x="488" y="0"/>
      <point x="492" y="4"/>
      <point x="492" y="10" type="curve"/>
      <point x="492" y="38" type="line"/>
      <point x="492" y="44"/>
      <point x="488" y="49"/>
    </contour>
  </outline>
</glyph>
<glyph name="two" format="2">
  <advance width="651"/>
  <unicode hex="0032"/>
  <outline>
    <contour>
      <point x="41" y="0" type="curve"/>
      <point x="483" y="0" type="line"/>
      <point x="563" y="-7" type="line"/>
      <point x="569" y="-8"/>
      <point x="573" y="-4"/>
      <point x="574" y="2" type="curve"/>
      <point x="594" y="226" type="line"/>
      <point x="595" y="232"/>
      <point x="591" y="237"/>
      <point x="585" y="238" type="curve"/>
      <point x="562" y="241" type="line"/>
      <point x="556" y="242"/>
      <point x="550" y="240"/>
      <point x="546" y="235" type="curve"/>
      <point x="513" y="185" type="line"/>
      <point x="501" y="168"/>
      <point x="486" y="158"/>
      <point x="457" y="158" type="curve"/>
      <point x="198" y="158" type="line"/>
      <point x="173" y="67" type="line"/>
      <point x="535" y="390"/>
      <point x="565" y="426"/>
      <point x="565" y="544" type="curve" smooth="yes"/>
      <point x="565" y="676"/>
      <point x="471" y="757"/>
      <point x="317" y="757" type="curve" smooth="yes"/>
      <point x="161" y="757"/>
      <point x="55" y="672"/>
      <point x="36" y="534" type="curve"/>
      <point x="35" y="528"/>
      <point x="39" y="523"/>
      <point x="44" y="521" type="curve"/>
      <point x="84" y="507" type="line"/>
      <point x="89" y="505"/>
      <point x="95" y="508"/>
      <point x="97" y="513" type="curve"/>
      <point x="127" y="581"/>
      <point x="173" y="614"/>
      <point x="237" y="614" type="curve" smooth="yes"/>
      <point x="311" y="614"/>
      <point x="354" y="571"/>
      <point x="354" y="497" type="curve" smooth="yes"/>
      <point x="354" y="419"/>
      <point x="307" y="340"/>
      <point x="148" y="158" type="curve"/>
      <point x="128" y="136"/>
      <point x="109" y="116"/>
      <point x="79" y="88" type="curve"/>
      <point x="30" y="43" type="line"/>
      <point x="26" y="39"/>
      <point x="24" y="32"/>
      <point x="25" y="26" type="curve"/>
      <point x="29" y="10" type="line"/>
      <point x="30" y="4"/>
      <point x="35" y="0"/>
    </contour>
  </outline>
</glyph>
<glyph name="three" format="2">
  <advance width="644"/>
  <unicode hex="0033"/>
  <outline>
    <contour>
      <point x="304" y="-16" type="curve" smooth="yes"/>
      <point x="487" y="-16"/>
      <point x="598" y="65"/>
      <point x="598" y="199" type="curve" smooth="yes"/>
      <point x="598" y="325"/>
      <point x="504" y="392"/>
      <point x="329" y="392" type="curve"/>
      <point x="329" y="369" type="line"/>
      <point x="465" y="369"/>
      <point x="560" y="452"/>
      <point x="560" y="566" type="curve" smooth="yes"/>
      <point x="560" y="683"/>
      <point x="466" y="757"/>
      <point x="318" y="757" type="curve" smooth="yes"/>
      <point x="170" y="757"/>
      <point x="68" y="672"/>
      <point x="49" y="534" type="curve"/>
      <point x="48" y="528"/>
      <point x="52" y="523"/>
      <point x="57" y="521" type="curve"/>
      <point x="97" y="507" type="line"/>
      <point x="102" y="505"/>
      <point x="108" y="508"/>
      <point x="110" y="513" type="curve"/>
      <point x="140" y="585"/>
      <point x="180" y="614"/>
      <point x="247" y="614" type="curve" smooth="yes"/>
      <point x="312" y="614"/>
      <point x="358" y="571"/>
      <point x="358" y="512" type="curve" smooth="yes"/>
      <point x="358" y="451"/>
      <point x="323" y="420"/>
      <point x="245" y="411" type="curve" smooth="yes"/>
      <point x="203" y="406" type="line"/>
      <point x="197" y="405"/>
      <point x="192" y="401"/>
      <point x="191" y="395" type="curve"/>
      <point x="181" y="335" type="line"/>
      <point x="180" y="329"/>
      <point x="183" y="325"/>
      <point x="189" y="326" type="curve"/>
      <point x="245" y="329" type="line" smooth="yes"/>
      <point x="340" y="335"/>
      <point x="389" y="287"/>
      <point x="389" y="190" type="curve" smooth="yes"/>
      <point x="389" y="112"/>
      <point x="350" y="69"/>
      <point x="279" y="69" type="curve" smooth="yes"/>
      <point x="133" y="69"/>
      <point x="223" y="228"/>
      <point x="96" y="228" type="curve" smooth="yes"/>
      <point x="51" y="228"/>
      <point x="25" y="201"/>
      <point x="25" y="155" type="curve" smooth="yes"/>
      <point x="25" y="50"/>
      <point x="133" y="-16"/>
    </contour>
  </outline>
</glyph>
<glyph name="four" format="2">
  <advance width="675"/>
  <unicode hex="0034"/>
  <outline>
    <contour>
      <point x="231" y="0" type="curve"/>
      <point x="610" y="0" type="line"/>
      <point x="616" y="0"/>
      <point x="620" y="4"/>
      <point x="620" y="10" type="curve"/>
      <point x="620" y="38" type="line"/>
      <point x="620" y="44"/>
      <point x="616" y="49"/>
      <point x="610" y="50" type="curve"/>
      <point x="536" y="66" type="line"/>
      <point x="511" y="72"/>
      <point x="510" y="73"/>
      <point x="510" y="103" type="curve"/>
      <point x="510" y="571" type="line"/>
      <point x="510" y="592"/>
      <point x="511" y="612"/>
      <point x="512" y="641" type="curve"/>
      <point x="518" y="730" type="line"/>
      <point x="519" y="736"/>
      <point x="515" y="741"/>
      <point x="509" y="743" type="curve"/>
      <point x="461" y="755" type="line"/>
      <point x="455" y="757"/>
      <point x="448" y="755"/>
      <point x="445" y="750" type="curve"/>
      <point x="16" y="250" type="line"/>
      <point x="13" y="245"/>
      <point x="10" y="238"/>
      <point x="10" y="232" type="curve"/>
      <point x="10" y="181" type="line"/>
      <point x="10" y="175"/>
      <point x="14" y="171"/>
      <point x="20" y="171" type="curve"/>
      <point x="620" y="171" type="line"/>
      <point x="626" y="171"/>
      <point x="631" y="175"/>
      <point x="632" y="181" type="curve"/>
      <point x="637" y="220"/>
      <point x="639" y="278"/>
      <point x="639" y="310" type="curve"/>
      <point x="638" y="323"/>
      <point x="637" y="324"/>
      <point x="624" y="321" type="curve"/>
      <point x="541" y="304" type="line"/>
      <point x="105" y="304" type="line"/>
      <point x="124" y="259" type="line"/>
      <point x="423" y="613" type="line"/>
      <point x="339" y="580" type="line"/>
      <point x="339" y="99" type="line"/>
      <point x="339" y="73"/>
      <point x="338" y="72"/>
      <point x="309" y="66" type="curve"/>
      <point x="231" y="50" type="line"/>
      <point x="225" y="49"/>
      <point x="221" y="44"/>
      <point x="221" y="38" type="curve"/>
      <point x="221" y="10" type="line"/>
      <point x="221" y="4"/>
      <point x="225" y="0"/>
    </contour>
  </outline>
</glyph>
<glyph name="five" format="2">
  <advance width="626"/>
  <unicode hex="0035"/>
  <outline>
    <contour>
      <point x="293" y="-16" type="curve" smooth="yes"/>
      <point x="474" y="-16"/>
      <point x="584" y="74"/>
      <point x="584" y="222" type="curve" smooth="yes"/>
      <point x="584" y="373"/>
      <point x="472" y="455"/>
      <point x="266" y="455" type="curve" smooth="yes"/>
      <point x="232" y="455"/>
      <point x="190" y="454"/>
      <point x="152" y="452" type="curve"/>
      <point x="185" y="395" type="line"/>
      <point x="238" y="643" type="line"/>
      <point x="141" y="578" type="line"/>
      <point x="512" y="578" type="line"/>
      <point x="518" y="578"/>
      <point x="524" y="581"/>
      <point x="527" y="587" type="curve"/>
      <point x="556" y="635"/>
      <point x="578" y="715"/>
      <point x="577" y="761" type="curve"/>
      <point x="576" y="774"/>
      <point x="575" y="775"/>
      <point x="562" y="772" type="curve"/>
      <point x="439" y="740" type="line"/>
      <point x="157" y="734" type="line"/>
      <point x="151" y="734"/>
      <point x="146" y="730"/>
      <point x="145" y="724" type="curve"/>
      <point x="82" y="357" type="line"/>
      <point x="81" y="351"/>
      <point x="84" y="347"/>
      <point x="90" y="347" type="curve"/>
      <point x="106" y="347"/>
      <point x="120" y="347"/>
      <point x="135" y="347" type="curve" smooth="yes"/>
      <point x="328" y="347"/>
      <point x="379" y="273"/>
      <point x="379" y="189" type="curve" smooth="yes"/>
      <point x="379" y="113"/>
      <point x="345" y="69"/>
      <point x="287" y="69" type="curve" smooth="yes"/>
      <point x="159" y="69"/>
      <point x="235" y="228"/>
      <point x="111" y="228" type="curve" smooth="yes"/>
      <point x="64" y="228"/>
      <point x="39" y="199"/>
      <point x="39" y="155" type="curve" smooth="yes"/>
      <point x="39" y="41"/>
      <point x="150" y="-16"/>
    </contour>
  </outline>
</glyph>
<glyph name="six" format="2">
  <advance width="713"/>
  <unicode hex="0036"/>
  <outline>
    <contour>
      <point x="357" y="-11" type="curve" smooth="yes"/>
      <point x="531" y="-11"/>
      <point x="664" y="100"/>
      <point x="664" y="247" type="curve" smooth="yes"/>
      <point x="664" y="393"/>
      <point x="578" y="482"/>
      <point x="437" y="482" type="curve" smooth="yes"/>
      <point x="327" y="482"/>
      <point x="258" y="441"/>
      <point x="218" y="353" type="curve"/>
      <point x="213" y="320" type="line"/>
      <point x="249" y="363"/>
      <point x="288" y="383"/>
      <point x="336" y="383" type="curve" smooth="yes"/>
      <point x="420" y="383"/>
      <point x="467" y="326"/>
      <point x="467" y="224" type="curve" smooth="yes"/>
      <point x="467" y="145"/>
      <point x="426" y="100"/>
      <point x="362" y="100" type="curve" smooth="yes"/>
      <point x="285" y="100"/>
      <point x="242" y="177"/>
      <point x="242" y="300" type="curve" smooth="yes"/>
      <point x="242" y="498"/>
      <point x="368" y="643"/>
      <point x="574" y="684" type="curve"/>
      <point x="580" y="685"/>
      <point x="584" y="690"/>
      <point x="583" y="696" type="curve"/>
      <point x="577" y="745" type="line"/>
      <point x="576" y="751"/>
      <point x="572" y="755"/>
      <point x="566" y="755" type="curve"/>
      <point x="263" y="766"/>
      <point x="51" y="587"/>
      <point x="51" y="318" type="curve" smooth="yes"/>
      <point x="51" y="103"/>
      <point x="157" y="-11"/>
    </contour>
  </outline>
</glyph>
<glyph name="seven" format="2">
  <advance width="622"/>
  <unicode hex="0037"/>
  <outline>
    <contour>
      <point x="331" y="9" type="curve"/>
      <point x="398" y="212" type="line"/>
      <point x="616" y="695" type="line"/>
      <point x="618" y="700"/>
      <point x="619" y="708"/>
      <point x="618" y="714" type="curve"/>
      <point x="615" y="730" type="line"/>
      <point x="614" y="736"/>
      <point x="609" y="740"/>
      <point x="603" y="740" type="curve"/>
      <point x="189" y="740" type="line"/>
      <point x="96" y="754" type="line"/>
      <point x="74" y="757"/>
      <point x="72" y="755"/>
      <point x="70" y="733" type="curve"/>
      <point x="45" y="480" type="line"/>
      <point x="44" y="474"/>
      <point x="48" y="470"/>
      <point x="54" y="469" type="curve"/>
      <point x="79" y="468" type="line"/>
      <point x="85" y="467"/>
      <point x="91" y="470"/>
      <point x="94" y="475" type="curve"/>
      <point x="148" y="556" type="line"/>
      <point x="159" y="574"/>
      <point x="174" y="584"/>
      <point x="203" y="585" type="curve"/>
      <point x="519" y="598" type="line"/>
      <point x="548" y="707" type="line"/>
      <point x="119" y="69" type="line"/>
      <point x="82" y="15"/>
      <point x="84" y="11"/>
      <point x="119" y="-1" type="curve"/>
      <point x="182" y="-16"/>
      <point x="260" y="-17"/>
      <point x="318" y="-3" type="curve"/>
      <point x="324" y="-2"/>
      <point x="329" y="3"/>
    </contour>
  </outline>
</glyph>
<glyph name="eight" format="2">
  <advance width="668"/>
  <unicode hex="0038"/>
  <outline>
    <contour>
      <point x="402" y="442" type="curve" smooth="yes"/>
      <point x="298" y="497"/>
      <point x="259" y="520"/>
      <point x="259" y="570" type="curve" smooth="yes"/>
      <point x="259" y="616"/>
      <point x="297" y="649"/>
      <point x="354" y="649" type="curve" smooth="yes"/>
      <point x="407" y="649"/>
      <point x="439" y="620"/>
      <point x="439" y="572" type="curve" smooth="yes"/>
      <point x="439" y="522"/>
      <point x="404" y="469"/>
      <point x="356" y="430" type="curve"/>
      <point x="439" y="393" type="line"/>
      <point x="519" y="441"/>
      <point x="600" y="494"/>
      <point x="600" y="589" type="curve" smooth="yes"/>
      <point x="600" y="693"/>
      <point x="503" y="757"/>
      <point x="353" y="757" type="curve" smooth="yes"/>
      <point x="180" y="757"/>
      <point x="69" y="672"/>
      <point x="69" y="540" type="curve" smooth="yes"/>
      <point x="69" y="417"/>
      <point x="164" y="358"/>
      <point x="291" y="292" type="curve" smooth="yes"/>
      <point x="403" y="234"/>
      <point x="450" y="204"/>
      <point x="450" y="164" type="curve" smooth="yes"/>
      <point x="450" y="122"/>
      <point x="409" y="92"/>
      <point x="346" y="92" type="curve" smooth="yes"/>
      <point x="272" y="92"/>
      <point x="218" y="134"/>
      <point x="218" y="195" type="curve" smooth="yes"/>
      <point x="218" y="245"/>
      <point x="254" y="290"/>
      <point x="330" y="319" type="curve"/>
      <point x="226" y="353" type="line"/>
      <point x="131" y="318"/>
      <point x="51" y="257"/>
      <point x="51" y="161" type="curve" smooth="yes"/>
      <point x="51" y="53"/>
      <point x="152" y="-16"/>
      <point x="312" y="-16" type="curve" smooth="yes"/>
      <point x="497" y="-16"/>
      <point x="624" y="76"/>
      <point x="624" y="214" type="curve" smooth="yes"/>
      <point x="624" y="323"/>
      <point x="544" y="367"/>
    </contour>
  </outline>
</glyph>
<glyph name="nine" format="2">
  <advance width="713"/>
  <unicode hex="0039"/>
  <outline>
    <contour>
      <point x="159" y="-10" type="curve"/>
      <point x="487" y="-21"/>
      <point x="662" y="132"/>
      <point x="662" y="428" type="curve" smooth="yes"/>
      <point x="662" y="631"/>
      <point x="540" y="757"/>
      <point x="344" y="757" type="curve" smooth="yes"/>
      <point x="175" y="757"/>
      <point x="49" y="641"/>
      <point x="49" y="487" type="curve" smooth="yes"/>
      <point x="49" y="341"/>
      <point x="140" y="252"/>
      <point x="287" y="252" type="curve" smooth="yes"/>
      <point x="385" y="252"/>
      <point x="443" y="287"/>
      <point x="483" y="369" type="curve"/>
      <point x="487" y="413" type="line"/>
      <point x="452" y="371"/>
      <point x="412" y="351"/>
      <point x="364" y="351" type="curve" smooth="yes"/>
      <point x="283" y="351"/>
      <point x="238" y="409"/>
      <point x="238" y="512" type="curve" smooth="yes"/>
      <point x="238" y="597"/>
      <point x="276" y="646"/>
      <point x="339" y="646" type="curve" smooth="yes"/>
      <point x="418" y="646"/>
      <point x="455" y="568"/>
      <point x="455" y="410" type="curve" smooth="yes"/>
      <point x="455" y="196"/>
      <point x="366" y="94"/>
      <point x="150" y="61" type="curve"/>
      <point x="144" y="61"/>
      <point x="141" y="56"/>
      <point x="141" y="50" type="curve"/>
      <point x="148" y="0" type="line"/>
      <point x="148" y="-6"/>
      <point x="153" y="-10"/>
    </contour>
  </outline>
</glyph>
<glyph name="greater" format="2">
  <advance width="670"/>
  <unicode hex="003E"/>
  <outline>
    <contour>
      <point x="77" y="-8" type="curve"/>
      <point x="75" y="30"/>
      <point x="78" y="79"/>
      <point x="87" y="110" type="curve"/>
      <point x="89" y="116"/>
      <point x="94" y="122"/>
      <point x="99" y="124" type="curve"/>
      <point x="443" y="289" type="line"/>
      <point x="87" y="451" type="line"/>
      <point x="82" y="453"/>
      <point x="78" y="459"/>
      <point x="78" y="465" type="curve"/>
      <point x="77" y="504"/>
      <point x="79" y="540"/>
      <point x="87" y="576" type="curve"/>
      <point x="89" y="582"/>
      <point x="94" y="584"/>
      <point x="99" y="582" type="curve"/>
      <point x="595" y="340" type="line"/>
      <point x="600" y="338"/>
      <point x="604" y="332"/>
      <point x="604" y="326" type="curve"/>
      <point x="604" y="250" type="line"/>
      <point x="604" y="244"/>
      <point x="600" y="238"/>
      <point x="595" y="236" type="curve"/>
      <point x="87" y="-14" type="line"/>
      <point x="82" y="-16"/>
      <point x="78" y="-14"/>
    </contour>
  </outline>
</glyph>
<glyph name="question" format="2">
  <advance width="586"/>
  <unicode hex="003F"/>
  <outline>
    <contour>
      <point x="215" y="231" type="curve"/>
      <point x="250" y="239" type="line"/>
      <point x="256" y="240"/>
      <point x="259" y="245"/>
      <point x="258" y="251" type="curve"/>
      <point x="251" y="281"/>
      <point x="251" y="309"/>
      <point x="366" y="345" type="curve" smooth="yes"/>
      <point x="460" y="373"/>
      <point x="493" y="425"/>
      <point x="493" y="516" type="curve" smooth="yes"/>
      <point x="493" y="690"/>
      <point x="314" y="789"/>
      <point x="122" y="798" type="curve"/>
      <point x="116" y="798"/>
      <point x="110" y="795"/>
      <point x="107" y="790" type="curve"/>
      <point x="72" y="731"/>
      <point x="61" y="663"/>
      <point x="61" y="599" type="curve"/>
      <point x="61" y="593"/>
      <point x="65" y="589"/>
      <point x="71" y="589" type="curve"/>
      <point x="280" y="585"/>
      <point x="351" y="557"/>
      <point x="351" y="507" type="curve" smooth="yes"/>
      <point x="351" y="484"/>
      <point x="320" y="483"/>
      <point x="266" y="473" type="curve" smooth="yes"/>
      <point x="151" y="453"/>
      <point x="102" y="429"/>
      <point x="102" y="345" type="curve" smooth="yes"/>
      <point x="102" y="306"/>
      <point x="135" y="259"/>
      <point x="196" y="233" type="curve"/>
      <point x="201" y="231"/>
      <point x="209" y="230"/>
    </contour>
    <component base="period" xOffset="19"/>
  </outline>
</glyph>
<glyph name="at" format="2">
  <advance width="1271"/>
  <unicode hex="0040"/>
  <outline>
    <contour>
      <point x="622" y="-184" type="curve" smooth="yes"/>
      <point x="812" y="-184"/>
      <point x="1013" y="-125"/>
      <point x="1143" y="-32" type="curve"/>
      <point x="1148" y="-28"/>
      <point x="1149" y="-22"/>
      <point x="1147" y="-17" type="curve"/>
      <point x="1128" y="19" type="line"/>
      <point x="1126" y="24"/>
      <point x="1120" y="27"/>
      <point x="1114" y="25" type="curve"/>
      <point x="920" y="-39"/>
      <point x="805" y="-60"/>
      <point x="656" y="-60" type="curve" smooth="yes"/>
      <point x="416" y="-60"/>
      <point x="259" y="70"/>
      <point x="259" y="300" type="curve" smooth="yes"/>
      <point x="259" y="536"/>
      <point x="427" y="700"/>
      <point x="674" y="700" type="curve" smooth="yes"/>
      <point x="907" y="700"/>
      <point x="1031" y="591"/>
      <point x="1031" y="392" type="curve" smooth="yes"/>
      <point x="1031" y="267"/>
      <point x="979" y="182"/>
      <point x="913" y="182" type="curve" smooth="yes"/>
      <point x="898" y="182"/>
      <point x="895" y="192"/>
      <point x="900" y="238" type="curve" smooth="yes"/>
      <point x="933" y="539" type="line"/>
      <point x="934" y="545"/>
      <point x="930" y="550"/>
      <point x="924" y="551" type="curve"/>
      <point x="856" y="567" type="line"/>
      <point x="850" y="568"/>
      <point x="843" y="567"/>
      <point x="838" y="563" type="curve"/>
      <point x="711" y="478" type="line"/>
      <point x="687" y="209" type="line" smooth="yes"/>
      <point x="678" y="106"/>
      <point x="716" y="60"/>
      <point x="809" y="60" type="curve" smooth="yes"/>
      <point x="1041" y="60"/>
      <point x="1218" y="208"/>
      <point x="1218" y="422" type="curve" smooth="yes"/>
      <point x="1218" y="644"/>
      <point x="1020" y="814"/>
      <point x="698" y="814" type="curve" smooth="yes"/>
      <point x="332" y="814"/>
      <point x="73" y="598"/>
      <point x="73" y="301" type="curve" smooth="yes"/>
      <point x="73" y="-14"/>
      <point x="305" y="-184"/>
    </contour>
    <contour>
      <point x="525" y="59" type="curve" smooth="yes"/>
      <point x="597" y="59"/>
      <point x="665" y="108"/>
      <point x="696" y="182" type="curve"/>
      <point x="691" y="221" type="line"/>
      <point x="671" y="209"/>
      <point x="651" y="203"/>
      <point x="633" y="203" type="curve" smooth="yes"/>
      <point x="594" y="203"/>
      <point x="573" y="244"/>
      <point x="573" y="318" type="curve" smooth="yes"/>
      <point x="573" y="409"/>
      <point x="613" y="475"/>
      <point x="668" y="475" type="curve" smooth="yes"/>
      <point x="696" y="475"/>
      <point x="719" y="472"/>
      <point x="737" y="466" type="curve"/>
      <point x="810" y="511" type="line"/>
      <point x="748" y="562"/>
      <point x="705" y="579"/>
      <point x="633" y="579" type="curve" smooth="yes"/>
      <point x="472" y="579"/>
      <point x="366" y="466"/>
      <point x="366" y="294" type="curve" smooth="yes"/>
      <point x="366" y="147"/>
      <point x="426" y="59"/>
    </contour>
  </outline>
</glyph>
<glyph name="A" format="2">
  <advance width="865"/>
  <unicode hex="0041"/>
  <anchor x="433" y="0" name="bottom"/>
  <anchor x="717" y="0" name="ogonek"/>
  <anchor x="420" y="651" name="ring"/>
  <anchor x="433" y="754" name="top"/>
  <outline>
    <contour>
      <point x="8" y="0" type="curve"/>
      <point x="291" y="0" type="line"/>
      <point x="297" y="0"/>
      <point x="301" y="4"/>
      <point x="301" y="10" type="curve"/>
      <point x="301" y="38" type="line"/>
      <point x="301" y="44"/>
      <point x="297" y="49"/>
      <point x="291" y="51" type="curve"/>
      <point x="232" y="70" type="line"/>
      <point x="203" y="79"/>
      <point x="191" y="94"/>
      <point x="208" y="132" type="curve"/>
      <point x="441" y="664" type="line"/>
      <point x="320" y="592" type="line"/>
      <point x="536" y="127" type="line"/>
      <point x="549" y="99"/>
      <point x="546" y="80"/>
      <point x="507" y="67" type="curve"/>
      <point x="462" y="51" type="line"/>
      <point x="457" y="49"/>
      <point x="453" y="44"/>
      <point x="453" y="38" type="curve"/>
      <point x="453" y="10" type="line"/>
      <point x="453" y="4"/>
      <point x="457" y="0"/>
      <point x="463" y="0" type="curve"/>
      <point x="857" y="0" type="line"/>
      <point x="863" y="0"/>
      <point x="867" y="4"/>
      <point x="867" y="10" type="curve"/>
      <point x="867" y="38" type="line"/>
      <point x="867" y="44"/>
      <point x="863" y="50"/>
      <point x="858" y="52" type="curve"/>
      <point x="830" y="65" type="line"/>
      <point x="811" y="73"/>
      <point x="796" y="85"/>
      <point x="784" y="111" type="curve"/>
      <point x="498" y="693" type="line"/>
      <point x="482" y="756" type="line"/>
      <point x="481" y="762"/>
      <point x="476" y="765"/>
      <point x="470" y="764" type="curve"/>
      <point x="377" y="744" type="line"/>
      <point x="371" y="743"/>
      <point x="365" y="738"/>
      <point x="363" y="733" type="curve"/>
      <point x="81" y="108" type="line"/>
      <point x="72" y="89"/>
      <point x="60" y="75"/>
      <point x="33" y="63" type="curve"/>
      <point x="7" y="52" type="line"/>
      <point x="2" y="50"/>
      <point x="-2" y="44"/>
      <point x="-2" y="38" type="curve"/>
      <point x="-2" y="10" type="line"/>
      <point x="-2" y="4"/>
      <point x="2" y="0"/>
    </contour>
    <contour>
      <point x="201" y="302" type="curve"/>
      <point x="201" y="206" type="line"/>
      <point x="336" y="198"/>
      <point x="486" y="198"/>
      <point x="620" y="206" type="curve"/>
      <point x="620" y="302" type="line"/>
      <point x="486" y="294"/>
      <point x="336" y="294"/>
    </contour>
  </outline>
</glyph>
<glyph name="B" format="2">
  <advance width="795"/>
  <unicode hex="0042"/>
  <anchor x="397" y="0" name="bottom"/>
  <anchor x="397" y="754" name="top"/>
  <outline>
    <contour>
      <point x="119" y="0" type="line"/>
      <point x="384" y="0" type="line" smooth="yes"/>
      <point x="629" y="0"/>
      <point x="738" y="64"/>
      <point x="738" y="206" type="curve" smooth="yes"/>
      <point x="738" y="357"/>
      <point x="539" y="399"/>
      <point x="463" y="399" type="curve"/>
      <point x="463" y="380" type="line"/>
      <point x="537" y="380"/>
      <point x="694" y="435"/>
      <point x="694" y="559" type="curve" smooth="yes"/>
      <point x="694" y="688"/>
      <point x="590" y="754"/>
      <point x="384" y="754" type="curve" smooth="yes"/>
      <point x="337" y="754" type="line"/>
      <point x="337" y="658" type="line"/>
      <point x="384" y="658" type="line" smooth="yes"/>
      <point x="448" y="658"/>
      <point x="481" y="621"/>
      <point x="481" y="549" type="curve" smooth="yes"/>
      <point x="481" y="474"/>
      <point x="442" y="423"/>
      <point x="384" y="423" type="curve" smooth="yes"/>
      <point x="337" y="423" type="line"/>
      <point x="337" y="327" type="line"/>
      <point x="384" y="327" type="line" smooth="yes"/>
      <point x="464" y="327"/>
      <point x="502" y="289"/>
      <point x="502" y="211" type="curve" smooth="yes"/>
      <point x="502" y="132"/>
      <point x="465" y="96"/>
      <point x="384" y="96" type="curve" smooth="yes"/>
      <point x="370" y="96" type="line"/>
      <point x="349" y="96"/>
      <point x="337" y="104"/>
      <point x="337" y="133" type="curve"/>
      <point x="337" y="754" type="line"/>
      <point x="119" y="754" type="line"/>
    </contour>
    <contour>
      <point x="32" y="0" type="curve"/>
      <point x="337" y="0" type="line"/>
      <point x="337" y="201" type="line"/>
      <point x="119" y="201" type="line"/>
      <point x="119" y="111" type="line"/>
      <point x="119" y="90"/>
      <point x="117" y="83"/>
      <point x="90" y="73" type="curve"/>
      <point x="31" y="51" type="line"/>
      <point x="26" y="49"/>
      <point x="22" y="44"/>
      <point x="22" y="38" type="curve"/>
      <point x="22" y="10" type="line"/>
      <point x="22" y="4"/>
      <point x="26" y="0"/>
    </contour>
    <contour>
      <point x="22" y="744" type="curve"/>
      <point x="22" y="716" type="line"/>
      <point x="22" y="710"/>
      <point x="26" y="705"/>
      <point x="31" y="703" type="curve"/>
      <point x="90" y="681" type="line"/>
      <point x="117" y="671"/>
      <point x="119" y="664"/>
      <point x="119" y="643" type="curve"/>
      <point x="119" y="553" type="line"/>
      <point x="337" y="553" type="line"/>
      <point x="337" y="754" type="line"/>
      <point x="32" y="754" type="line"/>
      <point x="26" y="754"/>
      <point x="22" y="750"/>
    </contour>
  </outline>
</glyph>
<glyph name="C" format="2">
  <advance width="834"/>
  <unicode hex="0043"/>
  <anchor x="478" y="0" name="bottom"/>
  <anchor x="478" y="754" name="top"/>
  <outline>
    <contour>
      <point x="482" y="-16" type="curve" smooth="yes"/>
      <point x="554" y="-16"/>
      <point x="625" y="2"/>
      <point x="654" y="11" type="curve"/>
      <point x="678" y="15" type="line"/>
      <point x="742" y="26"/>
      <point x="746" y="31"/>
      <point x="748" y="68" type="curve"/>
      <point x="759" y="272" type="line"/>
      <point x="760" y="278"/>
      <point x="756" y="282"/>
      <point x="750" y="283" type="curve"/>
      <point x="697" y="289" type="line"/>
      <point x="691" y="290"/>
      <point x="685" y="286"/>
      <point x="683" y="281" type="curve"/>
      <point x="639" y="188" type="line"/>
      <point x="631" y="169"/>
      <point x="627" y="163"/>
      <point x="607" y="141" type="curve"/>
      <point x="574" y="110"/>
      <point x="532" y="96"/>
      <point x="481" y="96" type="curve" smooth="yes"/>
      <point x="360" y="96"/>
      <point x="288" y="201"/>
      <point x="288" y="377" type="curve" smooth="yes"/>
      <point x="288" y="557"/>
      <point x="362" y="658"/>
      <point x="493" y="658" type="curve" smooth="yes"/>
      <point x="540" y="658"/>
      <point x="579" y="643"/>
      <point x="611" y="611" type="curve"/>
      <point x="624" y="595"/>
      <point x="629" y="588"/>
      <point x="641" y="562" type="curve"/>
      <point x="683" y="473" type="line"/>
      <point x="685" y="468"/>
      <point x="691" y="464"/>
      <point x="697" y="465" type="curve"/>
      <point x="750" y="471" type="line"/>
      <point x="756" y="472"/>
      <point x="760" y="476"/>
      <point x="759" y="482" type="curve"/>
      <point x="750" y="659" type="line"/>
      <point x="746" y="724"/>
      <point x="742" y="729"/>
      <point x="706" y="735" type="curve"/>
      <point x="654" y="743" type="line"/>
      <point x="625" y="752"/>
      <point x="554" y="770"/>
      <point x="482" y="770" type="curve" smooth="yes"/>
      <point x="226" y="770"/>
      <point x="52" y="611"/>
      <point x="52" y="378" type="curve" smooth="yes"/>
      <point x="52" y="143"/>
      <point x="225" y="-16"/>
    </contour>
  </outline>
</glyph>
<glyph name="D" format="2">
  <advance width="887"/>
  <unicode hex="0044"/>
  <anchor x="429" y="0" name="bottom"/>
  <anchor x="270" y="377" name="center"/>
  <anchor x="429" y="754" name="top"/>
  <outline>
    <contour>
      <point x="119" y="0" type="line"/>
      <point x="402" y="0" type="line" smooth="yes"/>
      <point x="687" y="0"/>
      <point x="835" y="129"/>
      <point x="835" y="378" type="curve" smooth="yes"/>
      <point x="835" y="626"/>
      <point x="688" y="754"/>
      <point x="402" y="754" type="curve" smooth="yes"/>
      <point x="337" y="754" type="line"/>
      <point x="337" y="658" type="line"/>
      <point x="402" y="658" type="line" smooth="yes"/>
      <point x="525" y="658"/>
      <point x="599" y="553"/>
      <point x="599" y="378" type="curve" smooth="yes"/>
      <point x="599" y="201"/>
      <point x="525" y="96"/>
      <point x="402" y="96" type="curve" smooth="yes"/>
      <point x="370" y="96" type="line"/>
      <point x="349" y="96"/>
      <point x="337" y="104"/>
      <point x="337" y="133" type="curve"/>
      <point x="337" y="754" type="line"/>
      <point x="119" y="754" type="line"/>
    </contour>
    <contour>
      <point x="22" y="744" type="curve"/>
      <point x="22" y="716" type="line"/>
      <point x="22" y="710"/>
      <point x="26" y="705"/>
      <point x="31" y="703" type="curve"/>
      <point x="90" y="681" type="line"/>
      <point x="117" y="671"/>
      <point x="119" y="664"/>
      <point x="119" y="643" type="curve"/>
      <point x="119" y="553" type="line"/>
      <point x="337" y="553" type="line"/>
      <point x="337" y="754" type="line"/>
      <point x="32" y="754" type="line"/>
      <point x="26" y="754"/>
      <point x="22" y="750"/>
    </contour>
    <contour>
      <point x="32" y="0" type="curve"/>
      <point x="337" y="0" type="line"/>
      <point x="337" y="201" type="line"/>
      <point x="119" y="201" type="line"/>
      <point x="119" y="111" type="line"/>
      <point x="119" y="90"/>
      <point x="117" y="83"/>
      <point x="90" y="73" type="curve"/>
      <point x="31" y="51" type="line"/>
      <point x="26" y="49"/>
      <point x="22" y="44"/>
      <point x="22" y="38" type="curve"/>
      <point x="22" y="10" type="line"/>
      <point x="22" y="4"/>
      <point x="26" y="0"/>
    </contour>
  </outline>
</glyph>
<glyph name="E" format="2">
  <advance width="787"/>
  <unicode hex="0045"/>
  <anchor x="393" y="0" name="bottom"/>
  <anchor x="672" y="0" name="ogonek"/>
  <anchor x="393" y="754" name="top"/>
  <anchor x="22" y="754" name="topleft"/>
  <outline>
    <contour>
      <point x="119" y="0" type="line"/>
      <point x="576" y="0" type="line"/>
      <point x="640" y="-3" type="line"/>
      <point x="705" y="-6"/>
      <point x="710" y="-2"/>
      <point x="715" y="35" type="curve"/>
      <point x="737" y="184" type="line"/>
      <point x="737" y="190"/>
      <point x="734" y="195"/>
      <point x="728" y="197" type="curve"/>
      <point x="689" y="207" type="line"/>
      <point x="683" y="209"/>
      <point x="676" y="207"/>
      <point x="673" y="202" type="curve"/>
      <point x="607" y="122" type="line"/>
      <point x="594" y="105"/>
      <point x="578" y="96"/>
      <point x="549" y="96" type="curve"/>
      <point x="370" y="96" type="line"/>
      <point x="349" y="96"/>
      <point x="337" y="104"/>
      <point x="337" y="133" type="curve"/>
      <point x="337" y="754" type="line"/>
      <point x="119" y="754" type="line"/>
    </contour>
    <contour>
      <point x="585" y="248" type="curve"/>
      <point x="621" y="248" type="line"/>
      <point x="627" y="248"/>
      <point x="631" y="252"/>
      <point x="631" y="258" type="curve"/>
      <point x="631" y="488" type="line"/>
      <point x="631" y="494"/>
      <point x="627" y="498"/>
      <point x="621" y="498" type="curve"/>
      <point x="585" y="498" type="line"/>
      <point x="579" y="498"/>
      <point x="573" y="495"/>
      <point x="570" y="489" type="curve"/>
      <point x="548" y="451" type="line"/>
      <point x="537" y="433"/>
      <point x="523" y="423"/>
      <point x="494" y="423" type="curve"/>
      <point x="337" y="423" type="line"/>
      <point x="337" y="327" type="line"/>
      <point x="498" y="327" type="line"/>
      <point x="519" y="327"/>
      <point x="535" y="320"/>
      <point x="549" y="295" type="curve"/>
      <point x="570" y="257" type="line"/>
      <point x="573" y="251"/>
      <point x="579" y="248"/>
    </contour>
    <contour>
      <point x="667" y="551" type="curve"/>
      <point x="706" y="556" type="line"/>
      <point x="712" y="557"/>
      <point x="716" y="562"/>
      <point x="716" y="568" type="curve"/>
      <point x="715" y="697" type="line"/>
      <point x="715" y="762"/>
      <point x="711" y="766"/>
      <point x="674" y="762" type="curve"/>
      <point x="582" y="754" type="line"/>
      <point x="337" y="754" type="line"/>
      <point x="337" y="658" type="line"/>
      <point x="550" y="658" type="line"/>
      <point x="571" y="658"/>
      <point x="587" y="651"/>
      <point x="604" y="627" type="curve"/>
      <point x="651" y="557" type="line"/>
      <point x="655" y="552"/>
      <point x="661" y="550"/>
    </contour>
    <contour>
      <point x="32" y="0" type="curve"/>
      <point x="337" y="0" type="line"/>
      <point x="337" y="201" type="line"/>
      <point x="119" y="201" type="line"/>
      <point x="119" y="111" type="line"/>
      <point x="119" y="90"/>
      <point x="117" y="83"/>
      <point x="90" y="73" type="curve"/>
      <point x="31" y="51" type="line"/>
      <point x="26" y="49"/>
      <point x="22" y="44"/>
      <point x="22" y="38" type="curve"/>
      <point x="22" y="10" type="line"/>
      <point x="22" y="4"/>
      <point x="26" y="0"/>
    </contour>
    <contour>
      <point x="22" y="744" type="curve"/>
      <point x="22" y="716" type="line"/>
      <point x="22" y="710"/>
      <point x="26" y="705"/>
      <point x="31" y="703" type="curve"/>
      <point x="90" y="681" type="line"/>
      <point x="117" y="671"/>
      <point x="119" y="664"/>
      <point x="119" y="643" type="curve"/>
      <point x="119" y="553" type="line"/>
      <point x="337" y="553" type="line"/>
      <point x="337" y="754" type="line"/>
      <point x="32" y="754" type="line"/>
      <point x="26" y="754"/>
      <point x="22" y="750"/>
    </contour>
  </outline>
</glyph>
<glyph name="F" format="2">
  <advance width="737"/>
  <unicode hex="0046"/>
  <anchor x="368" y="0" name="bottom"/>
  <anchor x="368" y="754" name="top"/>
  <outline>
    <contour>
      <point x="119" y="0" type="line"/>
      <point x="337" y="0" type="line"/>
      <point x="337" y="754" type="line"/>
      <point x="119" y="754" type="line"/>
    </contour>
    <contour>
      <point x="567" y="234" type="curve"/>
      <point x="602" y="234" type="line"/>
      <point x="608" y="234"/>
      <point x="612" y="238"/>
      <point x="612" y="244" type="curve"/>
      <point x="612" y="473" type="line"/>
      <point x="612" y="479"/>
      <point x="608" y="483"/>
      <point x="602" y="483" type="curve"/>
      <point x="567" y="483" type="line"/>
      <point x="561" y="483"/>
      <point x="555" y="480"/>
      <point x="552" y="474" type="curve"/>
      <point x="530" y="436" type="line"/>
      <point x="519" y="418"/>
      <point x="505" y="408"/>
      <point x="476" y="408" type="curve"/>
      <point x="337" y="408" type="line"/>
      <point x="337" y="312" type="line"/>
      <point x="480" y="312" type="line"/>
      <point x="501" y="312"/>
      <point x="517" y="305"/>
      <point x="531" y="280" type="curve"/>
      <point x="552" y="243" type="line"/>
      <point x="555" y="237"/>
      <point x="561" y="234"/>
    </contour>
    <contour>
      <point x="649" y="551" type="curve"/>
      <point x="688" y="556" type="line"/>
      <point x="694" y="557"/>
      <point x="698" y="562"/>
      <point x="698" y="568" type="curve"/>
      <point x="697" y="697" type="line"/>
      <point x="697" y="762"/>
      <point x="693" y="766"/>
      <point x="656" y="762" type="curve"/>
      <point x="564" y="754" type="line"/>
      <point x="337" y="754" type="line"/>
      <point x="337" y="658" type="line"/>
      <point x="532" y="658" type="line"/>
      <point x="553" y="658"/>
      <point x="569" y="651"/>
      <point x="586" y="627" type="curve"/>
      <point x="633" y="557" type="line"/>
      <point x="637" y="552"/>
      <point x="643" y="550"/>
    </contour>
    <contour>
      <point x="32" y="0" type="curve"/>
      <point x="474" y="0" type="line"/>
      <point x="480" y="0"/>
      <point x="484" y="4"/>
      <point x="484" y="10" type="curve"/>
      <point x="484" y="38" type="line"/>
      <point x="484" y="44"/>
      <point x="480" y="49"/>
      <point x="474" y="51" type="curve"/>
      <point x="363" y="83" type="line"/>
      <point x="343" y="88"/>
      <point x="337" y="92"/>
      <point x="337" y="121" type="curve"/>
      <point x="337" y="201" type="line"/>
      <point x="119" y="201" type="line"/>
      <point x="119" y="111" type="line"/>
      <point x="119" y="90"/>
      <point x="117" y="83"/>
      <point x="90" y="73" type="curve"/>
      <point x="31" y="51" type="line"/>
      <point x="26" y="49"/>
      <point x="22" y="44"/>
      <point x="22" y="38" type="curve"/>
      <point x="22" y="10" type="line"/>
      <point x="22" y="4"/>
      <point x="26" y="0"/>
    </contour>
    <contour>
      <point x="22" y="744" type="curve"/>
      <point x="22" y="716" type="line"/>
      <point x="22" y="710"/>
      <point x="26" y="705"/>
      <point x="31" y="703" type="curve"/>
      <point x="90" y="681" type="line"/>
      <point x="117" y="671"/>
      <point x="119" y="664"/>
      <point x="119" y="643" type="curve"/>
      <point x="119" y="553" type="line"/>
      <point x="337" y="553" type="line"/>
      <point x="337" y="754" type="line"/>
      <point x="32" y="754" type="line"/>
      <point x="26" y="754"/>
      <point x="22" y="750"/>
    </contour>
  </outline>
</glyph>
<glyph name="G" format="2">
  <advance width="870"/>
  <unicode hex="0047"/>
  <anchor x="481" y="0" name="bottom"/>
  <anchor x="481" y="754" name="top"/>
  <outline>
    <contour>
      <point x="481" y="658" type="curve" smooth="yes"/>
      <point x="532" y="658"/>
      <point x="574" y="643"/>
      <point x="608" y="610" type="curve"/>
      <point x="622" y="594"/>
      <point x="627" y="588"/>
      <point x="640" y="562" type="curve"/>
      <point x="683" y="473" type="line"/>
      <point x="685" y="468"/>
      <point x="691" y="464"/>
      <point x="697" y="465" type="curve"/>
      <point x="750" y="471" type="line"/>
      <point x="756" y="472"/>
      <point x="760" y="476"/>
      <point x="759" y="482" type="curve"/>
      <point x="750" y="659" type="line"/>
      <point x="746" y="724"/>
      <point x="742" y="729"/>
      <point x="706" y="736" type="curve"/>
      <point x="666" y="743" type="line"/>
      <point x="635" y="752"/>
      <point x="560" y="770"/>
      <point x="482" y="770" type="curve" smooth="yes"/>
      <point x="226" y="770"/>
      <point x="52" y="611"/>
      <point x="52" y="378" type="curve" smooth="yes"/>
      <point x="52" y="143"/>
      <point x="225" y="-16"/>
      <point x="482" y="-16" type="curve" smooth="yes"/>
      <point x="608" y="-16"/>
      <point x="720" y="15"/>
      <point x="784" y="56" type="curve"/>
      <point x="795" y="63"/>
      <point x="796" y="65"/>
      <point x="795" y="78" type="curve"/>
      <point x="788" y="142" type="line"/>
      <point x="788" y="257" type="line"/>
      <point x="788" y="278"/>
      <point x="790" y="285"/>
      <point x="817" y="296" type="curve"/>
      <point x="845" y="308" type="line"/>
      <point x="850" y="310"/>
      <point x="854" y="316"/>
      <point x="854" y="322" type="curve"/>
      <point x="854" y="368" type="line"/>
      <point x="854" y="374"/>
      <point x="850" y="378"/>
      <point x="844" y="378" type="curve"/>
      <point x="480" y="378" type="line"/>
      <point x="474" y="378"/>
      <point x="470" y="374"/>
      <point x="470" y="368" type="curve"/>
      <point x="470" y="322" type="line"/>
      <point x="470" y="316"/>
      <point x="474" y="311"/>
      <point x="480" y="310" type="curve"/>
      <point x="566" y="290" type="line"/>
      <point x="586" y="285"/>
      <point x="592" y="282"/>
      <point x="592" y="253" type="curve"/>
      <point x="592" y="113" type="line"/>
      <point x="561" y="102"/>
      <point x="518" y="96"/>
      <point x="481" y="96" type="curve" smooth="yes"/>
      <point x="360" y="96"/>
      <point x="288" y="201"/>
      <point x="288" y="377" type="curve" smooth="yes"/>
      <point x="288" y="554"/>
      <point x="360" y="658"/>
    </contour>
  </outline>
</glyph>
<glyph name="H" format="2">
  <advance width="960"/>
  <unicode hex="0048"/>
  <anchor x="480" y="0" name="bottom"/>
  <anchor x="480" y="545" name="center"/>
  <anchor x="480" y="754" name="top"/>
  <anchor x="23" y="754" name="topleft"/>
  <outline>
    <contour>
      <point x="119" y="0" type="line"/>
      <point x="337" y="0" type="line"/>
      <point x="337" y="754" type="line"/>
      <point x="119" y="754" type="line"/>
    </contour>
    <contour>
      <point x="119" y="445" type="curve"/>
      <point x="119" y="348" type="line"/>
      <point x="334" y="324"/>
      <point x="624" y="324"/>
      <point x="839" y="348" type="curve"/>
      <point x="839" y="445" type="line"/>
      <point x="624" y="420"/>
      <point x="334" y="420"/>
    </contour>
    <contour>
      <point x="621" y="0" type="line"/>
      <point x="839" y="0" type="line"/>
      <point x="839" y="754" type="line"/>
      <point x="621" y="754" type="line"/>
    </contour>
    <contour>
      <point x="534" y="0" type="curve"/>
      <point x="928" y="0" type="line"/>
      <point x="934" y="0"/>
      <point x="938" y="4"/>
      <point x="938" y="10" type="curve"/>
      <point x="938" y="38" type="line"/>
      <point x="938" y="44"/>
      <point x="934" y="49"/>
      <point x="929" y="51" type="curve"/>
      <point x="864" y="75" type="line"/>
      <point x="845" y="82"/>
      <point x="839" y="86"/>
      <point x="839" y="115" type="curve"/>
      <point x="839" y="201" type="line"/>
      <point x="621" y="201" type="line"/>
      <point x="621" y="111" type="line"/>
      <point x="621" y="90"/>
      <point x="619" y="83"/>
      <point x="592" y="73" type="curve"/>
      <point x="533" y="51" type="line"/>
      <point x="528" y="49"/>
      <point x="524" y="44"/>
      <point x="524" y="38" type="curve"/>
      <point x="524" y="10" type="line"/>
      <point x="524" y="4"/>
      <point x="528" y="0"/>
    </contour>
    <contour>
      <point x="32" y="0" type="curve"/>
      <point x="426" y="0" type="line"/>
      <point x="432" y="0"/>
      <point x="436" y="4"/>
      <point x="436" y="10" type="curve"/>
      <point x="436" y="38" type="line"/>
      <point x="436" y="44"/>
      <point x="432" y="49"/>
      <point x="427" y="51" type="curve"/>
      <point x="362" y="75" type="line"/>
      <point x="343" y="82"/>
      <point x="337" y="86"/>
      <point x="337" y="115" type="curve"/>
      <point x="337" y="201" type="line"/>
      <point x="119" y="201" type="line"/>
      <point x="119" y="111" type="line"/>
      <point x="119" y="90"/>
      <point x="117" y="83"/>
      <point x="90" y="73" type="curve"/>
      <point x="31" y="51" type="line"/>
      <point x="26" y="49"/>
      <point x="22" y="44"/>
      <point x="22" y="38" type="curve"/>
      <point x="22" y="10" type="line"/>
      <point x="22" y="4"/>
      <point x="26" y="0"/>
    </contour>
    <contour>
      <point x="524" y="744" type="curve"/>
      <point x="524" y="716" type="line"/>
      <point x="524" y="710"/>
      <point x="528" y="705"/>
      <point x="533" y="703" type="curve"/>
      <point x="592" y="681" type="line"/>
      <point x="619" y="671"/>
      <point x="621" y="664"/>
      <point x="621" y="643" type="curve"/>
      <point x="621" y="553" type="line"/>
      <point x="839" y="553" type="line"/>
      <point x="839" y="639" type="line"/>
      <point x="839" y="668"/>
      <point x="845" y="672"/>
      <point x="864" y="679" type="curve"/>
      <point x="929" y="703" type="line"/>
      <point x="934" y="705"/>
      <point x="938" y="710"/>
      <point x="938" y="716" type="curve"/>
      <point x="938" y="744" type="line"/>
      <point x="938" y="750"/>
      <point x="934" y="754"/>
      <point x="928" y="754" type="curve"/>
      <point x="534" y="754" type="line"/>
      <point x="528" y="754"/>
      <point x="524" y="750"/>
    </contour>
    <contour>
      <point x="22" y="744" type="curve"/>
      <point x="22" y="716" type="line"/>
      <point x="22" y="710"/>
      <point x="26" y="705"/>
      <point x="31" y="703" type="curve"/>
      <point x="90" y="681" type="line"/>
      <point x="117" y="671"/>
      <point x="119" y="664"/>
      <point x="119" y="643" type="curve"/>
      <point x="119" y="553" type="line"/>
      <point x="337" y="553" type="line"/>
      <point x="337" y="639" type="line"/>
      <point x="337" y="668"/>
      <point x="343" y="672"/>
      <point x="362" y="679" type="curve"/>
      <point x="427" y="703" type="line"/>
      <point x="432" y="705"/>
      <point x="436" y="710"/>
      <point x="436" y="716" type="curve"/>
      <point x="436" y="744" type="line"/>
      <point x="436" y="750"/>
      <point x="432" y="754"/>
      <point x="426" y="754" type="curve"/>
      <point x="32" y="754" type="line"/>
      <point x="26" y="754"/>
      <point x="22" y="750"/>
    </contour>
  </outline>
</glyph>
<glyph name="I" format="2">
  <advance width="458"/>
  <unicode hex="0049"/>
  <anchor x="229" y="0" name="bottom"/>
  <anchor x="267" y="0" name="ogonek"/>
  <anchor x="229" y="754" name="top"/>
  <anchor x="23" y="754" name="topleft"/>
  <outline>
    <contour>
      <point x="119" y="0" type="line"/>
      <point x="337" y="0" type="line"/>
      <point x="337" y="754" type="line"/>
      <point x="119" y="754" type="line"/>
    </contour>
    <contour>
      <point x="32" y="0" type="curve"/>
      <point x="426" y="0" type="line"/>
      <point x="432" y="0"/>
      <point x="436" y="4"/>
      <point x="436" y="10" type="curve"/>
      <point x="436" y="38" type="line"/>
      <point x="436" y="44"/>
      <point x="432" y="49"/>
      <point x="427" y="51" type="curve"/>
      <point x="362" y="75" type="line"/>
      <point x="343" y="82"/>
      <point x="337" y="86"/>
      <point x="337" y="115" type="curve"/>
      <point x="337" y="201" type="line"/>
      <point x="119" y="201" type="line"/>
      <point x="119" y="111" type="line"/>
      <point x="119" y="90"/>
      <point x="117" y="83"/>
      <point x="90" y="73" type="curve"/>
      <point x="31" y="51" type="line"/>
      <point x="26" y="49"/>
      <point x="22" y="44"/>
      <point x="22" y="38" type="curve"/>
      <point x="22" y="10" type="line"/>
      <point x="22" y="4"/>
      <point x="26" y="0"/>
    </contour>
    <contour>
      <point x="22" y="744" type="curve"/>
      <point x="22" y="716" type="line"/>
      <point x="22" y="710"/>
      <point x="26" y="705"/>
      <point x="31" y="703" type="curve"/>
      <point x="90" y="681" type="line"/>
      <point x="117" y="671"/>
      <point x="119" y="664"/>
      <point x="119" y="643" type="curve"/>
      <point x="119" y="553" type="line"/>
      <point x="337" y="553" type="line"/>
      <point x="337" y="639" type="line"/>
      <point x="337" y="668"/>
      <point x="343" y="672"/>
      <point x="362" y="679" type="curve"/>
      <point x="427" y="703" type="line"/>
      <point x="432" y="705"/>
      <point x="436" y="710"/>
      <point x="436" y="716" type="curve"/>
      <point x="436" y="744" type="line"/>
      <point x="436" y="750"/>
      <point x="432" y="754"/>
      <point x="426" y="754" type="curve"/>
      <point x="32" y="754" type="line"/>
      <point x="26" y="754"/>
      <point x="22" y="750"/>
    </contour>
  </outline>
</glyph>
<glyph name="J" format="2">
  <advance width="455"/>
  <unicode hex="004A"/>
  <anchor x="234" y="0" name="bottom"/>
  <anchor x="234" y="754" name="top"/>
  <outline>
    <contour>
      <point x="-2" y="-111" type="curve"/>
      <point x="8" y="-140" type="line"/>
      <point x="11" y="-145"/>
      <point x="16" y="-148"/>
      <point x="22" y="-147" type="curve"/>
      <point x="274" y="-88"/>
      <point x="342" y="-21"/>
      <point x="342" y="141" type="curve"/>
      <point x="124" y="141" type="line"/>
      <point x="124" y="28"/>
      <point x="80" y="-58"/>
      <point x="3" y="-98" type="curve"/>
      <point x="-2" y="-100"/>
      <point x="-5" y="-106"/>
    </contour>
    <contour>
      <point x="124" y="141" type="line"/>
      <point x="342" y="141" type="line"/>
      <point x="342" y="754" type="line"/>
      <point x="124" y="754" type="line"/>
    </contour>
    <contour>
      <point x="27" y="744" type="curve"/>
      <point x="27" y="716" type="line"/>
      <point x="27" y="710"/>
      <point x="31" y="705"/>
      <point x="36" y="703" type="curve"/>
      <point x="95" y="681" type="line"/>
      <point x="122" y="671"/>
      <point x="124" y="664"/>
      <point x="124" y="643" type="curve"/>
      <point x="124" y="553" type="line"/>
      <point x="342" y="553" type="line"/>
      <point x="342" y="639" type="line"/>
      <point x="342" y="668"/>
      <point x="348" y="672"/>
      <point x="367" y="679" type="curve"/>
      <point x="432" y="703" type="line"/>
      <point x="437" y="705"/>
      <point x="441" y="710"/>
      <point x="441" y="716" type="curve"/>
      <point x="441" y="744" type="line"/>
      <point x="441" y="750"/>
      <point x="437" y="754"/>
      <point x="431" y="754" type="curve"/>
      <point x="37" y="754" type="line"/>
      <point x="31" y="754"/>
      <point x="27" y="750"/>
    </contour>
  </outline>
</glyph>
<glyph name="K" format="2">
  <advance width="868"/>
  <unicode hex="004B"/>
  <anchor x="426" y="0" name="bottom"/>
  <anchor x="426" y="754" name="top"/>
  <outline>
    <contour>
      <point x="495" y="0" type="curve"/>
      <point x="849" y="0" type="line"/>
      <point x="855" y="0"/>
      <point x="859" y="4"/>
      <point x="859" y="10" type="curve"/>
      <point x="859" y="38" type="line"/>
      <point x="859" y="44"/>
      <point x="855" y="49"/>
      <point x="850" y="52" type="curve"/>
      <point x="830" y="59" type="line"/>
      <point x="810" y="67"/>
      <point x="794" y="77"/>
      <point x="776" y="100" type="curve"/>
      <point x="491" y="449" type="line"/>
      <point x="440" y="354" type="line"/>
      <point x="736" y="662" type="line"/>
      <point x="751" y="677"/>
      <point x="767" y="688"/>
      <point x="795" y="696" type="curve"/>
      <point x="819" y="703" type="line"/>
      <point x="825" y="705"/>
      <point x="829" y="710"/>
      <point x="829" y="716" type="curve"/>
      <point x="829" y="744" type="line"/>
      <point x="829" y="750"/>
      <point x="825" y="754"/>
      <point x="819" y="754" type="curve"/>
      <point x="507" y="754" type="line"/>
      <point x="501" y="754"/>
      <point x="497" y="750"/>
      <point x="497" y="744" type="curve"/>
      <point x="497" y="716" type="line"/>
      <point x="497" y="710"/>
      <point x="501" y="705"/>
      <point x="507" y="704" type="curve"/>
      <point x="559" y="692" type="line"/>
      <point x="588" y="686"/>
      <point x="598" y="674"/>
      <point x="570" y="643" type="curve"/>
      <point x="321" y="369" type="line"/>
      <point x="525" y="97" type="line"/>
      <point x="543" y="73"/>
      <point x="542" y="57"/>
      <point x="502" y="51" type="curve"/>
      <point x="495" y="50" type="line"/>
      <point x="489" y="49"/>
      <point x="485" y="44"/>
      <point x="485" y="38" type="curve"/>
      <point x="485" y="10" type="line"/>
      <point x="485" y="4"/>
      <point x="489" y="0"/>
    </contour>
    <contour>
      <point x="119" y="0" type="line"/>
      <point x="337" y="0" type="line"/>
      <point x="337" y="754" type="line"/>
      <point x="119" y="754" type="line"/>
    </contour>
    <contour>
      <point x="32" y="0" type="curve"/>
      <point x="426" y="0" type="line"/>
      <point x="432" y="0"/>
      <point x="436" y="4"/>
      <point x="436" y="10" type="curve"/>
      <point x="436" y="38" type="line"/>
      <point x="436" y="44"/>
      <point x="432" y="49"/>
      <point x="427" y="51" type="curve"/>
      <point x="362" y="75" type="line"/>
      <point x="343" y="82"/>
      <point x="337" y="86"/>
      <point x="337" y="115" type="curve"/>
      <point x="337" y="201" type="line"/>
      <point x="119" y="201" type="line"/>
      <point x="119" y="111" type="line"/>
      <point x="119" y="90"/>
      <point x="117" y="83"/>
      <point x="90" y="73" type="curve"/>
      <point x="31" y="51" type="line"/>
      <point x="26" y="49"/>
      <point x="22" y="44"/>
      <point x="22" y="38" type="curve"/>
      <point x="22" y="10" type="line"/>
      <point x="22" y="4"/>
      <point x="26" y="0"/>
    </contour>
    <contour>
      <point x="22" y="744" type="curve"/>
      <point x="22" y="716" type="line"/>
      <point x="22" y="710"/>
      <point x="26" y="705"/>
      <point x="31" y="703" type="curve"/>
      <point x="90" y="681" type="line"/>
      <point x="117" y="671"/>
      <point x="119" y="664"/>
      <point x="119" y="643" type="curve"/>
      <point x="119" y="553" type="line"/>
      <point x="337" y="553" type="line"/>
      <point x="337" y="639" type="line"/>
      <point x="337" y="668"/>
      <point x="343" y="672"/>
      <point x="362" y="679" type="curve"/>
      <point x="427" y="703" type="line"/>
      <point x="432" y="705"/>
      <point x="436" y="710"/>
      <point x="436" y="716" type="curve"/>
      <point x="436" y="744" type="line"/>
      <point x="436" y="750"/>
      <point x="432" y="754"/>
      <point x="426" y="754" type="curve"/>
      <point x="32" y="754" type="line"/>
      <point x="26" y="754"/>
      <point x="22" y="750"/>
    </contour>
  </outline>
</glyph>
<glyph name="L" format="2">
  <advance width="718"/>
  <unicode hex="004C"/>
  <anchor x="358" y="0" name="bottom"/>
  <anchor x="358" y="377" name="center"/>
  <anchor x="228" y="754" name="top"/>
  <anchor x="539" y="490" name="topright"/>
  <outline>
    <contour>
      <point x="119" y="0" type="line"/>
      <point x="541" y="0" type="line"/>
      <point x="599" y="-3" type="line"/>
      <point x="664" y="-6"/>
      <point x="669" y="-2"/>
      <point x="674" y="35" type="curve"/>
      <point x="696" y="184" type="line"/>
      <point x="696" y="190"/>
      <point x="693" y="195"/>
      <point x="687" y="197" type="curve"/>
      <point x="648" y="207" type="line"/>
      <point x="642" y="209"/>
      <point x="636" y="207"/>
      <point x="632" y="202" type="curve"/>
      <point x="574" y="123" type="line"/>
      <point x="562" y="106"/>
      <point x="547" y="96"/>
      <point x="518" y="96" type="curve"/>
      <point x="370" y="96" type="line"/>
      <point x="349" y="96"/>
      <point x="337" y="104"/>
      <point x="337" y="133" type="curve"/>
      <point x="337" y="754" type="line"/>
      <point x="119" y="754" type="line"/>
    </contour>
    <contour>
      <point x="32" y="0" type="curve"/>
      <point x="337" y="0" type="line"/>
      <point x="337" y="201" type="line"/>
      <point x="119" y="201" type="line"/>
      <point x="119" y="111" type="line"/>
      <point x="119" y="90"/>
      <point x="117" y="83"/>
      <point x="90" y="73" type="curve"/>
      <point x="31" y="51" type="line"/>
      <point x="26" y="49"/>
      <point x="22" y="44"/>
      <point x="22" y="38" type="curve"/>
      <point x="22" y="10" type="line"/>
      <point x="22" y="4"/>
      <point x="26" y="0"/>
    </contour>
    <contour>
      <point x="22" y="744" type="curve"/>
      <point x="22" y="716" type="line"/>
      <point x="22" y="710"/>
      <point x="26" y="705"/>
      <point x="31" y="703" type="curve"/>
      <point x="90" y="681" type="line"/>
      <point x="117" y="671"/>
      <point x="119" y="664"/>
      <point x="119" y="643" type="curve"/>
      <point x="119" y="553" type="line"/>
      <point x="337" y="553" type="line"/>
      <point x="337" y="639" type="line"/>
      <point x="337" y="668"/>
      <point x="343" y="672"/>
      <point x="362" y="679" type="curve"/>
      <point x="427" y="703" type="line"/>
      <point x="432" y="705"/>
      <point x="436" y="710"/>
      <point x="436" y="716" type="curve"/>
      <point x="436" y="744" type="line"/>
      <point x="436" y="750"/>
      <point x="432" y="754"/>
      <point x="426" y="754" type="curve"/>
      <point x="32" y="754" type="line"/>
      <point x="26" y="754"/>
      <point x="22" y="750"/>
    </contour>
  </outline>
</glyph>
<glyph name="M" format="2">
  <advance width="1145"/>
  <unicode hex="004D"/>
  <anchor x="543" y="0" name="bottom"/>
  <anchor x="567" y="754" name="top"/>
  <outline>
    <contour>
      <point x="18" y="0" type="curve"/>
      <point x="307" y="0" type="line"/>
      <point x="313" y="0"/>
      <point x="317" y="4"/>
      <point x="317" y="10" type="curve"/>
      <point x="317" y="38" type="line"/>
      <point x="317" y="44"/>
      <point x="313" y="49"/>
      <point x="307" y="51" type="curve"/>
      <point x="251" y="69" type="line"/>
      <point x="223" y="77"/>
      <point x="221" y="84"/>
      <point x="222" y="105" type="curve"/>
      <point x="254" y="698" type="line"/>
      <point x="169" y="688" type="line"/>
      <point x="473" y="9" type="line"/>
      <point x="475" y="4"/>
      <point x="481" y="0"/>
      <point x="487" y="0" type="curve"/>
      <point x="561" y="0" type="line"/>
      <point x="567" y="0"/>
      <point x="573" y="4"/>
      <point x="575" y="9" type="curve"/>
      <point x="850" y="688" type="line"/>
      <point x="766" y="671" type="line"/>
      <point x="821" y="99" type="line"/>
      <point x="823" y="78"/>
      <point x="822" y="72"/>
      <point x="794" y="64" type="curve"/>
      <point x="738" y="50" type="line"/>
      <point x="732" y="49"/>
      <point x="728" y="44"/>
      <point x="728" y="38" type="curve"/>
      <point x="728" y="10" type="line"/>
      <point x="728" y="4"/>
      <point x="732" y="0"/>
      <point x="738" y="0" type="curve"/>
      <point x="1126" y="0" type="line"/>
      <point x="1132" y="0"/>
      <point x="1136" y="4"/>
      <point x="1136" y="10" type="curve"/>
      <point x="1136" y="38" type="line"/>
      <point x="1136" y="44"/>
      <point x="1132" y="49"/>
      <point x="1126" y="50" type="curve"/>
      <point x="1066" y="65" type="line"/>
      <point x="1046" y="71"/>
      <point x="1040" y="74"/>
      <point x="1037" y="103" type="curve"/>
      <point x="983" y="655" type="line"/>
      <point x="981" y="676"/>
      <point x="988" y="689"/>
      <point x="1016" y="695" type="curve"/>
      <point x="1066" y="704" type="line"/>
      <point x="1072" y="705"/>
      <point x="1076" y="710"/>
      <point x="1076" y="716" type="curve"/>
      <point x="1076" y="744" type="line"/>
      <point x="1076" y="750"/>
      <point x="1072" y="754"/>
      <point x="1066" y="754" type="curve"/>
      <point x="747" y="754" type="line"/>
      <point x="734" y="754"/>
      <point x="733" y="753"/>
      <point x="733" y="740" type="curve"/>
      <point x="733" y="728" type="line"/>
      <point x="733" y="698"/>
      <point x="729" y="671"/>
      <point x="714" y="633" type="curve"/>
      <point x="504" y="90" type="line"/>
      <point x="612" y="163" type="line"/>
      <point x="420" y="637" type="line"/>
      <point x="408" y="665"/>
      <point x="402" y="692"/>
      <point x="402" y="733" type="curve"/>
      <point x="402" y="740" type="line"/>
      <point x="402" y="753"/>
      <point x="401" y="754"/>
      <point x="388" y="754" type="curve"/>
      <point x="55" y="754" type="line"/>
      <point x="49" y="754"/>
      <point x="45" y="750"/>
      <point x="45" y="744" type="curve"/>
      <point x="45" y="716" type="line"/>
      <point x="45" y="710"/>
      <point x="49" y="705"/>
      <point x="55" y="704" type="curve"/>
      <point x="111" y="694" type="line"/>
      <point x="131" y="690"/>
      <point x="143" y="680"/>
      <point x="141" y="651" type="curve"/>
      <point x="109" y="109" type="line"/>
      <point x="107" y="80"/>
      <point x="101" y="76"/>
      <point x="81" y="70" type="curve"/>
      <point x="18" y="51" type="line"/>
      <point x="12" y="49"/>
      <point x="8" y="44"/>
      <point x="8" y="38" type="curve"/>
      <point x="8" y="10" type="line"/>
      <point x="8" y="4"/>
      <point x="12" y="0"/>
    </contour>
  </outline>
</glyph>
<glyph name="N" format="2">
  <advance width="851"/>
  <unicode hex="004E"/>
  <anchor x="438" y="0" name="bottom"/>
  <anchor x="438" y="754" name="top"/>
  <outline>
    <contour>
      <point x="778" y="679" type="curve"/>
      <point x="843" y="703" type="line"/>
      <point x="848" y="705"/>
      <point x="852" y="710"/>
      <point x="852" y="716" type="curve"/>
      <point x="852" y="744" type="line"/>
      <point x="852" y="750"/>
      <point x="848" y="754"/>
      <point x="842" y="754" type="curve"/>
      <point x="549" y="754" type="line"/>
      <point x="543" y="754"/>
      <point x="539" y="750"/>
      <point x="539" y="744" type="curve"/>
      <point x="539" y="716" type="line"/>
      <point x="539" y="710"/>
      <point x="543" y="705"/>
      <point x="548" y="702" type="curve"/>
      <point x="601" y="681" type="line"/>
      <point x="628" y="671"/>
      <point x="630" y="664"/>
      <point x="630" y="643" type="curve"/>
      <point x="630" y="90" type="line"/>
      <point x="722" y="242" type="line"/>
      <point x="272" y="747" type="line"/>
      <point x="268" y="751"/>
      <point x="261" y="754"/>
      <point x="255" y="754" type="curve"/>
      <point x="32" y="754" type="line"/>
      <point x="26" y="754"/>
      <point x="22" y="750"/>
      <point x="22" y="744" type="curve"/>
      <point x="22" y="716" type="line"/>
      <point x="22" y="710"/>
      <point x="26" y="705"/>
      <point x="31" y="703" type="curve"/>
      <point x="90" y="681" type="line"/>
      <point x="110" y="674"/>
      <point x="121" y="662"/>
      <point x="121" y="633" type="curve"/>
      <point x="121" y="115" type="line"/>
      <point x="121" y="86"/>
      <point x="115" y="82"/>
      <point x="96" y="75" type="curve"/>
      <point x="31" y="51" type="line"/>
      <point x="26" y="49"/>
      <point x="22" y="44"/>
      <point x="22" y="38" type="curve"/>
      <point x="22" y="10" type="line"/>
      <point x="22" y="4"/>
      <point x="26" y="0"/>
      <point x="32" y="0" type="curve"/>
      <point x="325" y="0" type="line"/>
      <point x="331" y="0"/>
      <point x="335" y="4"/>
      <point x="335" y="10" type="curve"/>
      <point x="335" y="38" type="line"/>
      <point x="335" y="44"/>
      <point x="331" y="49"/>
      <point x="326" y="52" type="curve"/>
      <point x="271" y="73" type="line"/>
      <point x="244" y="83"/>
      <point x="242" y="90"/>
      <point x="242" y="111" type="curve"/>
      <point x="242" y="686" type="line"/>
      <point x="148" y="577" type="line"/>
      <point x="658" y="1" type="line"/>
      <point x="662" y="-3"/>
      <point x="669" y="-6"/>
      <point x="675" y="-6" type="curve"/>
      <point x="743" y="-6" type="line"/>
      <point x="749" y="-6"/>
      <point x="753" y="-2"/>
      <point x="753" y="4" type="curve"/>
      <point x="753" y="639" type="line"/>
      <point x="753" y="668"/>
      <point x="759" y="672"/>
    </contour>
  </outline>
</glyph>
<glyph name="O" format="2">
  <advance width="966"/>
  <unicode hex="004F"/>
  <anchor x="483" y="0" name="bottom"/>
  <anchor x="483" y="377" name="center"/>
  <anchor x="573" y="0" name="ogonek"/>
  <anchor x="483" y="754" name="top"/>
  <anchor x="24" y="754" name="topleft"/>
  <anchor x="942" y="754" name="topright"/>
  <outline>
    <contour>
      <point x="482" y="-16" type="curve" smooth="yes"/>
      <point x="742" y="-16"/>
      <point x="914" y="142"/>
      <point x="914" y="378" type="curve" smooth="yes"/>
      <point x="914" y="612"/>
      <point x="741" y="770"/>
      <point x="482" y="770" type="curve" smooth="yes"/>
      <point x="225" y="770"/>
      <point x="52" y="611"/>
      <point x="52" y="378" type="curve" smooth="yes"/>
      <point x="52" y="142"/>
      <point x="225" y="-16"/>
    </contour>
    <contour>
      <point x="481" y="96" type="curve" smooth="yes"/>
      <point x="360" y="96"/>
      <point x="288" y="201"/>
      <point x="288" y="377" type="curve" smooth="yes"/>
      <point x="288" y="553"/>
      <point x="360" y="658"/>
      <point x="481" y="658" type="curve" smooth="yes"/>
      <point x="605" y="658"/>
      <point x="678" y="553"/>
      <point x="678" y="377" type="curve" smooth="yes"/>
      <point x="678" y="202"/>
      <point x="604" y="96"/>
    </contour>
  </outline>
</glyph>
<glyph name="P" format="2">
  <advance width="710"/>
  <unicode hex="0050"/>
  <anchor x="358" y="0" name="bottom"/>
  <anchor x="358" y="754" name="top"/>
  <outline>
    <contour>
      <point x="119" y="0" type="line"/>
      <point x="337" y="0" type="line"/>
      <point x="337" y="754" type="line"/>
      <point x="119" y="754" type="line"/>
    </contour>
    <contour>
      <point x="32" y="0" type="curve"/>
      <point x="474" y="0" type="line"/>
      <point x="480" y="0"/>
      <point x="484" y="4"/>
      <point x="484" y="10" type="curve"/>
      <point x="484" y="38" type="line"/>
      <point x="484" y="44"/>
      <point x="480" y="49"/>
      <point x="474" y="51" type="curve"/>
      <point x="363" y="83" type="line"/>
      <point x="343" y="88"/>
      <point x="337" y="92"/>
      <point x="337" y="121" type="curve"/>
      <point x="337" y="201" type="line"/>
      <point x="119" y="201" type="line"/>
      <point x="119" y="111" type="line"/>
      <point x="119" y="90"/>
      <point x="117" y="83"/>
      <point x="90" y="73" type="curve"/>
      <point x="31" y="51" type="line"/>
      <point x="26" y="49"/>
      <point x="22" y="44"/>
      <point x="22" y="38" type="curve"/>
      <point x="22" y="10" type="line"/>
      <point x="22" y="4"/>
      <point x="26" y="0"/>
    </contour>
    <contour>
      <point x="22" y="744" type="curve"/>
      <point x="22" y="716" type="line"/>
      <point x="22" y="710"/>
      <point x="26" y="705"/>
      <point x="31" y="703" type="curve"/>
      <point x="90" y="681" type="line"/>
      <point x="117" y="671"/>
      <point x="119" y="664"/>
      <point x="119" y="643" type="curve"/>
      <point x="119" y="553" type="line"/>
      <point x="337" y="553" type="line"/>
      <point x="337" y="754" type="line"/>
      <point x="32" y="754" type="line"/>
      <point x="26" y="754"/>
      <point x="22" y="750"/>
    </contour>
    <contour>
      <point x="337" y="383" type="curve"/>
      <point x="337" y="290" type="line"/>
      <point x="365" y="285"/>
      <point x="397" y="283"/>
      <point x="433" y="283" type="curve" smooth="yes"/>
      <point x="605" y="283"/>
      <point x="706" y="372"/>
      <point x="706" y="522" type="curve" smooth="yes"/>
      <point x="706" y="666"/>
      <point x="590" y="754"/>
      <point x="400" y="754" type="curve" smooth="yes"/>
      <point x="337" y="754" type="line"/>
      <point x="337" y="658" type="line"/>
      <point x="374" y="658" type="line" smooth="yes"/>
      <point x="449" y="658"/>
      <point x="485" y="614"/>
      <point x="485" y="522" type="curve" smooth="yes"/>
      <point x="485" y="424"/>
      <point x="451" y="380"/>
      <point x="374" y="380" type="curve" smooth="yes"/>
      <point x="362" y="380"/>
      <point x="349" y="381"/>
    </contour>
  </outline>
</glyph>
<glyph name="R" format="2">
  <advance width="838"/>
  <unicode hex="0052"/>
  <anchor x="479" y="0" name="bottom"/>
  <anchor x="370" y="754" name="top"/>
  <outline>
    <contour>
      <point x="337" y="305" type="line"/>
      <point x="384" y="305" type="line" smooth="yes"/>
      <point x="592" y="305"/>
      <point x="702" y="385"/>
      <point x="702" y="535" type="curve" smooth="yes"/>
      <point x="702" y="682"/>
      <point x="597" y="754"/>
      <point x="384" y="754" type="curve" smooth="yes"/>
      <point x="337" y="754" type="line"/>
      <point x="337" y="658" type="line"/>
      <point x="384" y="658" type="line" smooth="yes"/>
      <point x="455" y="658"/>
      <point x="488" y="619"/>
      <point x="488" y="535" type="curve" smooth="yes"/>
      <point x="488" y="447"/>
      <point x="452" y="401"/>
      <point x="384" y="401" type="curve" smooth="yes"/>
      <point x="337" y="401" type="line"/>
    </contour>
    <contour>
      <point x="119" y="0" type="line"/>
      <point x="337" y="0" type="line"/>
      <point x="337" y="754" type="line"/>
      <point x="119" y="754" type="line"/>
    </contour>
    <contour>
      <point x="601" y="0" type="curve"/>
      <point x="816" y="0" type="line"/>
      <point x="822" y="0"/>
      <point x="826" y="4"/>
      <point x="826" y="10" type="curve"/>
      <point x="826" y="38" type="line"/>
      <point x="826" y="44"/>
      <point x="822" y="50"/>
      <point x="817" y="52" type="curve"/>
      <point x="783" y="66" type="line"/>
      <point x="763" y="73"/>
      <point x="747" y="84"/>
      <point x="729" y="107" type="curve"/>
      <point x="622" y="243" type="line" smooth="yes"/>
      <point x="575" y="302"/>
      <point x="528" y="341"/>
      <point x="426" y="348" type="curve"/>
      <point x="345" y="305" type="line"/>
      <point x="361" y="305"/>
      <point x="373" y="300"/>
      <point x="396" y="263" type="curve" smooth="yes"/>
      <point x="523" y="59" type="line"/>
      <point x="558" y="3"/>
      <point x="564" y="0"/>
    </contour>
    <contour>
      <point x="32" y="0" type="curve"/>
      <point x="426" y="0" type="line"/>
      <point x="432" y="0"/>
      <point x="436" y="4"/>
      <point x="436" y="10" type="curve"/>
      <point x="436" y="38" type="line"/>
      <point x="436" y="44"/>
      <point x="432" y="49"/>
      <point x="427" y="51" type="curve"/>
      <point x="362" y="75" type="line"/>
      <point x="343" y="82"/>
      <point x="337" y="86"/>
      <point x="337" y="115" type="curve"/>
      <point x="337" y="201" type="line"/>
      <point x="119" y="201" type="line"/>
      <point x="119" y="111" type="line"/>
      <point x="119" y="90"/>
      <point x="117" y="83"/>
      <point x="90" y="73" type="curve"/>
      <point x="31" y="51" type="line"/>
      <point x="26" y="49"/>
      <point x="22" y="44"/>
      <point x="22" y="38" type="curve"/>
      <point x="22" y="10" type="line"/>
      <point x="22" y="4"/>
      <point x="26" y="0"/>
    </contour>
    <contour>
      <point x="22" y="744" type="curve"/>
      <point x="22" y="716" type="line"/>
      <point x="22" y="710"/>
      <point x="26" y="705"/>
      <point x="31" y="703" type="curve"/>
      <point x="90" y="681" type="line"/>
      <point x="117" y="671"/>
      <point x="119" y="664"/>
      <point x="119" y="643" type="curve"/>
      <point x="119" y="553" type="line"/>
      <point x="337" y="553" type="line"/>
      <point x="337" y="754" type="line"/>
      <point x="32" y="754" type="line"/>
      <point x="26" y="754"/>
      <point x="22" y="750"/>
    </contour>
  </outline>
</glyph>
<glyph name="S" format="2">
  <advance width="688"/>
  <unicode hex="0053"/>
  <anchor x="345" y="0" name="bottom"/>
  <anchor x="345" y="754" name="top"/>
  <outline>
    <contour>
      <point x="413" y="464" type="curve" smooth="yes"/>
      <point x="304" y="503"/>
      <point x="270" y="530"/>
      <point x="270" y="584" type="curve" smooth="yes"/>
      <point x="270" y="640"/>
      <point x="310" y="676"/>
      <point x="378" y="676" type="curve" smooth="yes"/>
      <point x="453" y="676"/>
      <point x="472" y="645"/>
      <point x="492" y="598" type="curve" smooth="yes"/>
      <point x="518" y="536" type="line"/>
      <point x="520" y="531"/>
      <point x="526" y="527"/>
      <point x="532" y="527" type="curve"/>
      <point x="568" y="529" type="line"/>
      <point x="574" y="529"/>
      <point x="578" y="533"/>
      <point x="579" y="539" type="curve"/>
      <point x="587" y="712" type="line"/>
      <point x="588" y="718"/>
      <point x="585" y="724"/>
      <point x="579" y="727" type="curve"/>
      <point x="537" y="751"/>
      <point x="467" y="770"/>
      <point x="378" y="770" type="curve" smooth="yes"/>
      <point x="188" y="770"/>
      <point x="52" y="673"/>
      <point x="52" y="536" type="curve" smooth="yes"/>
      <point x="52" y="412"/>
      <point x="110" y="354"/>
      <point x="304" y="282" type="curve" smooth="yes"/>
      <point x="396" y="248"/>
      <point x="425" y="222"/>
      <point x="425" y="171" type="curve" smooth="yes"/>
      <point x="425" y="113"/>
      <point x="379" y="78"/>
      <point x="304" y="78" type="curve" smooth="yes"/>
      <point x="214" y="78"/>
      <point x="174" y="107"/>
      <point x="153" y="166" type="curve" smooth="yes"/>
      <point x="132" y="225" type="line"/>
      <point x="130" y="230"/>
      <point x="125" y="234"/>
      <point x="119" y="234" type="curve"/>
      <point x="79" y="233" type="line"/>
      <point x="73" y="233"/>
      <point x="69" y="229"/>
      <point x="69" y="223" type="curve"/>
      <point x="60" y="40" type="line"/>
      <point x="60" y="34"/>
      <point x="64" y="28"/>
      <point x="69" y="26" type="curve"/>
      <point x="116" y="7"/>
      <point x="201" y="-16"/>
      <point x="317" y="-16" type="curve" smooth="yes"/>
      <point x="510" y="-16"/>
      <point x="641" y="88"/>
      <point x="641" y="241" type="curve" smooth="yes"/>
      <point x="641" y="349"/>
      <point x="585" y="403"/>
    </contour>
  </outline>
</glyph>
<glyph name="T" format="2">
  <advance width="747"/>
  <unicode hex="0054"/>
  <anchor x="373" y="0" name="bottom"/>
  <anchor x="373" y="377" name="center"/>
  <anchor x="373" y="754" name="top"/>
  <outline>
    <contour>
      <point x="264" y="0" type="line"/>
      <point x="482" y="0" type="line"/>
      <point x="482" y="754" type="line"/>
      <point x="264" y="754" type="line"/>
    </contour>
    <contour>
      <point x="692" y="766" type="curve"/>
      <point x="640" y="758" type="line"/>
      <point x="557" y="755"/>
      <point x="498" y="754"/>
      <point x="373" y="754" type="curve" smooth="yes"/>
      <point x="249" y="754"/>
      <point x="190" y="755"/>
      <point x="107" y="758" type="curve"/>
      <point x="82" y="762" type="line"/>
      <point x="18" y="772"/>
      <point x="14" y="769"/>
      <point x="13" y="732" type="curve"/>
      <point x="10" y="537" type="line"/>
      <point x="10" y="531"/>
      <point x="14" y="527"/>
      <point x="20" y="526" type="curve"/>
      <point x="58" y="522" type="line"/>
      <point x="64" y="521"/>
      <point x="70" y="525"/>
      <point x="72" y="530" type="curve"/>
      <point x="119" y="628" type="line"/>
      <point x="128" y="647"/>
      <point x="141" y="658"/>
      <point x="170" y="658" type="curve"/>
      <point x="581" y="658" type="line"/>
      <point x="602" y="658"/>
      <point x="617" y="651"/>
      <point x="630" y="625" type="curve"/>
      <point x="675" y="530" type="line"/>
      <point x="677" y="525"/>
      <point x="683" y="521"/>
      <point x="689" y="522" type="curve"/>
      <point x="727" y="526" type="line"/>
      <point x="733" y="527"/>
      <point x="737" y="531"/>
      <point x="737" y="537" type="curve"/>
      <point x="733" y="704" type="line"/>
      <point x="732" y="769"/>
      <point x="728" y="772"/>
    </contour>
    <contour>
      <point x="177" y="0" type="curve"/>
      <point x="571" y="0" type="line"/>
      <point x="577" y="0"/>
      <point x="581" y="4"/>
      <point x="581" y="10" type="curve"/>
      <point x="581" y="38" type="line"/>
      <point x="581" y="44"/>
      <point x="577" y="49"/>
      <point x="572" y="51" type="curve"/>
      <point x="507" y="75" type="line"/>
      <point x="488" y="82"/>
      <point x="482" y="86"/>
      <point x="482" y="115" type="curve"/>
      <point x="482" y="201" type="line"/>
      <point x="264" y="201" type="line"/>
      <point x="264" y="111" type="line"/>
      <point x="264" y="90"/>
      <point x="262" y="83"/>
      <point x="235" y="73" type="curve"/>
      <point x="176" y="51" type="line"/>
      <point x="171" y="49"/>
      <point x="167" y="44"/>
      <point x="167" y="38" type="curve"/>
      <point x="167" y="10" type="line"/>
      <point x="167" y="4"/>
      <point x="171" y="0"/>
    </contour>
  </outline>
</glyph>
<glyph name="U" format="2">
  <advance width="907"/>
  <unicode hex="0055"/>
  <anchor x="454" y="0" name="bottom"/>
  <anchor x="551" y="0" name="ogonek"/>
  <anchor x="487" y="754" name="top"/>
  <anchor x="892" y="754" name="topright"/>
  <outline>
    <contour>
      <point x="790" y="286" type="curve" smooth="yes"/>
      <point x="790" y="754" type="line"/>
      <point x="639" y="754" type="line"/>
      <point x="639" y="263" type="line" smooth="yes"/>
      <point x="639" y="158"/>
      <point x="582" y="96"/>
      <point x="485" y="96" type="curve" smooth="yes"/>
      <point x="392" y="96"/>
      <point x="335" y="150"/>
      <point x="335" y="237" type="curve" smooth="yes"/>
      <point x="335" y="754" type="line"/>
      <point x="117" y="754" type="line"/>
      <point x="117" y="260" type="line" smooth="yes"/>
      <point x="117" y="82"/>
      <point x="235" y="-16"/>
      <point x="448" y="-16" type="curve" smooth="yes"/>
      <point x="667" y="-16"/>
      <point x="790" y="93"/>
    </contour>
    <contour>
      <point x="20" y="744" type="curve"/>
      <point x="20" y="716" type="line"/>
      <point x="20" y="710"/>
      <point x="24" y="705"/>
      <point x="29" y="703" type="curve"/>
      <point x="88" y="681" type="line"/>
      <point x="115" y="671"/>
      <point x="117" y="664"/>
      <point x="117" y="643" type="curve"/>
      <point x="117" y="553" type="line"/>
      <point x="335" y="553" type="line"/>
      <point x="335" y="639" type="line"/>
      <point x="335" y="668"/>
      <point x="341" y="672"/>
      <point x="360" y="679" type="curve"/>
      <point x="425" y="703" type="line"/>
      <point x="430" y="705"/>
      <point x="434" y="710"/>
      <point x="434" y="716" type="curve"/>
      <point x="434" y="744" type="line"/>
      <point x="434" y="750"/>
      <point x="430" y="754"/>
      <point x="424" y="754" type="curve"/>
      <point x="30" y="754" type="line"/>
      <point x="24" y="754"/>
      <point x="20" y="750"/>
    </contour>
    <contour>
      <point x="541" y="744" type="curve"/>
      <point x="541" y="716" type="line"/>
      <point x="541" y="710"/>
      <point x="545" y="705"/>
      <point x="550" y="703" type="curve"/>
      <point x="610" y="681" type="line"/>
      <point x="637" y="671"/>
      <point x="639" y="664"/>
      <point x="639" y="643" type="curve"/>
      <point x="639" y="553" type="line"/>
      <point x="790" y="553" type="line"/>
      <point x="790" y="639" type="line"/>
      <point x="790" y="668"/>
      <point x="796" y="672"/>
      <point x="815" y="679" type="curve"/>
      <point x="880" y="703" type="line"/>
      <point x="885" y="705"/>
      <point x="889" y="710"/>
      <point x="889" y="716" type="curve"/>
      <point x="889" y="744" type="line"/>
      <point x="889" y="750"/>
      <point x="885" y="754"/>
      <point x="879" y="754" type="curve"/>
      <point x="551" y="754" type="line"/>
      <point x="545" y="754"/>
      <point x="541" y="750"/>
    </contour>
  </outline>
</glyph>
<glyph name="V" format="2">
  <advance width="865"/>
  <unicode hex="0056"/>
  <anchor x="433" y="0" name="bottom"/>
  <anchor x="433" y="754" name="top"/>
  <outline>
    <contour>
      <point x="408" y="0" type="curve"/>
      <point x="482" y="0" type="line"/>
      <point x="488" y="0"/>
      <point x="494" y="4"/>
      <point x="496" y="9" type="curve"/>
      <point x="789" y="658" type="line"/>
      <point x="798" y="677"/>
      <point x="811" y="690"/>
      <point x="839" y="698" type="curve"/>
      <point x="857" y="703" type="line"/>
      <point x="863" y="705"/>
      <point x="867" y="710"/>
      <point x="867" y="716" type="curve"/>
      <point x="867" y="744" type="line"/>
      <point x="867" y="750"/>
      <point x="863" y="754"/>
      <point x="857" y="754" type="curve"/>
      <point x="574" y="754" type="line"/>
      <point x="568" y="754"/>
      <point x="564" y="750"/>
      <point x="564" y="744" type="curve"/>
      <point x="564" y="716" type="line"/>
      <point x="564" y="710"/>
      <point x="568" y="705"/>
      <point x="574" y="704" type="curve"/>
      <point x="636" y="691" type="line"/>
      <point x="665" y="685"/>
      <point x="678" y="671"/>
      <point x="661" y="633" type="curve"/>
      <point x="424" y="90" type="line"/>
      <point x="545" y="162" type="line"/>
      <point x="324" y="638" type="line"/>
      <point x="311" y="666"/>
      <point x="315" y="683"/>
      <point x="355" y="693" type="curve"/>
      <point x="402" y="704" type="line"/>
      <point x="408" y="705"/>
      <point x="412" y="710"/>
      <point x="412" y="716" type="curve"/>
      <point x="412" y="744" type="line"/>
      <point x="412" y="750"/>
      <point x="408" y="754"/>
      <point x="402" y="754" type="curve"/>
      <point x="8" y="754" type="line"/>
      <point x="2" y="754"/>
      <point x="-2" y="750"/>
      <point x="-2" y="744" type="curve"/>
      <point x="-2" y="716" type="line"/>
      <point x="-2" y="710"/>
      <point x="2" y="705"/>
      <point x="8" y="703" type="curve"/>
      <point x="27" y="697" type="line"/>
      <point x="47" y="691"/>
      <point x="63" y="681"/>
      <point x="75" y="655" type="curve"/>
      <point x="394" y="9" type="line"/>
      <point x="396" y="4"/>
      <point x="402" y="0"/>
    </contour>
  </outline>
</glyph>
<glyph name="W" format="2">
  <advance width="1193"/>
  <unicode hex="0057"/>
  <anchor x="597" y="0" name="bottom"/>
  <anchor x="653" y="754" name="top"/>
  <outline>
    <contour>
      <point x="359" y="0" type="curve"/>
      <point x="433" y="0" type="line"/>
      <point x="439" y="0"/>
      <point x="444" y="4"/>
      <point x="446" y="9" type="curve"/>
      <point x="660" y="608" type="line"/>
      <point x="588" y="483" type="line"/>
      <point x="771" y="9" type="line"/>
      <point x="774" y="4"/>
      <point x="779" y="0"/>
      <point x="785" y="0" type="curve"/>
      <point x="859" y="0" type="line"/>
      <point x="865" y="0"/>
      <point x="870" y="4"/>
      <point x="872" y="9" type="curve"/>
      <point x="1109" y="657" type="line"/>
      <point x="1116" y="677"/>
      <point x="1128" y="690"/>
      <point x="1156" y="697" type="curve"/>
      <point x="1185" y="704" type="line"/>
      <point x="1191" y="705"/>
      <point x="1195" y="710"/>
      <point x="1195" y="716" type="curve"/>
      <point x="1195" y="744" type="line"/>
      <point x="1195" y="750"/>
      <point x="1191" y="754"/>
      <point x="1185" y="754" type="curve"/>
      <point x="902" y="754" type="line"/>
      <point x="896" y="754"/>
      <point x="892" y="750"/>
      <point x="892" y="744" type="curve"/>
      <point x="892" y="716" type="line"/>
      <point x="892" y="710"/>
      <point x="896" y="705"/>
      <point x="902" y="704" type="curve"/>
      <point x="964" y="693" type="line"/>
      <point x="993" y="687"/>
      <point x="1006" y="674"/>
      <point x="993" y="635" type="curve"/>
      <point x="799" y="90" type="line"/>
      <point x="911" y="193" type="line"/>
      <point x="703" y="745" type="line"/>
      <point x="700" y="750"/>
      <point x="695" y="754"/>
      <point x="689" y="754" type="curve"/>
      <point x="615" y="754" type="line"/>
      <point x="609" y="754"/>
      <point x="604" y="750"/>
      <point x="602" y="745" type="curve"/>
      <point x="371" y="90" type="line"/>
      <point x="489" y="163" type="line"/>
      <point x="320" y="640" type="line"/>
      <point x="310" y="668"/>
      <point x="315" y="686"/>
      <point x="355" y="694" type="curve"/>
      <point x="402" y="704" type="line"/>
      <point x="408" y="705"/>
      <point x="412" y="710"/>
      <point x="412" y="716" type="curve"/>
      <point x="412" y="744" type="line"/>
      <point x="412" y="750"/>
      <point x="408" y="754"/>
      <point x="402" y="754" type="curve"/>
      <point x="8" y="754" type="line"/>
      <point x="2" y="754"/>
      <point x="-2" y="750"/>
      <point x="-2" y="744" type="curve"/>
      <point x="-2" y="716" type="line"/>
      <point x="-2" y="710"/>
      <point x="2" y="705"/>
      <point x="8" y="703" type="curve"/>
      <point x="29" y="697" type="line"/>
      <point x="49" y="691"/>
      <point x="64" y="681"/>
      <point x="75" y="654" type="curve"/>
      <point x="345" y="9" type="line"/>
      <point x="347" y="4"/>
      <point x="353" y="0"/>
    </contour>
  </outline>
</glyph>
<glyph name="X" format="2">
  <advance width="882"/>
  <unicode hex="0058"/>
  <outline>
    <contour>
      <point x="22" y="0" type="curve"/>
      <point x="315" y="0" type="line"/>
      <point x="321" y="0"/>
      <point x="325" y="4"/>
      <point x="325" y="10" type="curve"/>
      <point x="325" y="38" type="line"/>
      <point x="325" y="44"/>
      <point x="321" y="48"/>
      <point x="315" y="49" type="curve"/>
      <point x="267" y="55" type="line"/>
      <point x="237" y="58"/>
      <point x="227" y="69"/>
      <point x="253" y="100" type="curve"/>
      <point x="475" y="373" type="line"/>
      <point x="386" y="426" type="line"/>
      <point x="108" y="99" type="line"/>
      <point x="95" y="83"/>
      <point x="79" y="71"/>
      <point x="52" y="62" type="curve"/>
      <point x="21" y="51" type="line"/>
      <point x="16" y="49"/>
      <point x="12" y="44"/>
      <point x="12" y="38" type="curve"/>
      <point x="12" y="10" type="line"/>
      <point x="12" y="4"/>
      <point x="16" y="0"/>
    </contour>
    <contour>
      <point x="812" y="695" type="curve"/>
      <point x="838" y="703" type="line"/>
      <point x="844" y="705"/>
      <point x="848" y="710"/>
      <point x="848" y="716" type="curve"/>
      <point x="848" y="744" type="line"/>
      <point x="848" y="750"/>
      <point x="844" y="754"/>
      <point x="838" y="754" type="curve"/>
      <point x="545" y="754" type="line"/>
      <point x="539" y="754"/>
      <point x="535" y="750"/>
      <point x="535" y="744" type="curve"/>
      <point x="535" y="716" type="line"/>
      <point x="535" y="710"/>
      <point x="539" y="706"/>
      <point x="545" y="705" type="curve"/>
      <point x="598" y="700" type="line"/>
      <point x="628" y="698"/>
      <point x="638" y="687"/>
      <point x="612" y="656" type="curve"/>
      <point x="428" y="429" type="line"/>
      <point x="509" y="362" type="line"/>
      <point x="755" y="660" type="line"/>
      <point x="768" y="676"/>
      <point x="784" y="687"/>
    </contour>
    <contour>
      <point x="392" y="700" type="curve"/>
      <point x="447" y="705" type="line"/>
      <point x="453" y="706"/>
      <point x="457" y="710"/>
      <point x="457" y="716" type="curve"/>
      <point x="457" y="744" type="line"/>
      <point x="457" y="750"/>
      <point x="453" y="754"/>
      <point x="447" y="754" type="curve"/>
      <point x="22" y="754" type="line"/>
      <point x="16" y="754"/>
      <point x="12" y="750"/>
      <point x="12" y="744" type="curve"/>
      <point x="12" y="716" type="line"/>
      <point x="12" y="710"/>
      <point x="16" y="705"/>
      <point x="22" y="703" type="curve"/>
      <point x="45" y="695" type="line"/>
      <point x="65" y="689"/>
      <point x="81" y="679"/>
      <point x="98" y="655" type="curve"/>
      <point x="511" y="98" type="line"/>
      <point x="529" y="74"/>
      <point x="528" y="59"/>
      <point x="487" y="55" type="curve"/>
      <point x="436" y="49" type="line"/>
      <point x="430" y="48"/>
      <point x="426" y="44"/>
      <point x="426" y="38" type="curve"/>
      <point x="426" y="10" type="line"/>
      <point x="426" y="4"/>
      <point x="430" y="0"/>
      <point x="436" y="0" type="curve"/>
      <point x="860" y="0" type="line"/>
      <point x="866" y="0"/>
      <point x="870" y="4"/>
      <point x="870" y="10" type="curve"/>
      <point x="870" y="38" type="line"/>
      <point x="870" y="44"/>
      <point x="866" y="49"/>
      <point x="861" y="52" type="curve"/>
      <point x="834" y="62" type="line"/>
      <point x="814" y="70"/>
      <point x="798" y="80"/>
      <point x="781" y="104" type="curve"/>
      <point x="368" y="658" type="line"/>
      <point x="350" y="682"/>
      <point x="351" y="697"/>
    </contour>
  </outline>
</glyph>
<glyph name="Y" format="2">
  <advance width="865"/>
  <unicode hex="0059"/>
  <anchor x="451" y="0" name="bottom"/>
  <anchor x="488" y="754" name="top"/>
  <anchor x="24" y="754" name="topleft"/>
  <outline>
    <contour>
      <point x="341" y="0" type="line"/>
      <point x="559" y="0" type="line"/>
      <point x="559" y="337" type="line"/>
      <point x="341" y="337" type="line"/>
    </contour>
    <contour>
      <point x="77" y="661" type="curve"/>
      <point x="398" y="237" type="line"/>
      <point x="492" y="237" type="line"/>
      <point x="782" y="660" type="line"/>
      <point x="794" y="677"/>
      <point x="809" y="689"/>
      <point x="837" y="697" type="curve"/>
      <point x="857" y="703" type="line"/>
      <point x="863" y="705"/>
      <point x="867" y="710"/>
      <point x="867" y="716" type="curve"/>
      <point x="867" y="744" type="line"/>
      <point x="867" y="750"/>
      <point x="863" y="754"/>
      <point x="857" y="754" type="curve"/>
      <point x="574" y="754" type="line"/>
      <point x="568" y="754"/>
      <point x="564" y="750"/>
      <point x="564" y="744" type="curve"/>
      <point x="564" y="716" type="line"/>
      <point x="564" y="710"/>
      <point x="568" y="705"/>
      <point x="574" y="704" type="curve"/>
      <point x="625" y="692" type="line"/>
      <point x="654" y="686"/>
      <point x="665" y="673"/>
      <point x="642" y="639" type="curve"/>
      <point x="420" y="304" type="line"/>
      <point x="545" y="370" type="line"/>
      <point x="339" y="645" type="line"/>
      <point x="321" y="669"/>
      <point x="322" y="685"/>
      <point x="362" y="693" type="curve"/>
      <point x="418" y="704" type="line"/>
      <point x="424" y="705"/>
      <point x="428" y="710"/>
      <point x="428" y="716" type="curve"/>
      <point x="428" y="744" type="line"/>
      <point x="428" y="750"/>
      <point x="424" y="754"/>
      <point x="418" y="754" type="curve"/>
      <point x="8" y="754" type="line"/>
      <point x="2" y="754"/>
      <point x="-2" y="750"/>
      <point x="-2" y="744" type="curve"/>
      <point x="-2" y="716" type="line"/>
      <point x="-2" y="710"/>
      <point x="2" y="705"/>
      <point x="8" y="703" type="curve"/>
      <point x="23" y="699" type="line"/>
      <point x="43" y="693"/>
      <point x="60" y="684"/>
    </contour>
    <contour>
      <point x="254" y="0" type="curve"/>
      <point x="648" y="0" type="line"/>
      <point x="654" y="0"/>
      <point x="658" y="4"/>
      <point x="658" y="10" type="curve"/>
      <point x="658" y="38" type="line"/>
      <point x="658" y="44"/>
      <point x="654" y="49"/>
      <point x="649" y="51" type="curve"/>
      <point x="584" y="75" type="line"/>
      <point x="565" y="82"/>
      <point x="559" y="86"/>
      <point x="559" y="115" type="curve"/>
      <point x="559" y="201" type="line"/>
      <point x="341" y="201" type="line"/>
      <point x="341" y="111" type="line"/>
      <point x="341" y="90"/>
      <point x="339" y="83"/>
      <point x="312" y="73" type="curve"/>
      <point x="253" y="51" type="line"/>
      <point x="248" y="49"/>
      <point x="244" y="44"/>
      <point x="244" y="38" type="curve"/>
      <point x="244" y="10" type="line"/>
      <point x="244" y="4"/>
      <point x="248" y="0"/>
    </contour>
  </outline>
</glyph>
<glyph name="Z" format="2">
  <advance width="711"/>
  <unicode hex="005A"/>
  <anchor x="349" y="0" name="bottom"/>
  <anchor x="349" y="377" name="center"/>
  <anchor x="383" y="754" name="top"/>
  <outline>
    <contour>
      <point x="41" y="0" type="curve"/>
      <point x="511" y="0" type="line"/>
      <point x="574" y="-3" type="line"/>
      <point x="639" y="-6"/>
      <point x="643" y="-2"/>
      <point x="647" y="35" type="curve"/>
      <point x="667" y="226" type="line"/>
      <point x="668" y="232"/>
      <point x="664" y="237"/>
      <point x="658" y="238" type="curve"/>
      <point x="617" y="247" type="line"/>
      <point x="611" y="248"/>
      <point x="605" y="246"/>
      <point x="602" y="240" type="curve"/>
      <point x="535" y="125" type="line"/>
      <point x="525" y="106"/>
      <point x="511" y="96"/>
      <point x="482" y="96" type="curve"/>
      <point x="258" y="96" type="line"/>
      <point x="275" y="67" type="line"/>
      <point x="681" y="710" type="line"/>
      <point x="684" y="715"/>
      <point x="685" y="722"/>
      <point x="684" y="728" type="curve"/>
      <point x="679" y="744" type="line"/>
      <point x="678" y="750"/>
      <point x="673" y="754"/>
      <point x="667" y="754" type="curve"/>
      <point x="221" y="754" type="line"/>
      <point x="157" y="757" type="line"/>
      <point x="92" y="760"/>
      <point x="88" y="756"/>
      <point x="85" y="719" type="curve"/>
      <point x="72" y="529" type="line"/>
      <point x="71" y="523"/>
      <point x="75" y="519"/>
      <point x="81" y="518" type="curve"/>
      <point x="119" y="517" type="line"/>
      <point x="125" y="516"/>
      <point x="131" y="519"/>
      <point x="134" y="525" type="curve"/>
      <point x="194" y="629" type="line"/>
      <point x="204" y="648"/>
      <point x="218" y="658"/>
      <point x="247" y="658" type="curve"/>
      <point x="468" y="658" type="line"/>
      <point x="455" y="700" type="line"/>
      <point x="28" y="44" type="line"/>
      <point x="25" y="39"/>
      <point x="24" y="32"/>
      <point x="25" y="26" type="curve"/>
      <point x="29" y="10" type="line"/>
      <point x="30" y="4"/>
      <point x="35" y="0"/>
    </contour>
  </outline>
</glyph>
<glyph name="bracketleft" format="2">
  <advance width="496"/>
  <unicode hex="005B"/>
  <outline>
    <contour>
      <point x="473" y="772" type="curve"/>
      <point x="473" y="807" type="line"/>
      <point x="473" y="813"/>
      <point x="469" y="817"/>
      <point x="463" y="817" type="curve"/>
      <point x="130" y="827" type="line"/>
      <point x="124" y="827"/>
      <point x="120" y="823"/>
      <point x="120" y="817" type="curve"/>
      <point x="120" y="-123" type="line"/>
      <point x="120" y="-129"/>
      <point x="124" y="-133"/>
      <point x="130" y="-133" type="curve"/>
      <point x="463" y="-123" type="line"/>
      <point x="469" y="-123"/>
      <point x="473" y="-119"/>
      <point x="473" y="-113" type="curve"/>
      <point x="473" y="-78" type="line"/>
      <point x="473" y="-72"/>
      <point x="469" y="-68"/>
      <point x="463" y="-67" type="curve"/>
      <point x="313" y="-55" type="line"/>
      <point x="292" y="-53"/>
      <point x="286" y="-51"/>
      <point x="286" y="-22" type="curve"/>
      <point x="286" y="716" type="line"/>
      <point x="286" y="745"/>
      <point x="292" y="747"/>
      <point x="313" y="749" type="curve"/>
      <point x="463" y="761" type="line"/>
      <point x="469" y="762"/>
      <point x="473" y="766"/>
    </contour>
  </outline>
</glyph>
<glyph name="asciicircum" format="2">
  <advance width="670"/>
  <unicode hex="005E"/>
  <outline>
    <contour>
      <point x="44" y="305" type="curve"/>
      <point x="281" y="742" type="line"/>
      <point x="284" y="747"/>
      <point x="290" y="751"/>
      <point x="296" y="751" type="curve"/>
      <point x="373" y="751" type="line"/>
      <point x="379" y="751"/>
      <point x="385" y="748"/>
      <point x="388" y="742" type="curve"/>
      <point x="627" y="317" type="line"/>
      <point x="630" y="311"/>
      <point x="628" y="307"/>
      <point x="622" y="305" type="curve"/>
      <point x="585" y="297"/>
      <point x="542" y="295"/>
      <point x="501" y="296" type="curve"/>
      <point x="495" y="296"/>
      <point x="489" y="300"/>
      <point x="486" y="305" type="curve"/>
      <point x="331" y="590" type="line"/>
      <point x="183" y="317" type="line"/>
      <point x="180" y="312"/>
      <point x="174" y="307"/>
      <point x="168" y="305" type="curve"/>
      <point x="136" y="296"/>
      <point x="88" y="294"/>
      <point x="49" y="295" type="curve"/>
      <point x="43" y="296"/>
      <point x="41" y="300"/>
    </contour>
  </outline>
</glyph>
<glyph name="underscore" format="2">
  <advance width="670"/>
  <unicode hex="005F"/>
  <outline>
    <contour>
      <point x="2" y="-142" type="curve"/>
      <point x="668" y="-142" type="line"/>
      <point x="674" y="-142"/>
      <point x="678" y="-138"/>
      <point x="678" y="-132" type="curve"/>
      <point x="678" y="-82" type="line"/>
      <point x="678" y="-76"/>
      <point x="674" y="-72"/>
      <point x="668" y="-72" type="curve"/>
      <point x="2" y="-72" type="line"/>
      <point x="-4" y="-72"/>
      <point x="-8" y="-76"/>
      <point x="-8" y="-82" type="curve"/>
      <point x="-8" y="-132" type="line"/>
      <point x="-8" y="-138"/>
      <point x="-4" y="-142"/>
    </contour>
  </outline>
</glyph>
<glyph name="a" format="2">
  <advance width="583"/>
  <unicode hex="0061"/>
  <anchor x="278" y="0" name="bottom"/>
  <anchor x="420" y="0" name="ogonek"/>
  <anchor x="270" y="500" name="top"/>
  <outline>
    <contour>
      <point x="163" y="-16" type="curve" smooth="yes"/>
      <point x="257" y="-16"/>
      <point x="314" y="63"/>
      <point x="325" y="118" type="curve"/>
      <point x="313" y="130" type="line"/>
      <point x="306" y="126"/>
      <point x="288" y="111"/>
      <point x="248" y="111" type="curve" smooth="yes"/>
      <point x="218" y="111"/>
      <point x="198" y="130"/>
      <point x="198" y="158" type="curve" smooth="yes"/>
      <point x="198" y="184"/>
      <point x="215" y="198"/>
      <point x="251" y="202" type="curve" smooth="yes"/>
      <point x="324" y="211" type="line"/>
      <point x="328" y="278" type="line"/>
      <point x="218" y="269" type="line" smooth="yes"/>
      <point x="88" y="258"/>
      <point x="24" y="207"/>
      <point x="24" y="120" type="curve" smooth="yes"/>
      <point x="24" y="39"/>
      <point x="80" y="-16"/>
    </contour>
    <contour>
      <point x="304" y="311" type="curve" smooth="yes"/>
      <point x="304" y="162" type="line"/>
      <point x="510" y="162" type="line"/>
      <point x="510" y="314" type="line" smooth="yes"/>
      <point x="510" y="439"/>
      <point x="420" y="516"/>
      <point x="276" y="516" type="curve" smooth="yes"/>
      <point x="192" y="516"/>
      <point x="107" y="490"/>
      <point x="56" y="471" type="curve"/>
      <point x="51" y="468"/>
      <point x="48" y="463"/>
      <point x="49" y="457" type="curve"/>
      <point x="59" y="414"/>
      <point x="71" y="365"/>
      <point x="84" y="317" type="curve"/>
      <point x="85" y="311"/>
      <point x="90" y="307"/>
      <point x="96" y="307" type="curve"/>
      <point x="138" y="307" type="line"/>
      <point x="144" y="307"/>
      <point x="149" y="311"/>
      <point x="151" y="317" type="curve"/>
      <point x="159" y="342" type="line" smooth="yes"/>
      <point x="177" y="399"/>
      <point x="202" y="406"/>
      <point x="235" y="406" type="curve" smooth="yes"/>
      <point x="280" y="406"/>
      <point x="304" y="373"/>
    </contour>
    <contour>
      <point x="510" y="162" type="line"/>
      <point x="304" y="162" type="line"/>
      <point x="304" y="112" type="line"/>
      <point x="316" y="104" type="line"/>
      <point x="316" y="61" type="line" smooth="yes"/>
      <point x="316" y="-13"/>
      <point x="373" y="-25"/>
      <point x="506" y="0" type="curve" smooth="yes"/>
      <point x="561" y="10" type="line"/>
      <point x="567" y="11"/>
      <point x="571" y="16"/>
      <point x="571" y="22" type="curve"/>
      <point x="571" y="47" type="line"/>
      <point x="571" y="53"/>
      <point x="567" y="59"/>
      <point x="562" y="61" type="curve"/>
      <point x="490" y="93" type="line"/>
      <point x="510" y="55" type="line"/>
    </contour>
  </outline>
</glyph>
<glyph name="b" format="2">
  <advance width="666"/>
  <unicode hex="0062"/>
  <outline>
    <contour>
      <point x="51" y="564" type="line"/>
      <point x="51" y="-6" type="line"/>
      <point x="51" y="-12"/>
      <point x="55" y="-16"/>
      <point x="61" y="-16" type="curve"/>
      <point x="112" y="-16" type="line"/>
      <point x="118" y="-16"/>
      <point x="125" y="-13"/>
      <point x="130" y="-10" type="curve"/>
      <point x="257" y="95" type="line"/>
      <point x="257" y="564" type="line"/>
    </contour>
    <contour>
      <point x="223" y="108" type="curve"/>
      <point x="176" y="59" type="line"/>
      <point x="240" y="3"/>
      <point x="289" y="-16"/>
      <point x="366" y="-16" type="curve" smooth="yes"/>
      <point x="535" y="-16"/>
      <point x="636" y="91"/>
      <point x="636" y="269" type="curve" smooth="yes"/>
      <point x="636" y="419"/>
      <point x="555" y="516"/>
      <point x="430" y="516" type="curve" smooth="yes"/>
      <point x="339" y="516"/>
      <point x="260" y="456"/>
      <point x="232" y="367" type="curve"/>
      <point x="244" y="339" type="line"/>
      <point x="276" y="360"/>
      <point x="306" y="371"/>
      <point x="331" y="371" type="curve" smooth="yes"/>
      <point x="394" y="371"/>
      <point x="430" y="327"/>
      <point x="430" y="248" type="curve" smooth="yes"/>
      <point x="430" y="154"/>
      <point x="385" y="99"/>
      <point x="307" y="99" type="curve" smooth="yes"/>
      <point x="260" y="99"/>
      <point x="236" y="104"/>
    </contour>
    <contour>
      <point x="51" y="563" type="line"/>
      <point x="257" y="563" type="line"/>
      <point x="257" y="748" type="line"/>
      <point x="257" y="768"/>
      <point x="248" y="773"/>
      <point x="224" y="769" type="curve"/>
      <point x="1" y="735" type="line"/>
      <point x="-5" y="735"/>
      <point x="-9" y="730"/>
      <point x="-9" y="724" type="curve"/>
      <point x="-9" y="694" type="line"/>
      <point x="-9" y="688"/>
      <point x="-5" y="683"/>
      <point x="1" y="681" type="curve"/>
      <point x="71" y="662" type="line"/>
      <point x="51" y="717" type="line"/>
    </contour>
  </outline>
</glyph>
<glyph name="c" format="2">
  <advance width="546"/>
  <unicode hex="0063"/>
  <anchor x="306" y="0" name="bottom"/>
  <anchor x="306" y="500" name="top"/>
  <outline>
    <contour>
      <point x="300" y="-16" type="curve" smooth="yes"/>
      <point x="380" y="-16"/>
      <point x="452" y="16"/>
      <point x="504" y="75" type="curve"/>
      <point x="507" y="80"/>
      <point x="508" y="87"/>
      <point x="505" y="92" type="curve"/>
      <point x="486" y="130" type="line"/>
      <point x="483" y="135"/>
      <point x="478" y="137"/>
      <point x="473" y="134" type="curve"/>
      <point x="439" y="113"/>
      <point x="407" y="105"/>
      <point x="367" y="105" type="curve" smooth="yes"/>
      <point x="284" y="105"/>
      <point x="242" y="161"/>
      <point x="242" y="269" type="curve" smooth="yes"/>
      <point x="242" y="361"/>
      <point x="275" y="401"/>
      <point x="351" y="401" type="curve" smooth="yes"/>
      <point x="378" y="401"/>
      <point x="403" y="399"/>
      <point x="422" y="396" type="curve"/>
      <point x="364" y="425" type="line"/>
      <point x="411" y="295" type="line"/>
      <point x="413" y="290"/>
      <point x="418" y="286"/>
      <point x="424" y="286" type="curve"/>
      <point x="473" y="286" type="line"/>
      <point x="479" y="286"/>
      <point x="483" y="290"/>
      <point x="484" y="296" type="curve"/>
      <point x="504" y="468" type="line"/>
      <point x="505" y="474"/>
      <point x="501" y="479"/>
      <point x="496" y="482" type="curve"/>
      <point x="437" y="504"/>
      <point x="377" y="516"/>
      <point x="323" y="516" type="curve" smooth="yes"/>
      <point x="150" y="516"/>
      <point x="30" y="407"/>
      <point x="30" y="251" type="curve" smooth="yes"/>
      <point x="30" y="93"/>
      <point x="141" y="-16"/>
    </contour>
  </outline>
</glyph>
<glyph name="d" format="2">
  <advance width="693"/>
  <unicode hex="0064"/>
  <anchor x="347" y="0" name="bottom"/>
  <anchor x="489" y="584" name="center"/>
  <anchor x="347" y="754" name="top"/>
  <anchor x="700" y="500" name="topright"/>
  <outline>
    <contour>
      <point x="410" y="162" type="line"/>
      <point x="616" y="162" type="line"/>
      <point x="616" y="587" type="line"/>
      <point x="410" y="587" type="line"/>
    </contour>
    <contour>
      <point x="443" y="392" type="curve"/>
      <point x="490" y="441" type="line"/>
      <point x="426" y="497"/>
      <point x="377" y="516"/>
      <point x="300" y="516" type="curve" smooth="yes"/>
      <point x="131" y="516"/>
      <point x="30" y="409"/>
      <point x="30" y="231" type="curve" smooth="yes"/>
      <point x="30" y="81"/>
      <point x="111" y="-16"/>
      <point x="236" y="-16" type="curve" smooth="yes"/>
      <point x="327" y="-16"/>
      <point x="406" y="44"/>
      <point x="434" y="133" type="curve"/>
      <point x="422" y="161" type="line"/>
      <point x="390" y="140"/>
      <point x="360" y="129"/>
      <point x="335" y="129" type="curve" smooth="yes"/>
      <point x="272" y="129"/>
      <point x="236" y="173"/>
      <point x="236" y="252" type="curve" smooth="yes"/>
      <point x="236" y="346"/>
      <point x="281" y="401"/>
      <point x="359" y="401" type="curve" smooth="yes"/>
      <point x="406" y="401"/>
      <point x="430" y="396"/>
    </contour>
    <contour>
      <point x="410" y="563" type="line"/>
      <point x="616" y="563" type="line"/>
      <point x="616" y="748" type="line"/>
      <point x="616" y="768"/>
      <point x="607" y="773"/>
      <point x="583" y="769" type="curve"/>
      <point x="360" y="735" type="line"/>
      <point x="354" y="735"/>
      <point x="350" y="730"/>
      <point x="350" y="724" type="curve"/>
      <point x="350" y="694" type="line"/>
      <point x="350" y="688"/>
      <point x="354" y="683"/>
      <point x="360" y="681" type="curve"/>
      <point x="430" y="662" type="line"/>
      <point x="410" y="717" type="line"/>
    </contour>
    <contour>
      <point x="616" y="162" type="line"/>
      <point x="410" y="162" type="line"/>
      <point x="410" y="141" type="line"/>
      <point x="422" y="124" type="line"/>
      <point x="422" y="1" type="line" smooth="yes"/>
      <point x="422" y="-12"/>
      <point x="428" y="-17"/>
      <point x="450" y="-14" type="curve" smooth="yes"/>
      <point x="668" y="10" type="line"/>
      <point x="674" y="11"/>
      <point x="678" y="15"/>
      <point x="678" y="21" type="curve"/>
      <point x="678" y="47" type="line"/>
      <point x="678" y="53"/>
      <point x="674" y="59"/>
      <point x="669" y="61" type="curve"/>
      <point x="597" y="93" type="line"/>
      <point x="616" y="55" type="line"/>
    </contour>
  </outline>
</glyph>
<glyph name="e" format="2">
  <advance width="583"/>
  <unicode hex="0065"/>
  <anchor x="307" y="0" name="bottom"/>
  <anchor x="467" y="0" name="ogonek"/>
  <anchor x="295" y="500" name="top"/>
  <outline>
    <contour>
      <point x="304" y="-16" type="curve" smooth="yes"/>
      <point x="386" y="-16"/>
      <point x="463" y="18"/>
      <point x="513" y="75" type="curve"/>
      <point x="516" y="80"/>
      <point x="517" y="87"/>
      <point x="515" y="92" type="curve"/>
      <point x="496" y="130" type="line"/>
      <point x="494" y="135"/>
      <point x="489" y="137"/>
      <point x="483" y="134" type="curve"/>
      <point x="447" y="114"/>
      <point x="414" y="105"/>
      <point x="373" y="105" type="curve" smooth="yes"/>
      <point x="282" y="105"/>
      <point x="229" y="173"/>
      <point x="229" y="264" type="curve" smooth="yes"/>
      <point x="229" y="357"/>
      <point x="255" y="405"/>
      <point x="305" y="405" type="curve" smooth="yes"/>
      <point x="343" y="405"/>
      <point x="373" y="362"/>
      <point x="373" y="308" type="curve" smooth="yes"/>
      <point x="373" y="302"/>
      <point x="373" y="299"/>
      <point x="373" y="293" type="curve"/>
      <point x="402" y="304" type="line"/>
      <point x="218" y="304" type="line"/>
      <point x="218" y="219" type="line"/>
      <point x="534" y="219" type="line"/>
      <point x="540" y="219"/>
      <point x="544" y="223"/>
      <point x="545" y="229" type="curve"/>
      <point x="546" y="250"/>
      <point x="547" y="267"/>
      <point x="547" y="283" type="curve" smooth="yes"/>
      <point x="547" y="423"/>
      <point x="447" y="516"/>
      <point x="307" y="516" type="curve" smooth="yes"/>
      <point x="163" y="516"/>
      <point x="30" y="424"/>
      <point x="30" y="251" type="curve" smooth="yes"/>
      <point x="30" y="75"/>
      <point x="160" y="-16"/>
    </contour>
  </outline>
</glyph>
<glyph name="f" format="2">
  <advance width="413"/>
  <unicode hex="0066"/>
  <outline>
    <contour>
      <point x="81" y="445" type="curve" smooth="yes"/>
      <point x="81" y="0" type="line"/>
      <point x="287" y="0" type="line"/>
      <point x="287" y="477" type="line"/>
      <point x="267" y="511"/>
      <point x="257" y="545"/>
      <point x="257" y="583" type="curve" smooth="yes"/>
      <point x="257" y="614"/>
      <point x="277" y="632"/>
      <point x="311" y="632" type="curve" smooth="yes"/>
      <point x="344" y="632"/>
      <point x="383" y="621"/>
      <point x="424" y="599" type="curve"/>
      <point x="429" y="596"/>
      <point x="435" y="597"/>
      <point x="439" y="602" type="curve"/>
      <point x="456" y="627"/>
      <point x="477" y="664"/>
      <point x="477" y="712" type="curve" smooth="yes"/>
      <point x="477" y="749"/>
      <point x="441" y="770"/>
      <point x="375" y="770" type="curve" smooth="yes"/>
      <point x="210" y="770"/>
      <point x="81" y="627"/>
    </contour>
    <contour>
      <point x="26" y="420" type="curve"/>
      <point x="401" y="420" type="line"/>
      <point x="407" y="420"/>
      <point x="412" y="424"/>
      <point x="413" y="430" type="curve"/>
      <point x="418" y="453"/>
      <point x="419" y="475"/>
      <point x="418" y="497" type="curve"/>
      <point x="418" y="503"/>
      <point x="414" y="507"/>
      <point x="408" y="506" type="curve"/>
      <point x="327" y="500" type="line"/>
      <point x="84" y="500" type="line"/>
      <point x="40" y="492" type="line"/>
      <point x="34" y="491"/>
      <point x="29" y="486"/>
      <point x="28" y="480" type="curve"/>
      <point x="18" y="430" type="line"/>
      <point x="17" y="424"/>
      <point x="20" y="420"/>
    </contour>
    <contour>
      <point x="45" y="0" type="curve"/>
      <point x="335" y="0" type="line"/>
      <point x="341" y="0"/>
      <point x="345" y="4"/>
      <point x="345" y="10" type="curve"/>
      <point x="345" y="35" type="line"/>
      <point x="345" y="41"/>
      <point x="341" y="46"/>
      <point x="336" y="48" type="curve"/>
      <point x="312" y="57" type="line"/>
      <point x="288" y="66"/>
      <point x="287" y="67"/>
      <point x="287" y="97" type="curve"/>
      <point x="287" y="180" type="line"/>
      <point x="81" y="180" type="line"/>
      <point x="81" y="93" type="line"/>
      <point x="81" y="67"/>
      <point x="80" y="66"/>
      <point x="53" y="53" type="curve"/>
      <point x="44" y="49" type="line"/>
      <point x="39" y="47"/>
      <point x="35" y="41"/>
      <point x="35" y="35" type="curve"/>
      <point x="35" y="10" type="line"/>
      <point x="35" y="4"/>
      <point x="39" y="0"/>
    </contour>
  </outline>
</glyph>
<glyph name="g" format="2">
  <advance width="571"/>
  <unicode hex="0067"/>
  <anchor x="286" y="-205" name="bottom"/>
  <anchor x="291" y="502" name="top"/>
  <outline>
    <contour>
      <point x="226" y="-221" type="curve" smooth="yes"/>
      <point x="410" y="-221"/>
      <point x="538" y="-135"/>
      <point x="538" y="-11" type="curve" smooth="yes"/>
      <point x="538" y="69"/>
      <point x="492" y="113"/>
      <point x="406" y="113" type="curve" smooth="yes"/>
      <point x="255" y="113" type="line" smooth="yes"/>
      <point x="209" y="113"/>
      <point x="187" y="115"/>
      <point x="187" y="146" type="curve" smooth="yes"/>
      <point x="187" y="163"/>
      <point x="206" y="196"/>
      <point x="225" y="207" type="curve"/>
      <point x="176" y="201" type="line"/>
      <point x="91" y="165"/>
      <point x="53" y="126"/>
      <point x="53" y="78" type="curve" smooth="yes"/>
      <point x="53" y="11"/>
      <point x="117" y="-40"/>
      <point x="205" y="-40" type="curve" smooth="yes"/>
      <point x="326" y="-40" type="line" smooth="yes"/>
      <point x="362" y="-40"/>
      <point x="385" y="-50"/>
      <point x="385" y="-79" type="curve" smooth="yes"/>
      <point x="385" y="-110"/>
      <point x="355" y="-125"/>
      <point x="299" y="-125" type="curve" smooth="yes"/>
      <point x="219" y="-125"/>
      <point x="176" y="-98"/>
      <point x="176" y="-45" type="curve" smooth="yes"/>
      <point x="176" y="-35"/>
      <point x="175" y="-32"/>
      <point x="176" y="-26" type="curve"/>
      <point x="150" y="-12" type="line"/>
      <point x="69" y="-22"/>
      <point x="18" y="-61"/>
      <point x="18" y="-108" type="curve" smooth="yes"/>
      <point x="18" y="-185"/>
      <point x="85" y="-221"/>
    </contour>
    <contour>
      <point x="270" y="253" type="curve" smooth="yes"/>
      <point x="231" y="253"/>
      <point x="208" y="293"/>
      <point x="208" y="353" type="curve" smooth="yes"/>
      <point x="208" y="400"/>
      <point x="225" y="422"/>
      <point x="260" y="422" type="curve" smooth="yes"/>
      <point x="297" y="422"/>
      <point x="319" y="383"/>
      <point x="319" y="321" type="curve" smooth="yes"/>
      <point x="319" y="277"/>
      <point x="302" y="253"/>
    </contour>
    <contour>
      <point x="369" y="486" type="curve"/>
      <point x="370" y="401" type="line"/>
      <point x="552" y="401" type="line"/>
      <point x="558" y="401"/>
      <point x="562" y="405"/>
      <point x="563" y="411" type="curve"/>
      <point x="565" y="448"/>
      <point x="559" y="495"/>
      <point x="552" y="524" type="curve"/>
      <point x="550" y="530"/>
      <point x="545" y="533"/>
      <point x="539" y="532" type="curve"/>
      <point x="390" y="500" type="line"/>
      <point x="500" y="498" type="line"/>
      <point x="432" y="508"/>
      <point x="376" y="516"/>
      <point x="283" y="516" type="curve" smooth="yes"/>
      <point x="125" y="516"/>
      <point x="16" y="445"/>
      <point x="16" y="339" type="curve" smooth="yes"/>
      <point x="16" y="235"/>
      <point x="122" y="161"/>
      <point x="271" y="161" type="curve" smooth="yes"/>
      <point x="404" y="161"/>
      <point x="497" y="232"/>
      <point x="497" y="331" type="curve" smooth="yes"/>
      <point x="497" y="382"/>
      <point x="445" y="446"/>
    </contour>
  </outline>
</glyph>
<glyph name="h" format="2">
  <advance width="698"/>
  <unicode hex="0068"/>
  <anchor x="347" y="0" name="bottom"/>
  <anchor x="222" y="584" name="center"/>
  <anchor x="172" y="754" name="top"/>
  <outline>
    <contour>
      <point x="69" y="0" type="line"/>
      <point x="275" y="0" type="line"/>
      <point x="275" y="564" type="line"/>
      <point x="69" y="564" type="line"/>
    </contour>
    <contour>
      <point x="419" y="301" type="curve" smooth="yes"/>
      <point x="419" y="0" type="line"/>
      <point x="625" y="0" type="line"/>
      <point x="625" y="331" type="line" smooth="yes"/>
      <point x="625" y="463"/>
      <point x="582" y="516"/>
      <point x="469" y="516" type="curve" smooth="yes"/>
      <point x="370" y="516"/>
      <point x="282" y="455"/>
      <point x="243" y="367" type="curve"/>
      <point x="263" y="340" type="line"/>
      <point x="292" y="355"/>
      <point x="321" y="364"/>
      <point x="346" y="364" type="curve" smooth="yes"/>
      <point x="392" y="364"/>
      <point x="419" y="341"/>
    </contour>
    <contour>
      <point x="33" y="0" type="curve"/>
      <point x="323" y="0" type="line"/>
      <point x="329" y="0"/>
      <point x="333" y="4"/>
      <point x="333" y="10" type="curve"/>
      <point x="333" y="35" type="line"/>
      <point x="333" y="41"/>
      <point x="329" y="46"/>
      <point x="324" y="48" type="curve"/>
      <point x="300" y="57" type="line"/>
      <point x="276" y="66"/>
      <point x="275" y="67"/>
      <point x="275" y="97" type="curve"/>
      <point x="275" y="180" type="line"/>
      <point x="69" y="180" type="line"/>
      <point x="69" y="93" type="line"/>
      <point x="69" y="67"/>
      <point x="68" y="66"/>
      <point x="41" y="53" type="curve"/>
      <point x="32" y="49" type="line"/>
      <point x="27" y="47"/>
      <point x="23" y="41"/>
      <point x="23" y="35" type="curve"/>
      <point x="23" y="10" type="line"/>
      <point x="23" y="4"/>
      <point x="27" y="0"/>
    </contour>
    <contour>
      <point x="69" y="563" type="line"/>
      <point x="275" y="563" type="line"/>
      <point x="275" y="748" type="line"/>
      <point x="275" y="768"/>
      <point x="266" y="773"/>
      <point x="242" y="769" type="curve"/>
      <point x="19" y="735" type="line"/>
      <point x="13" y="735"/>
      <point x="9" y="730"/>
      <point x="9" y="724" type="curve"/>
      <point x="9" y="694" type="line"/>
      <point x="9" y="688"/>
      <point x="13" y="683"/>
      <point x="19" y="681" type="curve"/>
      <point x="89" y="662" type="line"/>
      <point x="69" y="717" type="line"/>
    </contour>
    <contour>
      <point x="383" y="0" type="curve"/>
      <point x="673" y="0" type="line"/>
      <point x="679" y="0"/>
      <point x="683" y="4"/>
      <point x="683" y="10" type="curve"/>
      <point x="683" y="35" type="line"/>
      <point x="683" y="41"/>
      <point x="679" y="46"/>
      <point x="674" y="48" type="curve"/>
      <point x="650" y="57" type="line"/>
      <point x="626" y="66"/>
      <point x="625" y="67"/>
      <point x="625" y="97" type="curve"/>
      <point x="625" y="180" type="line"/>
      <point x="419" y="180" type="line"/>
      <point x="419" y="93" type="line"/>
      <point x="419" y="67"/>
      <point x="418" y="66"/>
      <point x="391" y="53" type="curve"/>
      <point x="382" y="49" type="line"/>
      <point x="377" y="47"/>
      <point x="373" y="41"/>
      <point x="373" y="35" type="curve"/>
      <point x="373" y="10" type="line"/>
      <point x="373" y="4"/>
      <point x="377" y="0"/>
    </contour>
  </outline>
</glyph>
<glyph name="k" format="2">
  <advance width="653"/>
  <unicode hex="006B"/>
  <anchor x="327" y="0" name="bottom"/>
  <anchor x="327" y="754" name="top"/>
  <outline>
    <contour>
      <point x="69" y="0" type="line"/>
      <point x="275" y="0" type="line"/>
      <point x="275" y="564" type="line"/>
      <point x="69" y="564" type="line"/>
    </contour>
    <contour>
      <point x="33" y="0" type="curve"/>
      <point x="323" y="0" type="line"/>
      <point x="329" y="0"/>
      <point x="333" y="4"/>
      <point x="333" y="10" type="curve"/>
      <point x="333" y="35" type="line"/>
      <point x="333" y="41"/>
      <point x="329" y="46"/>
      <point x="324" y="48" type="curve"/>
      <point x="300" y="57" type="line"/>
      <point x="276" y="66"/>
      <point x="275" y="67"/>
      <point x="275" y="97" type="curve"/>
      <point x="275" y="180" type="line"/>
      <point x="69" y="180" type="line"/>
      <point x="69" y="93" type="line"/>
      <point x="69" y="67"/>
      <point x="68" y="66"/>
      <point x="41" y="53" type="curve"/>
      <point x="32" y="49" type="line"/>
      <point x="27" y="47"/>
      <point x="23" y="41"/>
      <point x="23" y="35" type="curve"/>
      <point x="23" y="10" type="line"/>
      <point x="23" y="4"/>
      <point x="27" y="0"/>
    </contour>
    <contour>
      <point x="69" y="563" type="line"/>
      <point x="275" y="563" type="line"/>
      <point x="275" y="748" type="line"/>
      <point x="275" y="768"/>
      <point x="266" y="773"/>
      <point x="242" y="769" type="curve"/>
      <point x="19" y="735" type="line"/>
      <point x="13" y="735"/>
      <point x="9" y="730"/>
      <point x="9" y="724" type="curve"/>
      <point x="9" y="694" type="line"/>
      <point x="9" y="688"/>
      <point x="13" y="683"/>
      <point x="19" y="681" type="curve"/>
      <point x="89" y="662" type="line"/>
      <point x="69" y="717" type="line"/>
    </contour>
    <contour>
      <point x="452" y="0" type="curve"/>
      <point x="650" y="0" type="line"/>
      <point x="656" y="0"/>
      <point x="660" y="4"/>
      <point x="660" y="10" type="curve"/>
      <point x="660" y="35" type="line"/>
      <point x="660" y="41"/>
      <point x="656" y="47"/>
      <point x="651" y="49" type="curve"/>
      <point x="644" y="53" type="line"/>
      <point x="625" y="62"/>
      <point x="609" y="73"/>
      <point x="592" y="96" type="curve"/>
      <point x="405" y="342" type="line"/>
      <point x="281" y="224" type="line"/>
      <point x="436" y="8" type="line"/>
      <point x="440" y="3"/>
      <point x="446" y="0"/>
    </contour>
    <contour>
      <point x="255" y="183" type="line"/>
      <point x="530" y="414" type="line"/>
      <point x="546" y="427"/>
      <point x="563" y="437"/>
      <point x="591" y="445" type="curve"/>
      <point x="615" y="452" type="line"/>
      <point x="621" y="454"/>
      <point x="625" y="459"/>
      <point x="625" y="465" type="curve"/>
      <point x="625" y="490" type="line"/>
      <point x="625" y="496"/>
      <point x="621" y="500"/>
      <point x="615" y="500" type="curve"/>
      <point x="352" y="500" type="line"/>
      <point x="346" y="500"/>
      <point x="342" y="496"/>
      <point x="342" y="490" type="curve"/>
      <point x="342" y="465" type="line"/>
      <point x="342" y="459"/>
      <point x="346" y="454"/>
      <point x="352" y="453" type="curve"/>
      <point x="366" y="449" type="line"/>
      <point x="395" y="443"/>
      <point x="404" y="432"/>
      <point x="374" y="404" type="curve"/>
      <point x="225" y="266" type="line"/>
    </contour>
  </outline>
</glyph>
<glyph name="l" format="2">
  <advance width="343"/>
  <unicode hex="006C"/>
  <anchor x="172" y="0" name="bottom"/>
  <anchor x="172" y="396" name="center"/>
  <anchor x="172" y="754" name="top"/>
  <anchor x="359" y="500" name="topright"/>
  <outline>
    <contour>
      <point x="69" y="0" type="line"/>
      <point x="275" y="0" type="line"/>
      <point x="275" y="564" type="line"/>
      <point x="69" y="564" type="line"/>
    </contour>
    <contour>
      <point x="33" y="0" type="curve"/>
      <point x="323" y="0" type="line"/>
      <point x="329" y="0"/>
      <point x="333" y="4"/>
      <point x="333" y="10" type="curve"/>
      <point x="333" y="35" type="line"/>
      <point x="333" y="41"/>
      <point x="329" y="46"/>
      <point x="324" y="48" type="curve"/>
      <point x="300" y="57" type="line"/>
      <point x="276" y="66"/>
      <point x="275" y="67"/>
      <point x="275" y="97" type="curve"/>
      <point x="275" y="180" type="line"/>
      <point x="69" y="180" type="line"/>
      <point x="69" y="93" type="line"/>
      <point x="69" y="67"/>
      <point x="68" y="66"/>
      <point x="41" y="53" type="curve"/>
      <point x="32" y="49" type="line"/>
      <point x="27" y="47"/>
      <point x="23" y="41"/>
      <point x="23" y="35" type="curve"/>
      <point x="23" y="10" type="line"/>
      <point x="23" y="4"/>
      <point x="27" y="0"/>
    </contour>
    <contour>
      <point x="69" y="563" type="line"/>
      <point x="275" y="563" type="line"/>
      <point x="275" y="748" type="line"/>
      <point x="275" y="768"/>
      <point x="266" y="773"/>
      <point x="242" y="769" type="curve"/>
      <point x="19" y="735" type="line"/>
      <point x="13" y="735"/>
      <point x="9" y="730"/>
      <point x="9" y="724" type="curve"/>
      <point x="9" y="694" type="line"/>
      <point x="9" y="688"/>
      <point x="13" y="683"/>
      <point x="19" y="681" type="curve"/>
      <point x="89" y="662" type="line"/>
      <point x="69" y="717" type="line"/>
    </contour>
  </outline>
</glyph>
<glyph name="m" format="2">
  <advance width="1016"/>
  <unicode hex="006D"/>
  <anchor x="514" y="0" name="bottom"/>
  <anchor x="514" y="500" name="top"/>
  <outline>
    <contour>
      <point x="702" y="0" type="curve"/>
      <point x="991" y="0" type="line"/>
      <point x="997" y="0"/>
      <point x="1001" y="4"/>
      <point x="1001" y="10" type="curve"/>
      <point x="1001" y="35" type="line"/>
      <point x="1001" y="41"/>
      <point x="997" y="46"/>
      <point x="992" y="48" type="curve"/>
      <point x="968" y="57" type="line"/>
      <point x="944" y="66"/>
      <point x="943" y="67"/>
      <point x="943" y="97" type="curve"/>
      <point x="943" y="331" type="line" smooth="yes"/>
      <point x="943" y="463"/>
      <point x="904" y="516"/>
      <point x="799" y="516" type="curve" smooth="yes"/>
      <point x="705" y="516"/>
      <point x="622" y="456"/>
      <point x="584" y="367" type="curve"/>
      <point x="604" y="340" type="line"/>
      <point x="629" y="355"/>
      <point x="655" y="364"/>
      <point x="676" y="364" type="curve" smooth="yes"/>
      <point x="714" y="364"/>
      <point x="737" y="340"/>
      <point x="737" y="301" type="curve" smooth="yes"/>
      <point x="737" y="93" type="line"/>
      <point x="737" y="67"/>
      <point x="736" y="66"/>
      <point x="709" y="53" type="curve"/>
      <point x="701" y="49" type="line"/>
      <point x="696" y="47"/>
      <point x="692" y="41"/>
      <point x="692" y="35" type="curve"/>
      <point x="692" y="10" type="line"/>
      <point x="692" y="4"/>
      <point x="696" y="0"/>
    </contour>
    <contour>
      <point x="47" y="0" type="curve"/>
      <point x="325" y="0" type="line"/>
      <point x="331" y="0"/>
      <point x="335" y="4"/>
      <point x="335" y="10" type="curve"/>
      <point x="335" y="35" type="line"/>
      <point x="335" y="41"/>
      <point x="331" y="47"/>
      <point x="326" y="49" type="curve"/>
      <point x="314" y="55" type="line"/>
      <point x="290" y="66"/>
      <point x="289" y="67"/>
      <point x="289" y="97" type="curve"/>
      <point x="289" y="308" type="line"/>
      <point x="83" y="308" type="line"/>
      <point x="83" y="93" type="line"/>
      <point x="83" y="67"/>
      <point x="82" y="66"/>
      <point x="55" y="53" type="curve"/>
      <point x="46" y="49" type="line"/>
      <point x="41" y="47"/>
      <point x="37" y="41"/>
      <point x="37" y="35" type="curve"/>
      <point x="37" y="10" type="line"/>
      <point x="37" y="4"/>
      <point x="41" y="0"/>
    </contour>
    <contour>
      <point x="375" y="0" type="curve"/>
      <point x="653" y="0" type="line"/>
      <point x="659" y="0"/>
      <point x="663" y="4"/>
      <point x="663" y="10" type="curve"/>
      <point x="663" y="35" type="line"/>
      <point x="663" y="41"/>
      <point x="659" y="47"/>
      <point x="654" y="49" type="curve"/>
      <point x="642" y="55" type="line"/>
      <point x="618" y="66"/>
      <point x="617" y="67"/>
      <point x="617" y="97" type="curve"/>
      <point x="617" y="331" type="line" smooth="yes"/>
      <point x="617" y="462"/>
      <point x="575" y="516"/>
      <point x="472" y="516" type="curve" smooth="yes"/>
      <point x="378" y="516"/>
      <point x="294" y="455"/>
      <point x="258" y="367" type="curve"/>
      <point x="277" y="340" type="line"/>
      <point x="302" y="355"/>
      <point x="329" y="364"/>
      <point x="349" y="364" type="curve" smooth="yes"/>
      <point x="388" y="364"/>
      <point x="411" y="340"/>
      <point x="411" y="301" type="curve" smooth="yes"/>
      <point x="411" y="93" type="line"/>
      <point x="411" y="67"/>
      <point x="410" y="66"/>
      <point x="383" y="53" type="curve"/>
      <point x="374" y="49" type="line"/>
      <point x="369" y="47"/>
      <point x="365" y="41"/>
      <point x="365" y="35" type="curve"/>
      <point x="365" y="10" type="line"/>
      <point x="365" y="4"/>
      <point x="369" y="0"/>
    </contour>
    <contour>
      <point x="83" y="308" type="line"/>
      <point x="289" y="308" type="line"/>
      <point x="289" y="358" type="line"/>
      <point x="277" y="373" type="line"/>
      <point x="277" y="493" type="line"/>
      <point x="277" y="513"/>
      <point x="268" y="518"/>
      <point x="244" y="514" type="curve"/>
      <point x="33" y="481" type="line"/>
      <point x="27" y="480"/>
      <point x="23" y="475"/>
      <point x="23" y="469" type="curve"/>
      <point x="23" y="439" type="line"/>
      <point x="23" y="433"/>
      <point x="27" y="428"/>
      <point x="33" y="426" type="curve"/>
      <point x="103" y="407" type="line"/>
      <point x="83" y="462" type="line"/>
    </contour>
  </outline>
</glyph>
<glyph name="n" format="2">
  <advance width="713"/>
  <unicode hex="006E"/>
  <anchor x="372" y="0" name="bottom"/>
  <anchor x="372" y="500" name="top"/>
  <outline>
    <contour>
      <point x="434" y="301" type="curve" smooth="yes"/>
      <point x="434" y="0" type="line"/>
      <point x="640" y="0" type="line"/>
      <point x="640" y="331" type="line" smooth="yes"/>
      <point x="640" y="462"/>
      <point x="598" y="516"/>
      <point x="483" y="516" type="curve" smooth="yes"/>
      <point x="383" y="516"/>
      <point x="295" y="454"/>
      <point x="258" y="367" type="curve"/>
      <point x="277" y="340" type="line"/>
      <point x="307" y="355"/>
      <point x="336" y="364"/>
      <point x="360" y="364" type="curve" smooth="yes"/>
      <point x="406" y="364"/>
      <point x="434" y="341"/>
    </contour>
    <contour>
      <point x="83" y="0" type="line"/>
      <point x="289" y="0" type="line"/>
      <point x="289" y="308" type="line"/>
      <point x="83" y="308" type="line"/>
    </contour>
    <contour>
      <point x="47" y="0" type="curve"/>
      <point x="337" y="0" type="line"/>
      <point x="343" y="0"/>
      <point x="347" y="4"/>
      <point x="347" y="10" type="curve"/>
      <point x="347" y="35" type="line"/>
      <point x="347" y="41"/>
      <point x="343" y="46"/>
      <point x="338" y="48" type="curve"/>
      <point x="314" y="57" type="line"/>
      <point x="290" y="66"/>
      <point x="289" y="67"/>
      <point x="289" y="97" type="curve"/>
      <point x="289" y="180" type="line"/>
      <point x="83" y="180" type="line"/>
      <point x="83" y="93" type="line"/>
      <point x="83" y="67"/>
      <point x="82" y="66"/>
      <point x="55" y="53" type="curve"/>
      <point x="46" y="49" type="line"/>
      <point x="41" y="47"/>
      <point x="37" y="41"/>
      <point x="37" y="35" type="curve"/>
      <point x="37" y="10" type="line"/>
      <point x="37" y="4"/>
      <point x="41" y="0"/>
    </contour>
    <contour>
      <point x="398" y="0" type="curve"/>
      <point x="688" y="0" type="line"/>
      <point x="694" y="0"/>
      <point x="698" y="4"/>
      <point x="698" y="10" type="curve"/>
      <point x="698" y="35" type="line"/>
      <point x="698" y="41"/>
      <point x="694" y="46"/>
      <point x="689" y="48" type="curve"/>
      <point x="665" y="57" type="line"/>
      <point x="641" y="66"/>
      <point x="640" y="67"/>
      <point x="640" y="97" type="curve"/>
      <point x="640" y="180" type="line"/>
      <point x="434" y="180" type="line"/>
      <point x="434" y="93" type="line"/>
      <point x="434" y="67"/>
      <point x="433" y="66"/>
      <point x="406" y="53" type="curve"/>
      <point x="397" y="49" type="line"/>
      <point x="392" y="47"/>
      <point x="388" y="41"/>
      <point x="388" y="35" type="curve"/>
      <point x="388" y="10" type="line"/>
      <point x="388" y="4"/>
      <point x="392" y="0"/>
    </contour>
    <contour>
      <point x="83" y="308" type="line"/>
      <point x="289" y="308" type="line"/>
      <point x="289" y="358" type="line"/>
      <point x="277" y="373" type="line"/>
      <point x="277" y="493" type="line"/>
      <point x="277" y="513"/>
      <point x="268" y="518"/>
      <point x="244" y="514" type="curve"/>
      <point x="33" y="481" type="line"/>
      <point x="27" y="480"/>
      <point x="23" y="475"/>
      <point x="23" y="469" type="curve"/>
      <point x="23" y="439" type="line"/>
      <point x="23" y="433"/>
      <point x="27" y="428"/>
      <point x="33" y="426" type="curve"/>
      <point x="103" y="407" type="line"/>
      <point x="83" y="462" type="line"/>
    </contour>
  </outline>
</glyph>
<glyph name="o" format="2">
  <advance width="652"/>
  <unicode hex="006F"/>
  <anchor x="327" y="0" name="bottom"/>
  <anchor x="327" y="251" name="center"/>
  <anchor x="417" y="0" name="ogonek"/>
  <anchor x="327" y="500" name="top"/>
  <anchor x="580" y="500" name="topright"/>
  <outline>
    <contour>
      <point x="325" y="-16" type="curve" smooth="yes"/>
      <point x="502" y="-16"/>
      <point x="622" y="92"/>
      <point x="622" y="251" type="curve" smooth="yes"/>
      <point x="622" y="408"/>
      <point x="501" y="516"/>
      <point x="325" y="516" type="curve" smooth="yes"/>
      <point x="151" y="516"/>
      <point x="30" y="407"/>
      <point x="30" y="251" type="curve" smooth="yes"/>
      <point x="30" y="93"/>
      <point x="151" y="-16"/>
    </contour>
    <contour>
      <point x="340" y="94" type="curve" smooth="yes"/>
      <point x="283" y="94"/>
      <point x="241" y="180"/>
      <point x="241" y="295" type="curve" smooth="yes"/>
      <point x="241" y="366"/>
      <point x="266" y="406"/>
      <point x="311" y="406" type="curve" smooth="yes"/>
      <point x="369" y="406"/>
      <point x="411" y="320"/>
      <point x="411" y="202" type="curve" smooth="yes"/>
      <point x="411" y="135"/>
      <point x="384" y="94"/>
    </contour>
  </outline>
</glyph>
<glyph name="p" format="2">
  <advance width="688"/>
  <unicode hex="0070"/>
  <outline>
    <contour>
      <point x="73" y="-205" type="line"/>
      <point x="279" y="-205" type="line"/>
      <point x="279" y="309" type="line"/>
      <point x="73" y="309" type="line"/>
    </contour>
    <contour>
      <point x="36" y="-205" type="curve"/>
      <point x="326" y="-205" type="line"/>
      <point x="332" y="-205"/>
      <point x="336" y="-201"/>
      <point x="336" y="-195" type="curve"/>
      <point x="336" y="-170" type="line"/>
      <point x="336" y="-164"/>
      <point x="332" y="-159"/>
      <point x="327" y="-157" type="curve"/>
      <point x="303" y="-148" type="line"/>
      <point x="279" y="-139"/>
      <point x="278" y="-138"/>
      <point x="278" y="-108" type="curve"/>
      <point x="278" y="-25" type="line"/>
      <point x="72" y="-25" type="line"/>
      <point x="72" y="-112" type="line"/>
      <point x="72" y="-138"/>
      <point x="71" y="-139"/>
      <point x="44" y="-152" type="curve"/>
      <point x="35" y="-156" type="line"/>
      <point x="30" y="-158"/>
      <point x="26" y="-164"/>
      <point x="26" y="-170" type="curve"/>
      <point x="26" y="-195" type="line"/>
      <point x="26" y="-201"/>
      <point x="30" y="-205"/>
    </contour>
    <contour>
      <point x="245" y="108" type="curve"/>
      <point x="198" y="59" type="line"/>
      <point x="262" y="3"/>
      <point x="311" y="-16"/>
      <point x="388" y="-16" type="curve" smooth="yes"/>
      <point x="557" y="-16"/>
      <point x="658" y="91"/>
      <point x="658" y="269" type="curve" smooth="yes"/>
      <point x="658" y="419"/>
      <point x="577" y="516"/>
      <point x="452" y="516" type="curve" smooth="yes"/>
      <point x="361" y="516"/>
      <point x="282" y="456"/>
      <point x="254" y="367" type="curve"/>
      <point x="266" y="339" type="line"/>
      <point x="298" y="360"/>
      <point x="328" y="371"/>
      <point x="353" y="371" type="curve" smooth="yes"/>
      <point x="416" y="371"/>
      <point x="452" y="327"/>
      <point x="452" y="248" type="curve" smooth="yes"/>
      <point x="452" y="154"/>
      <point x="407" y="99"/>
      <point x="329" y="99" type="curve" smooth="yes"/>
      <point x="282" y="99"/>
      <point x="258" y="104"/>
    </contour>
    <contour>
      <point x="73" y="309" type="line"/>
      <point x="279" y="309" type="line"/>
      <point x="279" y="359" type="line"/>
      <point x="267" y="374" type="line"/>
      <point x="267" y="494" type="line"/>
      <point x="267" y="514"/>
      <point x="258" y="519"/>
      <point x="234" y="515" type="curve"/>
      <point x="23" y="482" type="line"/>
      <point x="17" y="481"/>
      <point x="13" y="476"/>
      <point x="13" y="470" type="curve"/>
      <point x="13" y="440" type="line"/>
      <point x="13" y="434"/>
      <point x="17" y="429"/>
      <point x="23" y="427" type="curve"/>
      <point x="93" y="408" type="line"/>
      <point x="73" y="463" type="line"/>
    </contour>
  </outline>
</glyph>
<glyph name="q" format="2">
  <advance width="665"/>
  <unicode hex="0071"/>
  <outline>
    <contour>
      <point x="614" y="-64" type="line"/>
      <point x="614" y="506" type="line"/>
      <point x="614" y="512"/>
      <point x="610" y="516"/>
      <point x="604" y="516" type="curve"/>
      <point x="553" y="516" type="line"/>
      <point x="547" y="516"/>
      <point x="540" y="513"/>
      <point x="535" y="510" type="curve"/>
      <point x="408" y="405" type="line"/>
      <point x="408" y="-64" type="line"/>
    </contour>
    <contour>
      <point x="443" y="392" type="curve"/>
      <point x="490" y="441" type="line"/>
      <point x="426" y="497"/>
      <point x="377" y="516"/>
      <point x="300" y="516" type="curve" smooth="yes"/>
      <point x="131" y="516"/>
      <point x="30" y="409"/>
      <point x="30" y="231" type="curve" smooth="yes"/>
      <point x="30" y="81"/>
      <point x="111" y="-16"/>
      <point x="236" y="-16" type="curve" smooth="yes"/>
      <point x="327" y="-16"/>
      <point x="406" y="44"/>
      <point x="434" y="133" type="curve"/>
      <point x="422" y="161" type="line"/>
      <point x="390" y="140"/>
      <point x="360" y="129"/>
      <point x="335" y="129" type="curve" smooth="yes"/>
      <point x="272" y="129"/>
      <point x="236" y="173"/>
      <point x="236" y="252" type="curve" smooth="yes"/>
      <point x="236" y="346"/>
      <point x="281" y="401"/>
      <point x="359" y="401" type="curve" smooth="yes"/>
      <point x="406" y="401"/>
      <point x="430" y="396"/>
    </contour>
    <contour>
      <point x="372" y="-205" type="curve"/>
      <point x="662" y="-205" type="line"/>
      <point x="668" y="-205"/>
      <point x="672" y="-201"/>
      <point x="672" y="-195" type="curve"/>
      <point x="672" y="-170" type="line"/>
      <point x="672" y="-164"/>
      <point x="668" y="-159"/>
      <point x="663" y="-157" type="curve"/>
      <point x="639" y="-148" type="line"/>
      <point x="615" y="-139"/>
      <point x="614" y="-138"/>
      <point x="614" y="-108" type="curve"/>
      <point x="614" y="-25" type="line"/>
      <point x="408" y="-25" type="line"/>
      <point x="408" y="-112" type="line"/>
      <point x="408" y="-138"/>
      <point x="407" y="-139"/>
      <point x="380" y="-152" type="curve"/>
      <point x="371" y="-156" type="line"/>
      <point x="366" y="-158"/>
      <point x="362" y="-164"/>
      <point x="362" y="-170" type="curve"/>
      <point x="362" y="-195" type="line"/>
      <point x="362" y="-201"/>
      <point x="366" y="-205"/>
    </contour>
  </outline>
</glyph>
<glyph name="s" format="2">
  <advance width="524"/>
  <unicode hex="0073"/>
  <anchor x="263" y="0" name="bottom"/>
  <anchor x="263" y="500" name="top"/>
  <anchor x="169" y="500" name="top_acutedot"/>
  <outline>
    <contour>
      <point x="328" y="312" type="curve" smooth="yes"/>
      <point x="245" y="341"/>
      <point x="222" y="357"/>
      <point x="222" y="383" type="curve" smooth="yes"/>
      <point x="222" y="409"/>
      <point x="248" y="425"/>
      <point x="290" y="425" type="curve" smooth="yes"/>
      <point x="351" y="425"/>
      <point x="380" y="398"/>
      <point x="389" y="354" type="curve" smooth="yes"/>
      <point x="391" y="347" type="line"/>
      <point x="392" y="341"/>
      <point x="397" y="337"/>
      <point x="403" y="338" type="curve"/>
      <point x="436" y="339" type="line"/>
      <point x="442" y="340"/>
      <point x="446" y="344"/>
      <point x="446" y="350" type="curve"/>
      <point x="449" y="473" type="line"/>
      <point x="449" y="479"/>
      <point x="445" y="485"/>
      <point x="440" y="487" type="curve"/>
      <point x="407" y="502"/>
      <point x="352" y="516"/>
      <point x="284" y="516" type="curve" smooth="yes"/>
      <point x="140" y="516"/>
      <point x="48" y="451"/>
      <point x="48" y="349" type="curve" smooth="yes"/>
      <point x="48" y="270"/>
      <point x="84" y="235"/>
      <point x="219" y="184" type="curve" smooth="yes"/>
      <point x="303" y="152"/>
      <point x="324" y="138"/>
      <point x="324" y="114" type="curve" smooth="yes"/>
      <point x="324" y="89"/>
      <point x="296" y="72"/>
      <point x="252" y="72" type="curve" smooth="yes"/>
      <point x="190" y="72"/>
      <point x="142" y="111"/>
      <point x="112" y="175" type="curve" smooth="yes"/>
      <point x="108" y="184" type="line"/>
      <point x="106" y="189"/>
      <point x="100" y="193"/>
      <point x="94" y="192" type="curve"/>
      <point x="63" y="191" type="line"/>
      <point x="57" y="190"/>
      <point x="53" y="186"/>
      <point x="53" y="180" type="curve"/>
      <point x="61" y="29" type="line"/>
      <point x="61" y="23"/>
      <point x="65" y="18"/>
      <point x="70" y="16" type="curve"/>
      <point x="111" y="1"/>
      <point x="173" y="-16"/>
      <point x="253" y="-16" type="curve" smooth="yes"/>
      <point x="391" y="-16"/>
      <point x="489" y="56"/>
      <point x="489" y="158" type="curve" smooth="yes"/>
      <point x="489" y="233"/>
      <point x="452" y="269"/>
    </contour>
  </outline>
</glyph>
<glyph name="t" format="2">
  <advance width="418"/>
  <unicode hex="0074"/>
  <anchor x="233" y="0" name="bottom"/>
  <anchor x="210" y="275" name="center"/>
  <anchor x="204" y="589" name="top"/>
  <anchor x="354" y="500" name="topright"/>
  <outline>
    <contour>
      <point x="219" y="-16" type="curve" smooth="yes"/>
      <point x="283" y="-16"/>
      <point x="366" y="15"/>
      <point x="403" y="47" type="curve"/>
      <point x="407" y="51"/>
      <point x="410" y="58"/>
      <point x="409" y="64" type="curve"/>
      <point x="406" y="103" type="line"/>
      <point x="405" y="109"/>
      <point x="401" y="112"/>
      <point x="395" y="111" type="curve"/>
      <point x="377" y="108"/>
      <point x="362" y="107"/>
      <point x="351" y="107" type="curve" smooth="yes"/>
      <point x="290" y="107"/>
      <point x="269" y="124"/>
      <point x="269" y="175" type="curve" smooth="yes"/>
      <point x="269" y="627" type="line"/>
      <point x="269" y="633"/>
      <point x="265" y="637"/>
      <point x="259" y="638" type="curve"/>
      <point x="215" y="639"/>
      <point x="124" y="626"/>
      <point x="82" y="614" type="curve"/>
      <point x="76" y="612"/>
      <point x="72" y="607"/>
      <point x="72" y="601" type="curve"/>
      <point x="72" y="500" type="line"/>
      <point x="63" y="449" type="line"/>
      <point x="63" y="170" type="line" smooth="yes"/>
      <point x="63" y="36"/>
      <point x="107" y="-16"/>
    </contour>
    <contour>
      <point x="11" y="420" type="curve"/>
      <point x="392" y="420" type="line"/>
      <point x="398" y="420"/>
      <point x="403" y="424"/>
      <point x="405" y="430" type="curve"/>
      <point x="410" y="453"/>
      <point x="411" y="475"/>
      <point x="410" y="497" type="curve"/>
      <point x="410" y="503"/>
      <point x="406" y="507"/>
      <point x="400" y="506" type="curve"/>
      <point x="318" y="500" type="line"/>
      <point x="72" y="500" type="line"/>
      <point x="26" y="492" type="line"/>
      <point x="20" y="491"/>
      <point x="15" y="486"/>
      <point x="14" y="480" type="curve"/>
      <point x="3" y="430" type="line"/>
      <point x="2" y="424"/>
      <point x="5" y="420"/>
    </contour>
  </outline>
</glyph>
<glyph name="u" format="2">
  <advance width="695"/>
  <unicode hex="0075"/>
  <anchor x="348" y="0" name="bottom"/>
  <anchor x="517" y="0" name="ogonek"/>
  <anchor x="343" y="500" name="top"/>
  <anchor x="667" y="500" name="topright"/>
  <outline>
    <contour>
      <point x="618" y="162" type="line"/>
      <point x="412" y="162" type="line"/>
      <point x="412" y="141" type="line"/>
      <point x="424" y="124" type="line"/>
      <point x="424" y="1" type="line" smooth="yes"/>
      <point x="424" y="-12"/>
      <point x="430" y="-17"/>
      <point x="452" y="-14" type="curve" smooth="yes"/>
      <point x="670" y="10" type="line"/>
      <point x="676" y="11"/>
      <point x="680" y="15"/>
      <point x="680" y="21" type="curve"/>
      <point x="680" y="47" type="line"/>
      <point x="680" y="53"/>
      <point x="676" y="59"/>
      <point x="671" y="61" type="curve"/>
      <point x="599" y="93" type="line"/>
      <point x="618" y="55" type="line"/>
    </contour>
    <contour>
      <point x="224" y="-16" type="curve" smooth="yes"/>
      <point x="334" y="-16"/>
      <point x="415" y="54"/>
      <point x="448" y="133" type="curve"/>
      <point x="430" y="161" type="line"/>
      <point x="397" y="142"/>
      <point x="369" y="133"/>
      <point x="340" y="133" type="curve" smooth="yes"/>
      <point x="294" y="133"/>
      <point x="273" y="154"/>
      <point x="273" y="199" type="curve" smooth="yes"/>
      <point x="273" y="308" type="line"/>
      <point x="67" y="308" type="line"/>
      <point x="67" y="169" type="line" smooth="yes"/>
      <point x="67" y="37"/>
      <point x="112" y="-16"/>
    </contour>
    <contour>
      <point x="412" y="162" type="line"/>
      <point x="618" y="162" type="line"/>
      <point x="618" y="308" type="line"/>
      <point x="412" y="308" type="line"/>
    </contour>
    <contour>
      <point x="67" y="308" type="line"/>
      <point x="273" y="308" type="line"/>
      <point x="273" y="493" type="line"/>
      <point x="273" y="513"/>
      <point x="264" y="518"/>
      <point x="240" y="514" type="curve"/>
      <point x="17" y="480" type="line"/>
      <point x="11" y="480"/>
      <point x="7" y="475"/>
      <point x="7" y="469" type="curve"/>
      <point x="7" y="439" type="line"/>
      <point x="7" y="433"/>
      <point x="11" y="428"/>
      <point x="17" y="426" type="curve"/>
      <point x="87" y="407" type="line"/>
      <point x="67" y="462" type="line"/>
    </contour>
    <contour>
      <point x="412" y="308" type="line"/>
      <point x="618" y="308" type="line"/>
      <point x="618" y="493" type="line"/>
      <point x="618" y="513"/>
      <point x="609" y="518"/>
      <point x="585" y="514" type="curve"/>
      <point x="362" y="480" type="line"/>
      <point x="356" y="480"/>
      <point x="352" y="475"/>
      <point x="352" y="469" type="curve"/>
      <point x="352" y="439" type="line"/>
      <point x="352" y="433"/>
      <point x="356" y="428"/>
      <point x="362" y="426" type="curve"/>
      <point x="432" y="407" type="line"/>
      <point x="412" y="462" type="line"/>
    </contour>
  </outline>
</glyph>
<glyph name="v" format="2">
  <advance width="606"/>
  <unicode hex="0076"/>
  <outline>
    <contour>
      <point x="264" y="-6" type="curve"/>
      <point x="351" y="-6" type="line"/>
      <point x="357" y="-6"/>
      <point x="363" y="-2"/>
      <point x="365" y="3" type="curve"/>
      <point x="545" y="413" type="line"/>
      <point x="553" y="432"/>
      <point x="566" y="445"/>
      <point x="594" y="452" type="curve"/>
      <point x="595" y="453" type="line"/>
      <point x="601" y="454"/>
      <point x="605" y="459"/>
      <point x="605" y="465" type="curve"/>
      <point x="605" y="490" type="line"/>
      <point x="605" y="496"/>
      <point x="601" y="500"/>
      <point x="595" y="500" type="curve"/>
      <point x="386" y="500" type="line"/>
      <point x="380" y="500"/>
      <point x="376" y="496"/>
      <point x="376" y="490" type="curve"/>
      <point x="376" y="465" type="line"/>
      <point x="376" y="459"/>
      <point x="380" y="455"/>
      <point x="386" y="454" type="curve"/>
      <point x="402" y="452" type="line"/>
      <point x="432" y="450"/>
      <point x="445" y="438"/>
      <point x="431" y="399" type="curve"/>
      <point x="298" y="49" type="line"/>
      <point x="366" y="137" type="line"/>
      <point x="351" y="188"/>
      <point x="336" y="237"/>
      <point x="316" y="288" type="curve" smooth="yes"/>
      <point x="269" y="404" type="line"/>
      <point x="257" y="432"/>
      <point x="262" y="449"/>
      <point x="303" y="453" type="curve"/>
      <point x="314" y="454" type="line"/>
      <point x="320" y="455"/>
      <point x="324" y="459"/>
      <point x="324" y="465" type="curve"/>
      <point x="324" y="490" type="line"/>
      <point x="324" y="496"/>
      <point x="320" y="500"/>
      <point x="314" y="500" type="curve"/>
      <point x="-2" y="500" type="line"/>
      <point x="-8" y="500"/>
      <point x="-12" y="496"/>
      <point x="-12" y="490" type="curve"/>
      <point x="-12" y="465" type="line"/>
      <point x="-12" y="459"/>
      <point x="-8" y="454"/>
      <point x="-3" y="452" type="curve"/>
      <point x="-7" y="453" type="line"/>
      <point x="13" y="446"/>
      <point x="28" y="435"/>
      <point x="41" y="409" type="curve"/>
      <point x="249" y="3" type="line"/>
      <point x="252" y="-2"/>
      <point x="258" y="-6"/>
    </contour>
  </outline>
</glyph>
<glyph name="w" format="2">
  <advance width="867"/>
  <unicode hex="0077"/>
  <anchor x="464" y="0" name="bottom"/>
  <anchor x="467" y="500" name="top"/>
  <outline>
    <contour>
      <point x="226" y="-6" type="curve"/>
      <point x="313" y="-6" type="line"/>
      <point x="319" y="-6"/>
      <point x="324" y="-2"/>
      <point x="326" y="3" type="curve"/>
      <point x="471" y="396" type="line"/>
      <point x="416" y="333" type="line"/>
      <point x="542" y="3" type="line"/>
      <point x="545" y="-2"/>
      <point x="550" y="-6"/>
      <point x="556" y="-6" type="curve"/>
      <point x="643" y="-6" type="line"/>
      <point x="649" y="-6"/>
      <point x="654" y="-2"/>
      <point x="656" y="3" type="curve"/>
      <point x="801" y="411" type="line"/>
      <point x="808" y="431"/>
      <point x="820" y="444"/>
      <point x="848" y="451" type="curve"/>
      <point x="856" y="453" type="line"/>
      <point x="862" y="454"/>
      <point x="866" y="459"/>
      <point x="866" y="465" type="curve"/>
      <point x="866" y="490" type="line"/>
      <point x="866" y="496"/>
      <point x="862" y="500"/>
      <point x="856" y="500" type="curve"/>
      <point x="647" y="500" type="line"/>
      <point x="641" y="500"/>
      <point x="637" y="496"/>
      <point x="637" y="490" type="curve"/>
      <point x="637" y="465" type="line"/>
      <point x="637" y="459"/>
      <point x="641" y="455"/>
      <point x="647" y="454" type="curve"/>
      <point x="660" y="453" type="line"/>
      <point x="690" y="450"/>
      <point x="704" y="437"/>
      <point x="692" y="398" type="curve"/>
      <point x="589" y="49" type="line"/>
      <point x="642" y="152" type="line"/>
      <point x="633" y="198"/>
      <point x="622" y="243"/>
      <point x="605" y="289" type="curve" smooth="yes"/>
      <point x="530" y="491" type="line"/>
      <point x="528" y="496"/>
      <point x="523" y="500"/>
      <point x="517" y="500" type="curve"/>
      <point x="429" y="500" type="line"/>
      <point x="423" y="500"/>
      <point x="418" y="496"/>
      <point x="416" y="491" type="curve"/>
      <point x="259" y="49" type="line"/>
      <point x="324" y="149" type="line"/>
      <point x="317" y="196"/>
      <point x="307" y="242"/>
      <point x="293" y="289" type="curve" smooth="yes"/>
      <point x="257" y="401" type="line"/>
      <point x="248" y="430"/>
      <point x="254" y="447"/>
      <point x="295" y="452" type="curve"/>
      <point x="314" y="454" type="line"/>
      <point x="320" y="455"/>
      <point x="324" y="459"/>
      <point x="324" y="465" type="curve"/>
      <point x="324" y="490" type="line"/>
      <point x="324" y="496"/>
      <point x="320" y="500"/>
      <point x="314" y="500" type="curve"/>
      <point x="-2" y="500" type="line"/>
      <point x="-8" y="500"/>
      <point x="-12" y="496"/>
      <point x="-12" y="490" type="curve"/>
      <point x="-12" y="465" type="line"/>
      <point x="-12" y="459"/>
      <point x="-8" y="454"/>
      <point x="-2" y="452" type="curve"/>
      <point x="2" y="451" type="line"/>
      <point x="23" y="444"/>
      <point x="37" y="434"/>
      <point x="48" y="407" type="curve"/>
      <point x="212" y="3" type="line"/>
      <point x="214" y="-2"/>
      <point x="220" y="-6"/>
    </contour>
  </outline>
</glyph>
<glyph name="x" format="2">
  <advance width="602"/>
  <unicode hex="0078"/>
  <outline>
    <contour>
      <point x="293" y="0" type="curve"/>
      <point x="602" y="0" type="line"/>
      <point x="608" y="0"/>
      <point x="612" y="4"/>
      <point x="612" y="10" type="curve"/>
      <point x="612" y="35" type="line"/>
      <point x="612" y="41"/>
      <point x="608" y="47"/>
      <point x="603" y="49" type="curve"/>
      <point x="593" y="53" type="line"/>
      <point x="574" y="61"/>
      <point x="558" y="72"/>
      <point x="540" y="95" type="curve"/>
      <point x="290" y="405" type="line"/>
      <point x="272" y="429"/>
      <point x="268" y="444"/>
      <point x="296" y="450" type="curve"/>
      <point x="306" y="453" type="line"/>
      <point x="312" y="454"/>
      <point x="316" y="459"/>
      <point x="316" y="465" type="curve"/>
      <point x="316" y="490" type="line"/>
      <point x="316" y="496"/>
      <point x="312" y="500"/>
      <point x="306" y="500" type="curve"/>
      <point x="0" y="500" type="line"/>
      <point x="-6" y="500"/>
      <point x="-10" y="496"/>
      <point x="-10" y="490" type="curve"/>
      <point x="-10" y="465" type="line"/>
      <point x="-10" y="459"/>
      <point x="-6" y="453"/>
      <point x="-1" y="451" type="curve"/>
      <point x="31" y="438" type="line"/>
      <point x="37" y="435"/>
      <point x="45" y="428"/>
      <point x="63" y="405" type="curve"/>
      <point x="309" y="100" type="line"/>
      <point x="327" y="76"/>
      <point x="331" y="61"/>
      <point x="303" y="52" type="curve"/>
      <point x="293" y="48" type="line"/>
      <point x="287" y="46"/>
      <point x="283" y="41"/>
      <point x="283" y="35" type="curve"/>
      <point x="283" y="10" type="line"/>
      <point x="283" y="4"/>
      <point x="287" y="0"/>
    </contour>
    <contour>
      <point x="3" y="0" type="curve"/>
      <point x="218" y="0" type="line"/>
      <point x="224" y="0"/>
      <point x="228" y="4"/>
      <point x="228" y="10" type="curve"/>
      <point x="228" y="35" type="line"/>
      <point x="228" y="41"/>
      <point x="224" y="46"/>
      <point x="218" y="48" type="curve"/>
      <point x="221" y="47" type="line"/>
      <point x="192" y="55"/>
      <point x="183" y="68"/>
      <point x="208" y="100" type="curve"/>
      <point x="339" y="270" type="line"/>
      <point x="244" y="270" type="line"/>
      <point x="83" y="91" type="line"/>
      <point x="69" y="75"/>
      <point x="56" y="65"/>
      <point x="40" y="59" type="curve"/>
      <point x="3" y="48" type="line"/>
      <point x="-3" y="46"/>
      <point x="-7" y="41"/>
      <point x="-7" y="35" type="curve"/>
      <point x="-7" y="10" type="line"/>
      <point x="-7" y="4"/>
      <point x="-3" y="0"/>
    </contour>
    <contour>
      <point x="384" y="399" type="curve"/>
      <point x="280" y="270" type="line"/>
      <point x="381" y="270" type="line"/>
      <point x="513" y="410" type="line"/>
      <point x="528" y="425"/>
      <point x="544" y="437"/>
      <point x="571" y="446" type="curve"/>
      <point x="590" y="452" type="line"/>
      <point x="595" y="454"/>
      <point x="599" y="459"/>
      <point x="599" y="465" type="curve"/>
      <point x="599" y="490" type="line"/>
      <point x="599" y="496"/>
      <point x="595" y="500"/>
      <point x="589" y="500" type="curve"/>
      <point x="374" y="500" type="line"/>
      <point x="368" y="500"/>
      <point x="364" y="496"/>
      <point x="364" y="490" type="curve"/>
      <point x="364" y="465" type="line"/>
      <point x="364" y="459"/>
      <point x="368" y="454"/>
      <point x="374" y="452" type="curve"/>
      <point x="371" y="453" type="line"/>
      <point x="400" y="445"/>
      <point x="409" y="431"/>
    </contour>
  </outline>
</glyph>
<glyph name="y" format="2">
  <advance width="565"/>
  <unicode hex="0079"/>
  <anchor x="438" y="0" name="bottom"/>
  <anchor x="311" y="500" name="top"/>
  <outline>
    <contour>
      <point x="131" y="-221" type="curve" smooth="yes"/>
      <point x="203" y="-221"/>
      <point x="244" y="-182"/>
      <point x="303" y="-58" type="curve" smooth="yes"/>
      <point x="526" y="418" type="line"/>
      <point x="535" y="437"/>
      <point x="548" y="449"/>
      <point x="577" y="453" type="curve"/>
      <point x="578" y="454" type="line"/>
      <point x="584" y="454"/>
      <point x="588" y="459"/>
      <point x="588" y="465" type="curve"/>
      <point x="588" y="490" type="line"/>
      <point x="588" y="496"/>
      <point x="584" y="500"/>
      <point x="578" y="500" type="curve"/>
      <point x="358" y="500" type="line"/>
      <point x="352" y="500"/>
      <point x="348" y="496"/>
      <point x="348" y="490" type="curve"/>
      <point x="348" y="465" type="line"/>
      <point x="348" y="459"/>
      <point x="352" y="455"/>
      <point x="358" y="454" type="curve"/>
      <point x="389" y="452" type="line"/>
      <point x="419" y="449"/>
      <point x="432" y="438"/>
      <point x="415" y="400" type="curve"/>
      <point x="226" y="-33" type="line" smooth="yes"/>
      <point x="211" y="-67"/>
      <point x="189" y="-90"/>
      <point x="146" y="-90" type="curve" smooth="yes"/>
      <point x="121" y="-90"/>
      <point x="101" y="-84"/>
      <point x="75" y="-76" type="curve"/>
      <point x="70" y="-74"/>
      <point x="64" y="-77"/>
      <point x="61" y="-82" type="curve"/>
      <point x="54" y="-98"/>
      <point x="48" y="-118"/>
      <point x="48" y="-148" type="curve" smooth="yes"/>
      <point x="48" y="-190"/>
      <point x="81" y="-221"/>
    </contour>
    <contour>
      <point x="20" y="415" type="curve"/>
      <point x="251" y="-33" type="line"/>
      <point x="371" y="137" type="line"/>
      <point x="256" y="405" type="line"/>
      <point x="245" y="432"/>
      <point x="249" y="449"/>
      <point x="290" y="453" type="curve"/>
      <point x="304" y="454" type="line"/>
      <point x="310" y="455"/>
      <point x="314" y="459"/>
      <point x="314" y="465" type="curve"/>
      <point x="314" y="490" type="line"/>
      <point x="314" y="496"/>
      <point x="310" y="500"/>
      <point x="304" y="500" type="curve"/>
      <point x="-28" y="500" type="line"/>
      <point x="-34" y="500"/>
      <point x="-38" y="496"/>
      <point x="-38" y="490" type="curve"/>
      <point x="-38" y="465" type="line"/>
      <point x="-38" y="459"/>
      <point x="-34" y="454"/>
      <point x="-28" y="453" type="curve"/>
      <point x="-23" y="452" type="line"/>
      <point x="-6" y="450"/>
      <point x="7" y="441"/>
    </contour>
  </outline>
</glyph>
<glyph name="z" format="2">
  <advance width="541"/>
  <unicode hex="007A"/>
  <anchor x="271" y="0" name="bottom"/>
  <anchor x="271" y="251" name="center"/>
  <anchor x="271" y="500" name="top"/>
  <outline>
    <contour>
      <point x="450" y="167" type="curve"/>
      <point x="418" y="111" type="line"/>
      <point x="408" y="92"/>
      <point x="394" y="82"/>
      <point x="365" y="82" type="curve"/>
      <point x="206" y="82" type="line"/>
      <point x="243" y="53" type="line"/>
      <point x="516" y="456" type="line"/>
      <point x="520" y="461"/>
      <point x="521" y="468"/>
      <point x="520" y="474" type="curve"/>
      <point x="516" y="490" type="line"/>
      <point x="515" y="496"/>
      <point x="510" y="500"/>
      <point x="504" y="500" type="curve"/>
      <point x="59" y="500" type="line"/>
      <point x="53" y="500"/>
      <point x="49" y="496"/>
      <point x="49" y="490" type="curve"/>
      <point x="49" y="324" type="line"/>
      <point x="49" y="318"/>
      <point x="53" y="314"/>
      <point x="59" y="314" type="curve"/>
      <point x="83" y="312" type="line"/>
      <point x="89" y="312"/>
      <point x="95" y="316"/>
      <point x="97" y="321" type="curve"/>
      <point x="131" y="388" type="line"/>
      <point x="141" y="407"/>
      <point x="154" y="418"/>
      <point x="183" y="418" type="curve"/>
      <point x="337" y="418" type="line"/>
      <point x="306" y="467" type="line"/>
      <point x="20" y="44" type="line"/>
      <point x="16" y="39"/>
      <point x="15" y="32"/>
      <point x="16" y="26" type="curve"/>
      <point x="21" y="10" type="line"/>
      <point x="22" y="4"/>
      <point x="27" y="0"/>
      <point x="33" y="0" type="curve"/>
      <point x="488" y="0" type="line"/>
      <point x="494" y="0"/>
      <point x="498" y="4"/>
      <point x="498" y="10" type="curve"/>
      <point x="498" y="159" type="line"/>
      <point x="498" y="165"/>
      <point x="494" y="170"/>
      <point x="488" y="171" type="curve"/>
      <point x="465" y="174" type="line"/>
      <point x="459" y="175"/>
      <point x="453" y="173"/>
    </contour>
  </outline>
</glyph>
<glyph name="braceleft" format="2">
  <advance width="554"/>
  <unicode hex="007B"/>
  <outline>
    <contour>
      <point x="459" y="-120" type="curve"/>
      <point x="467" y="-83" type="line"/>
      <point x="468" y="-77"/>
      <point x="465" y="-72"/>
      <point x="459" y="-71" type="curve"/>
      <point x="383" y="-59"/>
      <point x="354" y="-33"/>
      <point x="354" y="25" type="curve" smooth="yes"/>
      <point x="354" y="66"/>
      <point x="361" y="137"/>
      <point x="361" y="198" type="curve" smooth="yes"/>
      <point x="361" y="306"/>
      <point x="247" y="353"/>
      <point x="165" y="353" type="curve"/>
      <point x="165" y="340" type="line"/>
      <point x="247" y="340"/>
      <point x="361" y="387"/>
      <point x="361" y="495" type="curve" smooth="yes"/>
      <point x="361" y="555"/>
      <point x="354" y="628"/>
      <point x="354" y="669" type="curve" smooth="yes"/>
      <point x="354" y="727"/>
      <point x="383" y="752"/>
      <point x="459" y="764" type="curve"/>
      <point x="465" y="765"/>
      <point x="468" y="770"/>
      <point x="467" y="776" type="curve"/>
      <point x="459" y="814" type="line"/>
      <point x="458" y="820"/>
      <point x="453" y="824"/>
      <point x="447" y="824" type="curve"/>
      <point x="273" y="817"/>
      <point x="173" y="786"/>
      <point x="173" y="669" type="curve" smooth="yes"/>
      <point x="173" y="628"/>
      <point x="181" y="555"/>
      <point x="181" y="496" type="curve" smooth="yes"/>
      <point x="181" y="447"/>
      <point x="158" y="394"/>
      <point x="66" y="383" type="curve" smooth="yes"/>
      <point x="56" y="382" type="line"/>
      <point x="50" y="381"/>
      <point x="46" y="377"/>
      <point x="46" y="371" type="curve"/>
      <point x="46" y="322" type="line"/>
      <point x="46" y="316"/>
      <point x="50" y="312"/>
      <point x="56" y="311" type="curve"/>
      <point x="66" y="310" type="line" smooth="yes"/>
      <point x="158" y="299"/>
      <point x="181" y="246"/>
      <point x="181" y="196" type="curve" smooth="yes"/>
      <point x="181" y="137"/>
      <point x="173" y="66"/>
      <point x="173" y="25" type="curve" smooth="yes"/>
      <point x="173" y="-92"/>
      <point x="273" y="-123"/>
      <point x="447" y="-130" type="curve"/>
      <point x="453" y="-130"/>
      <point x="458" y="-126"/>
    </contour>
  </outline>
</glyph>
<glyph name="bar" format="2">
  <advance width="490"/>
  <unicode hex="007C"/>
  <outline>
    <contour>
      <point x="185" y="-199" type="curve"/>
      <point x="276" y="-189" type="line"/>
      <point x="313" y="-185"/>
      <point x="317" y="-181"/>
      <point x="317" y="-116" type="curve"/>
      <point x="317" y="733" type="line"/>
      <point x="329" y="814" type="line"/>
      <point x="330" y="820"/>
      <point x="327" y="824"/>
      <point x="321" y="823" type="curve"/>
      <point x="274" y="819"/>
      <point x="226" y="807"/>
      <point x="188" y="794" type="curve"/>
      <point x="176" y="789"/>
      <point x="175" y="788"/>
      <point x="175" y="775" type="curve"/>
      <point x="175" y="-190" type="line"/>
      <point x="175" y="-196"/>
      <point x="179" y="-200"/>
    </contour>
  </outline>
</glyph>
<glyph name="asciitilde" format="2">
  <advance width="670"/>
  <unicode hex="007E"/>
  <outline>
    <contour>
      <point x="40" y="176" type="curve"/>
      <point x="90" y="158" type="line"/>
      <point x="95" y="155"/>
      <point x="101" y="158"/>
      <point x="103" y="163" type="curve"/>
      <point x="130" y="222"/>
      <point x="156" y="255"/>
      <point x="213" y="255" type="curve" smooth="yes"/>
      <point x="285" y="255"/>
      <point x="352" y="165"/>
      <point x="445" y="165" type="curve" smooth="yes"/>
      <point x="559" y="165"/>
      <point x="606" y="278"/>
      <point x="635" y="362" type="curve"/>
      <point x="637" y="367"/>
      <point x="634" y="372"/>
      <point x="629" y="374" type="curve"/>
      <point x="579" y="393" type="line"/>
      <point x="574" y="395"/>
      <point x="568" y="392"/>
      <point x="566" y="387" type="curve"/>
      <point x="539" y="329"/>
      <point x="514" y="296"/>
      <point x="456" y="296" type="curve" smooth="yes"/>
      <point x="384" y="296"/>
      <point x="317" y="386"/>
      <point x="224" y="386" type="curve" smooth="yes"/>
      <point x="109" y="386"/>
      <point x="63" y="273"/>
      <point x="34" y="189" type="curve"/>
      <point x="32" y="184"/>
      <point x="35" y="179"/>
    </contour>
  </outline>
</glyph>
<glyph name="cent" format="2">
  <advance width="594"/>
  <unicode hex="00A2"/>
  <outline>
    <contour>
      <point x="384" y="64" type="curve"/>
      <point x="384" y="465" type="line"/>
      <point x="307" y="465" type="line"/>
      <point x="307" y="2" type="line"/>
      <point x="307" y="-4"/>
      <point x="311" y="-8"/>
      <point x="317" y="-8" type="curve"/>
      <point x="343" y="-7" type="line"/>
      <point x="380" y="-5"/>
      <point x="384" y="-1"/>
    </contour>
    <contour>
      <point x="307" y="657" type="curve"/>
      <point x="307" y="465" type="line"/>
      <point x="384" y="465" type="line"/>
      <point x="384" y="647" type="line"/>
      <point x="391" y="673" type="line"/>
      <point x="392" y="679"/>
      <point x="389" y="683"/>
      <point x="383" y="683" type="curve"/>
      <point x="361" y="681"/>
      <point x="339" y="678"/>
      <point x="321" y="674" type="curve"/>
      <point x="308" y="671"/>
      <point x="307" y="670"/>
    </contour>
    <contour>
      <point x="324" y="69" type="curve" smooth="yes"/>
      <point x="404" y="69"/>
      <point x="476" y="101"/>
      <point x="527" y="159" type="curve"/>
      <point x="531" y="164"/>
      <point x="532" y="170"/>
      <point x="528" y="175" type="curve"/>
      <point x="511" y="203" type="line"/>
      <point x="507" y="208"/>
      <point x="502" y="209"/>
      <point x="496" y="206" type="curve"/>
      <point x="469" y="190"/>
      <point x="438" y="177"/>
      <point x="392" y="177" type="curve" smooth="yes"/>
      <point x="297" y="177"/>
      <point x="248" y="237"/>
      <point x="248" y="353" type="curve" smooth="yes"/>
      <point x="248" y="453"/>
      <point x="287" y="498"/>
      <point x="375" y="498" type="curve" smooth="yes"/>
      <point x="396" y="498"/>
      <point x="423" y="496"/>
      <point x="446" y="493" type="curve"/>
      <point x="388" y="510" type="line"/>
      <point x="436" y="379" type="line"/>
      <point x="438" y="374"/>
      <point x="443" y="370"/>
      <point x="449" y="370" type="curve"/>
      <point x="497" y="370" type="line"/>
      <point x="503" y="370"/>
      <point x="507" y="374"/>
      <point x="508" y="380" type="curve"/>
      <point x="528" y="553" type="line"/>
      <point x="529" y="559"/>
      <point x="525" y="564"/>
      <point x="520" y="566" type="curve"/>
      <point x="479" y="581"/>
      <point x="418" y="600"/>
      <point x="347" y="600" type="curve" smooth="yes"/>
      <point x="174" y="600"/>
      <point x="54" y="491"/>
      <point x="54" y="335" type="curve" smooth="yes"/>
      <point x="54" y="178"/>
      <point x="164" y="69"/>
    </contour>
  </outline>
</glyph>
